Blinker-Bold.ufo
<glyph name="exclam" format="2">
  <advance width="244"/>
  <unicode hex="0021"/>
  <outline>
    <contour>
      <point x="207.0" y="627.0" type="line"/>
      <point x="37.0" y="627.0" type="line"/>
      <point x="56.0" y="202.0" type="line"/>
      <point x="188.0" y="202.0" type="line"/>
    </contour>
    <contour>
      <point x="199.0" y="0.0" type="line"/>
      <point x="199.0" y="134.0" type="line"/>
      <point x="45.0" y="134.0" type="line"/>
      <point x="45.0" y="0.0" type="line"/>
    </contour>
  </outline>
</glyph>
<glyph name="quotedbl" format="2">
  <advance width="323"/>
  <unicode hex="0022"/>
  <outline>
    <contour>
      <point x="131.0" y="627.0" type="line"/>
      <point x="32.0" y="627.0" type="line"/>
      <point x="32.0" y="399.0" type="line"/>
      <point x="131.0" y="399.0" type="line"/>
    </contour>
    <contour>
      <point x="291.0" y="627.0" type="line"/>
      <point x="192.0" y="627.0" type="line"/>
      <point x="192.0" y="399.0" type="line"/>
      <point x="291.0" y="399.0" type="line"/>
    </contour>
  </outline>
</glyph>
<glyph name="numbersign" format="2">
  <advance width="553"/>
  <unicode hex="0023"/>
  <outline>
    <contour>
      <point x="536.0" y="395.0" type="line"/>
      <point x="536.0" y="493.0" type="line"/>
      <point x="457.0" y="493.0" type="line"/>
      <point x="479.0" y="627.0" type="line"/>
      <point x="377.0" y="627.0" type="line"/>
      <point x="354.0" y="493.0" type="line"/>
      <point x="260.0" y="493.0" type="line"/>
      <point x="282.0" y="627.0" type="line"/>
      <point x="180.0" y="627.0" type="line"/>
      <point x="158.0" y="493.0" type="line"/>
      <point x="52.0" y="493.0" type="line"/>
      <point x="52.0" y="395.0" type="line"/>
      <point x="140.0" y="395.0" type="line"/>
      <point x="116.0" y="242.0" type="line"/>
      <point x="17.0" y="242.0" type="line"/>
      <point x="17.0" y="144.0" type="line"/>
      <point x="100.0" y="144.0" type="line"/>
      <point x="76.0" y="0.0" type="line"/>
      <point x="179.0" y="0.0" type="line"/>
      <point x="202.0" y="144.0" type="line"/>
      <point x="297.0" y="144.0" type="line"/>
      <point x="274.0" y="0.0" type="line"/>
      <point x="376.0" y="0.0" type="line"/>
      <point x="400.0" y="144.0" type="line"/>
      <point x="501.0" y="144.0" type="line"/>
      <point x="501.0" y="242.0" type="line"/>
      <point x="416.0" y="242.0" type="line"/>
      <point x="439.0" y="395.0" type="line"/>
    </contour>
    <contour>
      <point x="337.0" y="395.0" type="line"/>
      <point x="313.0" y="242.0" type="line"/>
      <point x="218.0" y="242.0" type="line"/>
      <point x="243.0" y="395.0" type="line"/>
    </contour>
  </outline>
</glyph>
<glyph name="dollar" format="2">
  <advance width="480"/>
  <unicode hex="0024"/>
  <outline>
    <contour>
      <point x="284.0" y="580.0" type="line"/>
      <point x="284.0" y="717.0" type="line"/>
      <point x="193.0" y="717.0" type="line"/>
      <point x="193.0" y="580.0" type="line"/>
    </contour>
    <contour>
      <point x="284.0" y="-90.0" type="line"/>
      <point x="284.0" y="57.0" type="line"/>
      <point x="193.0" y="57.0" type="line"/>
      <point x="193.0" y="-90.0" type="line"/>
    </contour>
    <contour>
      <point x="158.0" y="264.0" type="curve" smooth="yes"/>
      <point x="270.0" y="235.0" type="line" smooth="yes"/>
      <point x="290.50060214312725" y="229.69180837365454"/>
      <point x="303.0" y="224.77272727272728"/>
      <point x="303.0" y="190.0" type="curve" smooth="yes"/>
      <point x="303.0" y="151.0"/>
      <point x="291.61538461538464" y="135.0"/>
      <point x="229.0" y="135.0" type="curve" smooth="yes"/>
      <point x="144.1219512195122" y="135.0"/>
      <point x="69.09238655230516" y="150.28777987365933"/>
      <point x="29.0" y="163.0" type="curve"/>
      <point x="29.0" y="16.0" type="line"/>
      <point x="63.25096714786858" y="3.278212202220246"/>
      <point x="138.2682926829268" y="-10.0"/>
      <point x="229.0" y="-10.0" type="curve" smooth="yes"/>
      <point x="431.5378151260504" y="-10.0"/>
      <point x="463.0" y="93.0"/>
      <point x="463.0" y="196.0" type="curve" smooth="yes"/>
      <point x="463.0" y="333.0"/>
      <point x="407.0" y="348.0"/>
      <point x="320.0" y="371.0" type="curve" smooth="yes"/>
      <point x="209.0" y="400.0" type="line" smooth="yes"/>
      <point x="189.10126693132452" y="405.1987680990233"/>
      <point x="180.0" y="413.0"/>
      <point x="180.0" y="436.0" type="curve" smooth="yes"/>
      <point x="180.0" y="474.0"/>
      <point x="195.0" y="497.0"/>
      <point x="255.0" y="497.0" type="curve" smooth="yes"/>
      <point x="334.0243902439024" y="497.0"/>
      <point x="379.85402930757687" y="485.8576617820705"/>
      <point x="415.0" y="480.0" type="curve"/>
      <point x="415.0" y="619.0" type="line"/>
      <point x="380.80316622180226" y="628.7705239366279"/>
      <point x="336.9875776397515" y="637.0"/>
      <point x="258.0" y="637.0" type="curve" smooth="yes"/>
      <point x="100.41101694915255" y="637.0"/>
      <point x="27.0" y="570.0"/>
      <point x="27.0" y="425.0" type="curve" smooth="yes"/>
      <point x="27.0" y="306.0"/>
      <point x="86.0" y="283.0"/>
    </contour>
  </outline>
</glyph>
<glyph name="ampersand" format="1">
  <advance width="675.0"/>
  <unicode hex="0026"/>
  <outline>
    <contour>
      <point x="410.0" y="142.0" type="line"/>
      <point x="400.0" y="135.0"/>
      <point x="358.0" y="129.0"/>
      <point x="321.0" y="129.0" type="curve"/>
      <point x="217.0" y="129.0"/>
      <point x="183.0" y="177.0"/>
      <point x="183.0" y="339.0" type="curve"/>
      <point x="183.0" y="457.0"/>
      <point x="210.0" y="502.0"/>
      <point x="292.0" y="502.0" type="curve" smooth="yes"/>
      <point x="352.0" y="502.0"/>
      <point x="371.0" y="475.42857142857144"/>
      <point x="371.0" y="442.0" type="curve"/>
      <point x="371.0" y="385.3181818181818"/>
      <point x="324.99897373240714" y="353.0000156284405"/>
      <point x="128.0" y="356.0" type="curve"/>
      <point x="128.0" y="245.0" type="line"/>
      <point x="366.00201665334964" y="237.99994068666618"/>
      <point x="517.0" y="303.5658536585366"/>
      <point x="517.0" y="452.0" type="curve"/>
      <point x="517.0" y="565.0"/>
      <point x="445.3203883495146" y="637.0"/>
      <point x="303.0" y="637.0" type="curve" smooth="yes"/>
      <point x="121.02919708029196" y="637.0"/>
      <point x="26.0" y="530.0"/>
      <point x="26.0" y="325.0" type="curve"/>
      <point x="26.0" y="82.0"/>
      <point x="123.0" y="-10.0"/>
      <point x="319.0" y="-10.0" type="curve" smooth="yes"/>
      <point x="428.0" y="-10.0"/>
      <point x="520.1941413849152" y="22.24154483286138"/>
      <point x="555.0" y="55.0" type="curve"/>
      <point x="555.0" y="246.0" type="line"/>
      <point x="666.0" y="246.0" type="line"/>
      <point x="666.0" y="371.0" type="line"/>
      <point x="410.0" y="371.0" type="line"/>
    </contour>
  </outline>
</glyph>
<glyph name="parenleft" format="2">
  <advance width="220"/>
  <unicode hex="0028"/>
  <outline>
    <contour>
      <point x="139.0" y="313.0" type="curve"/>
      <point x="139.0" y="419.0"/>
      <point x="151.0" y="579.0"/>
      <point x="202.0" y="680.0" type="curve"/>
      <point x="118.0" y="707.0" type="line"/>
      <point x="51.0" y="594.0"/>
      <point x="26.0" y="450.0"/>
      <point x="26.0" y="313.0" type="curve"/>
      <point x="26.0" y="176.0"/>
      <point x="53.0" y="33.0"/>
      <point x="118.0" y="-80.0" type="curve"/>
      <point x="204.0" y="-53.0" type="line"/>
      <point x="154.0" y="48.0"/>
      <point x="139.0" y="203.0"/>
    </contour>
  </outline>
</glyph>
<glyph name="asterisk" format="2">
  <advance width="368"/>
  <unicode hex="002A"/>
  <outline>
    <contour>
      <point x="169.0" y="424.0" type="line"/>
      <point x="200.0" y="503.0" type="line"/>
      <point x="47.0" y="565.0" type="line"/>
      <point x="14.0" y="470.0" type="line"/>
    </contour>
    <contour>
      <point x="218.0" y="438.0" type="line"/>
      <point x="153.0" y="493.0" type="line"/>
      <point x="47.0" y="366.0" type="line"/>
      <point x="128.0" y="305.0" type="line"/>
    </contour>
    <contour>
      <point x="217.0" y="494.0" type="line"/>
      <point x="150.0" y="440.0" type="line"/>
      <point x="237.0" y="305.0" type="line"/>
      <point x="320.0" y="364.0" type="line"/>
    </contour>
    <contour>
      <point x="168.0" y="506.0" type="line"/>
      <point x="196.0" y="426.0" type="line"/>
      <point x="353.0" y="468.0" type="line"/>
      <point x="322.0" y="564.0" type="line"/>
    </contour>
    <contour>
      <point x="141.0" y="464.0" type="line"/>
      <point x="225.0" y="464.0" type="line"/>
      <point x="233.0" y="627.0" type="line"/>
      <point x="132.0" y="627.0" type="line"/>
    </contour>
  </outline>
</glyph>
<glyph name="plus" format="1">
  <advance width="500.0"/>
  <unicode hex="002B"/>
  <outline>
    <contour>
      <point x="463.0" y="252.0" type="line"/>
      <point x="463.0" y="392.0" type="line"/>
      <point x="37.0" y="392.0" type="line"/>
      <point x="37.0" y="252.0" type="line"/>
    </contour>
    <contour>
      <point x="323.0" y="532.0" type="line"/>
      <point x="178.0" y="532.0" type="line"/>
      <point x="178.0" y="110.0" type="line"/>
      <point x="323.0" y="110.0" type="line"/>
    </contour>
  </outline>
</glyph>
<glyph name="comma" format="2">
  <advance width="195"/>
  <unicode hex="002C"/>
  <outline>
    <contour>
      <point x="144.0" y="-40.0" type="curve" smooth="yes"/>
      <point x="174.0" y="138.0" type="line"/>
      <point x="30.0" y="138.0" type="line"/>
      <point x="30.0" y="-90.0" type="line"/>
      <point x="83.0" y="-90.0" type="line" smooth="yes"/>
      <point x="116.0" y="-90.0"/>
      <point x="139.0" y="-71.0"/>
    </contour>
  </outline>
</glyph>
<glyph name="hyphen" format="2">
  <advance width="383"/>
  <unicode hex="002D"/>
  <outline>
    <contour>
      <point x="351.0" y="262.0" type="line"/>
      <point x="351.0" y="375.0" type="line"/>
      <point x="32.0" y="375.0" type="line"/>
      <point x="32.0" y="262.0" type="line"/>
    </contour>
  </outline>
</glyph>
<glyph name="period" format="2">
  <advance width="203"/>
  <unicode hex="002E"/>
  <outline>
    <contour>
      <point x="29.0" y="0.0" type="line"/>
      <point x="174.0" y="0.0" type="line"/>
      <point x="174.0" y="138.0" type="line"/>
      <point x="29.0" y="138.0" type="line"/>
    </contour>
  </outline>
</glyph>
<glyph name="zero" format="2">
  <advance width="567"/>
  <unicode hex="0030"/>
  <guideline x="268.0" y="0.0" angle="90.0" identifier="k6xIl8WkMp"/>
  <guideline x="2972.0" y="0.0" angle="90.0" identifier="26FO0iK269"/>
  <guideline x="0.0" y="246.0" angle="0.0" identifier="XFWfqmO7he"/>
  <outline>
    <contour>
      <point x="284.0" y="497.0" type="curve"/>
      <point x="362.0" y="497.0"/>
      <point x="379.0" y="469.152173913"/>
      <point x="379.0" y="314.0" type="curve"/>
      <point x="379.0" y="162.0"/>
      <point x="362.0" y="135.0"/>
      <point x="284.0" y="135.0" type="curve"/>
      <point x="206.0" y="135.0"/>
      <point x="188.0" y="162.0"/>
      <point x="188.0" y="314.0" type="curve"/>
      <point x="188.0" y="469.0"/>
      <point x="206.0" y="497.0"/>
    </contour>
    <contour>
      <point x="284.0" y="-10.0" type="curve"/>
      <point x="459.35" y="-10.0"/>
      <point x="536.0" y="58.0"/>
      <point x="536.0" y="314.0" type="curve"/>
      <point x="536.0" y="569.209876543"/>
      <point x="480.0" y="637.0"/>
      <point x="284.0" y="637.0" type="curve"/>
      <point x="109.0" y="637.0"/>
      <point x="31.0" y="569.0"/>
      <point x="31.0" y="314.0" type="curve"/>
      <point x="31.0" y="58.0"/>
      <point x="87.6887966805" y="-10.0"/>
    </contour>
  </outline>
</glyph>
<glyph name="one" format="2">
  <advance width="368"/>
  <unicode hex="0031"/>
  <guideline x="485.0" y="0.0" angle="90.0" identifier="vDnxO28R7N"/>
  <guideline x="3676.0" y="0.0" angle="90.0" identifier="oTC4GhrXCa"/>
  <guideline x="0.0" y="222.0" angle="0.0" identifier="sVYGHxjfyI"/>
  <guideline x="1551.0" y="0.0" angle="90.0" identifier="ZzwZt3tgNS"/>
  <guideline x="987.0" y="0.0" angle="90.0" identifier="nolhkDsDyY"/>
  <guideline x="2175.0" y="0.0" angle="90.0" identifier="2VtnytM61w"/>
  <guideline x="0.0" y="-666.0" angle="0.0" identifier="2fQmtL7uM4"/>
  <guideline x="0.0" y="1020.0" angle="0.0" identifier="VnduXJQijd"/>
  <outline>
    <contour>
      <point x="158.0" y="0.0" type="line"/>
      <point x="313.0" y="0.0" type="line"/>
      <point x="313.0" y="637.0" type="line"/>
      <point x="158.0" y="587.0" type="line"/>
    </contour>
    <contour>
      <point x="9.0" y="472.0" type="line"/>
      <point x="158.0" y="489.0" type="line"/>
      <point x="313.0" y="637.0" type="line"/>
      <point x="9.0" y="602.0" type="line"/>
    </contour>
  </outline>
</glyph>
<glyph name="two" format="1">
  <advance width="460.0"/>
  <unicode hex="0032"/>
  <outline>
    <contour>
      <point x="427.0" y="0.0" type="line"/>
      <point x="427.0" y="145.0" type="line"/>
      <point x="205.0" y="145.0" type="line"/>
      <point x="359.0" y="306.0" type="line" smooth="yes"/>
      <point x="407.0" y="356.0"/>
      <point x="427.0" y="403.0"/>
      <point x="427.0" y="473.0" type="curve"/>
      <point x="427.0" y="567.0"/>
      <point x="370.0" y="637.0"/>
      <point x="250.0" y="637.0" type="curve"/>
      <point x="173.07692307692307" y="637.0"/>
      <point x="96.0" y="626.0"/>
      <point x="50.0" y="613.0" type="curve"/>
      <point x="50.0" y="478.0" type="line"/>
      <point x="50.0" y="478.0"/>
      <point x="156.1764705882353" y="497.0"/>
      <point x="221.0" y="497.0" type="curve" smooth="yes"/>
      <point x="263.0" y="497.0"/>
      <point x="272.0" y="471.0"/>
      <point x="272.0" y="450.0" type="curve"/>
      <point x="272.0" y="420.0"/>
      <point x="261.0" y="398.0"/>
      <point x="234.0" y="370.0" type="curve" smooth="yes"/>
      <point x="21.0" y="145.0" type="line"/>
      <point x="21.0" y="0.0" type="line"/>
    </contour>
  </outline>
</glyph>
<glyph name="three" format="2">
  <advance width="453"/>
  <unicode hex="0033"/>
  <outline>
    <contour>
      <point x="307.0" y="331.0" type="line"/>
      <point x="372.0" y="350.0"/>
      <point x="403.0" y="400.0"/>
      <point x="403.0" y="475.0" type="curve" smooth="yes"/>
      <point x="403.0" y="581.0"/>
      <point x="345.0" y="637.0"/>
      <point x="233.0" y="637.0" type="curve" smooth="yes"/>
      <point x="164.0" y="637.0"/>
      <point x="78.77137277298758" y="625.2699804705456"/>
      <point x="38.0" y="611.0" type="curve"/>
      <point x="38.0" y="486.0" type="line"/>
      <point x="38.0" y="486.0"/>
      <point x="137.0" y="502.0"/>
      <point x="186.0" y="502.0" type="curve"/>
      <point x="244.0" y="502.0"/>
      <point x="258.0" y="482.0"/>
      <point x="258.0" y="444.0" type="curve" smooth="yes"/>
      <point x="258.0" y="409.0"/>
      <point x="241.0" y="385.0"/>
      <point x="179.0" y="385.0" type="curve" smooth="yes"/>
      <point x="90.0" y="385.0" type="line"/>
      <point x="90.0" y="257.0" type="line"/>
      <point x="203.0" y="257.0" type="line" smooth="yes"/>
      <point x="260.0" y="257.0"/>
      <point x="281.0" y="235.0"/>
      <point x="281.0" y="194.0" type="curve" smooth="yes"/>
      <point x="281.0" y="146.0"/>
      <point x="256.0" y="130.0"/>
      <point x="183.0" y="130.0" type="curve" smooth="yes"/>
      <point x="119.0" y="130.0"/>
      <point x="73.22591012653871" y="133.76525125236492"/>
      <point x="25.0" y="143.0" type="curve"/>
      <point x="25.0" y="11.0" type="line"/>
      <point x="59.675126223360124" y="-2.258136497167106"/>
      <point x="133.0" y="-10.0"/>
      <point x="211.0" y="-10.0" type="curve"/>
      <point x="342.0" y="-10.0"/>
      <point x="426.0" y="51.0"/>
      <point x="426.0" y="180.0" type="curve"/>
      <point x="426.0" y="271.0"/>
      <point x="387.0" y="323.0"/>
      <point x="307.0" y="329.0" type="curve"/>
    </contour>
  </outline>
</glyph>
<glyph name="four" format="2">
  <advance width="522"/>
  <unicode hex="0034"/>
  <outline>
    <contour>
      <point x="505.0" y="142.0" type="line"/>
      <point x="505.0" y="277.0" type="line"/>
      <point x="437.0" y="277.0" type="line"/>
      <point x="437.0" y="517.0" type="line"/>
      <point x="282.0" y="517.0" type="line"/>
      <point x="282.0" y="277.0" type="line"/>
      <point x="180.0" y="277.0" type="line"/>
      <point x="243.0" y="627.0" type="line"/>
      <point x="94.0" y="627.0" type="line"/>
      <point x="23.0" y="277.0" type="line"/>
      <point x="23.0" y="142.0" type="line"/>
      <point x="282.0" y="142.0" type="line"/>
      <point x="282.0" y="0.0" type="line"/>
      <point x="437.0" y="0.0" type="line"/>
      <point x="437.0" y="142.0" type="line"/>
    </contour>
  </outline>
</glyph>
<glyph name="five" format="1">
  <advance width="459.0"/>
  <unicode hex="0035"/>
  <outline>
    <contour>
      <point x="233.0" y="-10.0" type="curve"/>
      <point x="354.0" y="-10.0"/>
      <point x="436.0" y="54.0"/>
      <point x="436.0" y="189.0" type="curve"/>
      <point x="436.0" y="351.0"/>
      <point x="361.0" y="380.0"/>
      <point x="275.0" y="380.0" type="curve" smooth="yes"/>
      <point x="255.0" y="380.0"/>
      <point x="230.013175196" y="379.00131752"/>
      <point x="210.0" y="377.0" type="curve"/>
      <point x="210.0" y="487.0" type="line"/>
      <point x="396.0" y="487.0" type="line"/>
      <point x="396.0" y="627.0" type="line"/>
      <point x="55.0" y="627.0" type="line"/>
      <point x="55.0" y="243.0" type="line"/>
      <point x="97.0" y="251.0"/>
      <point x="142.0" y="252.0"/>
      <point x="185.0" y="253.0" type="curve"/>
      <point x="261.0" y="253.0"/>
      <point x="281.0" y="240.0"/>
      <point x="281.0" y="191.0" type="curve"/>
      <point x="281.0" y="151.0"/>
      <point x="256.0" y="135.0"/>
      <point x="189.0" y="135.0" type="curve"/>
      <point x="127.0" y="135.0"/>
      <point x="77.0" y="139.0"/>
      <point x="29.0" y="148.0" type="curve"/>
      <point x="29.0" y="11.0" type="line"/>
      <point x="68.7756405688" y="-3.65418336745"/>
      <point x="142.0" y="-10.0"/>
    </contour>
  </outline>
</glyph>
<glyph name="six" format="2">
  <advance width="509"/>
  <unicode hex="0036"/>
  <outline>
    <contour>
      <point x="30.0" y="297.0" type="curve"/>
      <point x="30.0" y="66.0"/>
      <point x="89.75103734439836" y="-10.0"/>
      <point x="270.0" y="-10.0" type="curve"/>
      <point x="407.0" y="-10.0"/>
      <point x="489.0" y="73.0"/>
      <point x="489.0" y="214.0" type="curve"/>
      <point x="489.0" y="351.0"/>
      <point x="434.0" y="416.0"/>
      <point x="324.0" y="416.0" type="curve"/>
      <point x="245.5374149659864" y="416.0"/>
      <point x="206.407595849093" y="392.6731563305341"/>
      <point x="178.0" y="377.0" type="curve"/>
      <point x="178.0" y="268.0" type="line"/>
      <point x="189.6195196250749" y="274.778053114627"/>
      <point x="232.39560439560438" y="287.0"/>
      <point x="268.0" y="287.0" type="curve"/>
      <point x="320.0" y="287.0"/>
      <point x="339.0" y="274.0"/>
      <point x="339.0" y="206.0" type="curve"/>
      <point x="339.0" y="152.0"/>
      <point x="315.0" y="126.0"/>
      <point x="265.0" y="126.0" type="curve"/>
      <point x="195.8641975308642" y="126.0"/>
      <point x="185.0" y="156.0"/>
      <point x="185.0" y="283.0" type="curve"/>
      <point x="185.0" y="460.6073059360731"/>
      <point x="213.0" y="504.0"/>
      <point x="326.0" y="504.0" type="curve"/>
      <point x="372.3963963963964" y="504.0"/>
      <point x="409.1903945052498" y="500.980960549475"/>
      <point x="429.0" y="499.0" type="curve"/>
      <point x="429.0" y="628.0" type="line"/>
      <point x="411.1606230280732" y="632.9553824922019"/>
      <point x="364.625" y="637.0"/>
      <point x="326.0" y="637.0" type="curve"/>
      <point x="122.111888112" y="637.0"/>
      <point x="30.0" y="531.0"/>
    </contour>
  </outline>
</glyph>
<glyph name="seven" format="2">
  <advance width="449"/>
  <unicode hex="0037"/>
  <outline>
    <contour>
      <point x="431.0" y="487.0" type="line"/>
      <point x="431.0" y="627.0" type="line"/>
      <point x="24.0" y="627.0" type="line"/>
      <point x="24.0" y="487.0" type="line"/>
      <point x="265.0" y="487.0" type="line"/>
      <point x="15.0" y="0.0" type="line"/>
      <point x="190.0" y="0.0" type="line"/>
    </contour>
  </outline>
</glyph>
<glyph name="eight" format="2">
  <advance width="515"/>
  <unicode hex="0038"/>
  <guideline x="358" y="329" angle="0" identifier="8NpR1zyMbo"/>
  <outline>
    <contour>
      <point x="257.0" y="-10.0" type="curve"/>
      <point x="417.0" y="-10.0"/>
      <point x="486.0" y="45.0"/>
      <point x="486.0" y="171.0" type="curve"/>
      <point x="486.0" y="246.0"/>
      <point x="451.0" y="304.0"/>
      <point x="380.0" y="324.0" type="curve"/>
      <point x="450.0" y="348.0"/>
      <point x="475.0" y="401.0"/>
      <point x="475.0" y="470.0" type="curve"/>
      <point x="475.0" y="591.0"/>
      <point x="415.0" y="637.0"/>
      <point x="257.0" y="637.0" type="curve"/>
      <point x="106.0" y="637.0"/>
      <point x="40.0" y="586.0"/>
      <point x="40.0" y="470.0" type="curve"/>
      <point x="39.0" y="401.0"/>
      <point x="64.0" y="348.0"/>
      <point x="135.0" y="324.0" type="curve"/>
      <point x="64.0" y="304.0"/>
      <point x="29.0" y="246.0"/>
      <point x="29.0" y="171.0" type="curve"/>
      <point x="29.0" y="40.0"/>
      <point x="92.0" y="-10.0"/>
    </contour>
    <contour>
      <point x="257.0" y="510.0" type="curve"/>
      <point x="315.0" y="510.0"/>
      <point x="337.0" y="493.0"/>
      <point x="337.0" y="447.0" type="curve"/>
      <point x="337.0" y="398.0"/>
      <point x="315.0" y="379.0"/>
      <point x="257.0" y="379.0" type="curve"/>
      <point x="199.0" y="379.0"/>
      <point x="178.0" y="398.0"/>
      <point x="178.0" y="447.0" type="curve"/>
      <point x="178.0" y="493.0"/>
      <point x="199.0" y="510.0"/>
    </contour>
    <contour>
      <point x="257.0" y="257.0" type="curve"/>
      <point x="318.0" y="257.0"/>
      <point x="341.0" y="239.0"/>
      <point x="341.0" y="192.0" type="curve"/>
      <point x="341.0" y="141.0"/>
      <point x="318.0" y="122.0"/>
      <point x="257.0" y="122.0" type="curve"/>
      <point x="196.0" y="122.0"/>
      <point x="174.0" y="141.0"/>
      <point x="174.0" y="192.0" type="curve"/>
      <point x="174.0" y="239.0"/>
      <point x="196.0" y="257.0"/>
    </contour>
  </outline>
</glyph>
<glyph name="nine" format="2">
  <advance width="511"/>
  <unicode hex="0039"/>
  <outline>
    <contour>
      <point x="481.0" y="330.0" type="curve"/>
      <point x="481.0" y="561.0"/>
      <point x="422.7521367521367" y="637.0"/>
      <point x="246.0" y="637.0" type="curve"/>
      <point x="103.62995594713655" y="637.0"/>
      <point x="20.0" y="554.0"/>
      <point x="20.0" y="413.0" type="curve"/>
      <point x="20.0" y="276.0"/>
      <point x="76.66666666666667" y="211.0"/>
      <point x="190.0" y="211.0" type="curve"/>
      <point x="258.4788732394366" y="211.0"/>
      <point x="302.3356402497547" y="234.17323367729276"/>
      <point x="333.0" y="250.0" type="curve"/>
      <point x="333.0" y="362.0" type="line"/>
      <point x="321.7573512171298" y="355.4417882100744"/>
      <point x="297.60674157303373" y="340.0"/>
      <point x="243.0" y="340.0" type="curve"/>
      <point x="189.73972602739727" y="340.0"/>
      <point x="171.0" y="353.0"/>
      <point x="171.0" y="421.0" type="curve"/>
      <point x="171.0" y="475.0"/>
      <point x="194.68421052631578" y="501.0"/>
      <point x="246.0" y="501.0" type="curve"/>
      <point x="314.8607594936709" y="501.0"/>
      <point x="326.0" y="471.0"/>
      <point x="326.0" y="344.0" type="curve"/>
      <point x="326.0" y="168.0"/>
      <point x="297.8014184397163" y="125.0"/>
      <point x="184.0" y="125.0" type="curve"/>
      <point x="136.0" y="125.0"/>
      <point x="99.0" y="127.0"/>
      <point x="76.0" y="130.0" type="curve"/>
      <point x="76.0" y="-1.0" type="line"/>
      <point x="95.0" y="-6.0"/>
      <point x="144.0" y="-10.0"/>
      <point x="184.0" y="-10.0" type="curve"/>
      <point x="388.68918918918916" y="-10.0"/>
      <point x="481.0" y="96.0"/>
    </contour>
  </outline>
</glyph>
<glyph name="less" format="2">
  <advance width="500"/>
  <unicode hex="003C"/>
  <outline>
    <contour>
      <point x="463.0" y="402.0" type="line"/>
      <point x="463.0" y="547.0" type="line"/>
      <point x="37.0" y="397.0" type="line"/>
      <point x="37.0" y="272.0" type="line"/>
    </contour>
    <contour>
      <point x="463.0" y="77.0" type="line"/>
      <point x="463.0" y="225.0" type="line"/>
      <point x="37.0" y="355.0" type="line"/>
      <point x="37.0" y="227.0" type="line"/>
    </contour>
  </outline>
</glyph>
<glyph name="question" format="1">
  <advance width="371.0"/>
  <unicode hex="003F"/>
  <outline>
    <contour>
      <point x="355.0" y="499.0" type="curve" smooth="yes"/>
      <point x="355.0" y="596.0"/>
      <point x="278.0" y="637.0"/>
      <point x="185.0" y="637.0" type="curve" smooth="yes"/>
      <point x="117.0" y="637.0"/>
      <point x="69.02155646361672" y="628.6236755629295"/>
      <point x="18.0" y="609.0" type="curve"/>
      <point x="18.0" y="479.0" type="line"/>
      <point x="51.235453999608936" y="490.73016023515606"/>
      <point x="117.0" y="504.0"/>
      <point x="160.0" y="504.0" type="curve"/>
      <point x="190.9090909090909" y="504.0"/>
      <point x="210.0" y="495.0"/>
      <point x="210.0" y="463.0" type="curve" smooth="yes"/>
      <point x="210.0" y="419.0"/>
      <point x="151.0" y="380.0"/>
      <point x="93.0" y="346.0" type="curve"/>
      <point x="93.0" y="203.0" type="line"/>
      <point x="229.0" y="203.0" type="line"/>
      <point x="229.0" y="300.0" type="line"/>
      <point x="302.0" y="352.0"/>
      <point x="355.0" y="411.0"/>
    </contour>
    <contour>
      <point x="238.0" y="0.0" type="line"/>
      <point x="238.0" y="134.0" type="line"/>
      <point x="83.0" y="134.0" type="line"/>
      <point x="83.0" y="0.0" type="line"/>
    </contour>
  </outline>
</glyph>
<glyph name="at" format="2">
  <advance width="617"/>
  <unicode hex="0040"/>
  <outline>
    <contour>
      <point x="190.0" y="180.0" type="curve"/>
      <point x="190.0" y="113.0"/>
      <point x="219.0" y="82.0"/>
      <point x="281.0" y="82.0" type="curve"/>
      <point x="324.0" y="82.0"/>
      <point x="381.0" y="101.0"/>
      <point x="402.0" y="145.0" type="curve"/>
      <point x="370.0" y="182.0" type="line"/>
      <point x="366.0" y="176.0"/>
      <point x="338.0" y="162.0"/>
      <point x="309.0" y="162.0" type="curve"/>
      <point x="287.0" y="162.0"/>
      <point x="281.0" y="169.0"/>
      <point x="281.0" y="186.0" type="curve" smooth="yes"/>
      <point x="281.0" y="205.0"/>
      <point x="287.0" y="210.0"/>
      <point x="320.0" y="210.0" type="curve"/>
      <point x="350.0" y="210.0"/>
      <point x="361.0" y="207.0"/>
      <point x="370.0" y="204.0" type="curve"/>
      <point x="370.0" y="266.0" type="line"/>
      <point x="362.0" y="269.0"/>
      <point x="334.0" y="274.0"/>
      <point x="305.0" y="274.0" type="curve"/>
      <point x="220.0" y="274.0"/>
      <point x="190.0" y="250.0"/>
    </contour>
    <contour>
      <point x="600.0" y="299.0" type="curve" smooth="yes"/>
      <point x="600.0" y="462.0"/>
      <point x="507.0" y="557.0"/>
      <point x="328.0" y="557.0" type="curve"/>
      <point x="136.0" y="557.0"/>
      <point x="25.0" y="450.0"/>
      <point x="25.0" y="236.0" type="curve" smooth="yes"/>
      <point x="25.0" y="7.0"/>
      <point x="154.0" y="-76.0"/>
      <point x="329.0" y="-76.0" type="curve"/>
      <point x="410.0" y="-76.0"/>
      <point x="471.0" y="-61.0"/>
      <point x="514.0" y="-36.0" type="curve"/>
      <point x="514.0" y="59.0" type="line"/>
      <point x="466.0" y="33.0"/>
      <point x="402.0" y="23.0"/>
      <point x="356.0" y="23.0" type="curve"/>
      <point x="216.0" y="23.0"/>
      <point x="131.0" y="68.0"/>
      <point x="131.0" y="235.0" type="curve" smooth="yes"/>
      <point x="131.0" y="412.0"/>
      <point x="187.0" y="462.0"/>
      <point x="329.0" y="462.0" type="curve"/>
      <point x="465.0" y="462.0"/>
      <point x="502.0" y="375.0"/>
      <point x="502.0" y="287.0" type="curve" smooth="yes"/>
      <point x="502.0" y="210.0"/>
      <point x="480.0" y="166.0"/>
      <point x="461.0" y="166.0" type="curve"/>
      <point x="453.0" y="166.0"/>
      <point x="450.0" y="171.0"/>
      <point x="450.0" y="183.0" type="curve" smooth="yes"/>
      <point x="450.0" y="300.0" type="line" smooth="yes"/>
      <point x="450.0" y="368.0"/>
      <point x="410.0" y="401.0"/>
      <point x="339.0" y="401.0" type="curve"/>
      <point x="289.0" y="401.0"/>
      <point x="249.0" y="398.0"/>
      <point x="216.0" y="390.0" type="curve"/>
      <point x="216.0" y="306.0" type="line"/>
      <point x="230.0" y="309.0"/>
      <point x="256.0" y="313.0"/>
      <point x="311.0" y="313.0" type="curve" smooth="yes"/>
      <point x="344.0" y="313.0"/>
      <point x="359.0" y="304.0"/>
      <point x="359.0" y="285.0" type="curve" smooth="yes"/>
      <point x="359.0" y="156.0" type="line"/>
      <point x="377.0" y="156.0" type="line"/>
      <point x="379.0" y="119.0"/>
      <point x="396.0" y="82.0"/>
      <point x="446.0" y="82.0" type="curve"/>
      <point x="537.0" y="82.0"/>
      <point x="600.0" y="173.0"/>
    </contour>
  </outline>
</glyph>
<glyph name="A" format="2">
  <advance width="615"/>
  <unicode hex="0041"/>
  <anchor x="308.0" y="645" name="top"/>
  <anchor x="613.0" y="0" name="ogonek"/>
  <outline>
    <contour>
      <point x="-3.0" y="0.0" type="line"/>
      <point x="160.0" y="0.0" type="line"/>
      <point x="257.0" y="311.0" type="line" smooth="yes"/>
      <point x="275.0" y="369.0"/>
      <point x="324.0" y="526.0"/>
      <point x="345.0" y="627.0" type="curve"/>
      <point x="229.0" y="627.0" type="line"/>
    </contour>
    <contour>
      <point x="616.0" y="0.0" type="line"/>
      <point x="390.0" y="627.0" type="line"/>
      <point x="266.0" y="627.0" type="line"/>
      <point x="288.0" y="522.0"/>
      <point x="337.0" y="370.0"/>
      <point x="356.0" y="311.0" type="curve" smooth="yes"/>
      <point x="454.0" y="0.0" type="line"/>
    </contour>
    <contour>
      <point x="138.0" y="105.0" type="line"/>
      <point x="463.0" y="105.0" type="line"/>
      <point x="463.0" y="228.0" type="line"/>
      <point x="138.0" y="228.0" type="line"/>
    </contour>
  </outline>
</glyph>
<glyph name="B" format="2">
  <advance width="557"/>
  <unicode hex="0042"/>
  <outline>
    <contour>
      <point x="307.0" y="0.0" type="line"/>
      <point x="466.0" y="0.0"/>
      <point x="537.0" y="57.0"/>
      <point x="537.0" y="184.0" type="curve"/>
      <point x="537.0" y="281.0"/>
      <point x="493.0" y="320.0"/>
      <point x="431.0" y="333.0" type="curve"/>
      <point x="475.0" y="349.0"/>
      <point x="506.0" y="369.0"/>
      <point x="506.0" y="464.0" type="curve"/>
      <point x="506.0" y="582.0"/>
      <point x="451.0" y="627.0"/>
      <point x="307.0" y="627.0" type="curve" smooth="yes"/>
      <point x="116.0" y="627.0" type="line"/>
      <point x="116.0" y="500.0" type="line"/>
      <point x="307.0" y="500.0" type="line" smooth="yes"/>
      <point x="348.0" y="500.0"/>
      <point x="363.0" y="485.0"/>
      <point x="363.0" y="441.0" type="curve"/>
      <point x="363.0" y="391.0"/>
      <point x="348.0" y="373.0"/>
      <point x="307.0" y="373.0" type="curve" smooth="yes"/>
      <point x="116.0" y="373.0" type="line"/>
      <point x="116.0" y="259.0" type="line"/>
      <point x="307.0" y="259.0" type="line" smooth="yes"/>
      <point x="366.0" y="259.0"/>
      <point x="387.0" y="242.0"/>
      <point x="387.0" y="194.0" type="curve"/>
      <point x="387.0" y="148.0"/>
      <point x="366.0" y="132.0"/>
      <point x="307.0" y="132.0" type="curve" smooth="yes"/>
      <point x="116.0" y="132.0" type="line"/>
      <point x="116.0" y="0.0" type="line"/>
    </contour>
    <contour>
      <point x="203.0" y="0.0" type="line"/>
      <point x="203.0" y="627.0" type="line"/>
      <point x="48.0" y="627.0" type="line"/>
      <point x="48.0" y="0.0" type="line"/>
    </contour>
  </outline>
</glyph>
<glyph name="C" format="2">
  <advance width="508"/>
  <unicode hex="0043"/>
  <anchor x="299.0" y="655.0" name="top"/>
  <anchor x="293.0" y="0.0" name="bottom"/>
  <outline>
    <contour>
      <point x="491.0" y="166.0" type="line"/>
      <point x="443.0" y="148.0"/>
      <point x="374.0" y="135.0"/>
      <point x="320.0" y="135.0" type="curve"/>
      <point x="227.0" y="135.0"/>
      <point x="187.0" y="155.0"/>
      <point x="187.0" y="314.0" type="curve" smooth="yes"/>
      <point x="187.0" y="476.0"/>
      <point x="227.0" y="497.0"/>
      <point x="330.0" y="497.0" type="curve"/>
      <point x="382.0" y="497.0"/>
      <point x="429.0" y="496.0"/>
      <point x="477.0" y="493.0" type="curve"/>
      <point x="477.0" y="628.0" type="line"/>
      <point x="433.0" y="635.0"/>
      <point x="382.0" y="637.0"/>
      <point x="330.0" y="637.0" type="curve"/>
      <point x="132.0" y="637.0"/>
      <point x="27.0" y="551.0"/>
      <point x="27.0" y="314.0" type="curve" smooth="yes"/>
      <point x="27.0" y="47.0"/>
      <point x="121.0" y="-10.0"/>
      <point x="300.0" y="-10.0" type="curve"/>
      <point x="388.0" y="-10.0"/>
      <point x="446.0" y="11.0"/>
      <point x="491.0" y="29.0" type="curve"/>
    </contour>
  </outline>
</glyph>
<glyph name="D" format="2">
  <advance width="602"/>
  <unicode hex="0044"/>
  <anchor x="283.0" y="645" name="top"/>
  <outline>
    <contour>
      <point x="69.0" y="487.0" type="line"/>
      <point x="267.0" y="487.0" type="line" smooth="yes"/>
      <point x="374.0" y="487.0"/>
      <point x="415.0" y="467.0"/>
      <point x="415.0" y="314.0" type="curve"/>
      <point x="415.0" y="164.0"/>
      <point x="374.0" y="145.0"/>
      <point x="267.0" y="145.0" type="curve" smooth="yes"/>
      <point x="71.0" y="145.0" type="line"/>
      <point x="71.0" y="0.0" type="line"/>
      <point x="267.0" y="0.0" type="line" smooth="yes"/>
      <point x="469.0" y="0.0"/>
      <point x="575.0" y="83.0"/>
      <point x="575.0" y="314.0" type="curve"/>
      <point x="575.0" y="572.0"/>
      <point x="485.0" y="627.0"/>
      <point x="267.0" y="627.0" type="curve" smooth="yes"/>
      <point x="69.0" y="627.0" type="line"/>
    </contour>
    <contour>
      <point x="203.0" y="0.0" type="line"/>
      <point x="203.0" y="627.0" type="line"/>
      <point x="48.0" y="627.0" type="line"/>
      <point x="48.0" y="0.0" type="line"/>
    </contour>
  </outline>
</glyph>
<glyph name="E" format="2">
  <advance width="505"/>
  <unicode hex="0045"/>
  <guideline x="332" y="208" angle="90.0" identifier="0S7kOpmP6I"/>
  <anchor x="270.0" y="645" name="top"/>
  <anchor x="444.0" y="0" name="ogonek"/>
  <outline>
    <contour>
      <point x="480.0" y="0.0" type="line"/>
      <point x="480.0" y="145.0" type="line"/>
      <point x="203.0" y="145.0" type="line"/>
      <point x="203.0" y="253.0" type="line"/>
      <point x="434.0" y="253.0" type="line"/>
      <point x="434.0" y="383.0" type="line"/>
      <point x="203.0" y="383.0" type="line"/>
      <point x="203.0" y="487.0" type="line"/>
      <point x="471.0" y="487.0" type="line"/>
      <point x="471.0" y="627.0" type="line"/>
      <point x="48.0" y="627.0" type="line"/>
      <point x="48.0" y="0.0" type="line"/>
    </contour>
  </outline>
</glyph>
<glyph name="F" format="2">
  <advance width="489"/>
  <unicode hex="0046"/>
  <outline>
    <contour>
      <point x="203.0" y="0.0" type="line"/>
      <point x="203.0" y="228.0" type="line"/>
      <point x="434.0" y="228.0" type="line"/>
      <point x="434.0" y="358.0" type="line"/>
      <point x="203.0" y="358.0" type="line"/>
      <point x="203.0" y="487.0" type="line"/>
      <point x="471.0" y="487.0" type="line"/>
      <point x="471.0" y="627.0" type="line"/>
      <point x="48.0" y="627.0" type="line"/>
      <point x="48.0" y="0.0" type="line"/>
    </contour>
  </outline>
</glyph>
<glyph name="G" format="2">
  <advance width="578"/>
  <unicode hex="0047"/>
  <guideline x="294" y="74" angle="90.0" identifier="cQTJpSbZDB"/>
  <anchor x="319.0" y="0" name="bottom"/>
  <anchor x="323.0" y="655" name="top"/>
  <outline>
    <contour>
      <point x="403.0" y="28.0" type="line"/>
      <point x="548.0" y="28.0" type="line"/>
      <point x="548.0" y="318.0" type="line"/>
      <point x="403.0" y="318.0" type="line"/>
    </contour>
    <contour>
      <point x="512.0" y="164.0" type="line"/>
      <point x="481.0" y="148.0"/>
      <point x="391.0" y="130.0"/>
      <point x="327.0" y="130.0" type="curve"/>
      <point x="228.0" y="130.0"/>
      <point x="187.0" y="151.0"/>
      <point x="187.0" y="314.0" type="curve" smooth="yes"/>
      <point x="187.0" y="476.0"/>
      <point x="228.0" y="497.0"/>
      <point x="337.0" y="497.0" type="curve"/>
      <point x="405.0" y="497.0"/>
      <point x="469.0" y="495.0"/>
      <point x="514.0" y="491.0" type="curve"/>
      <point x="514.0" y="627.0" type="line"/>
      <point x="478.0" y="634.0"/>
      <point x="408.0" y="637.0"/>
      <point x="337.0" y="637.0" type="curve"/>
      <point x="134.0" y="637.0"/>
      <point x="27.0" y="551.0"/>
      <point x="27.0" y="314.0" type="curve" smooth="yes"/>
      <point x="27.0" y="47.0"/>
      <point x="133.0" y="-10.0"/>
      <point x="317.0" y="-10.0" type="curve"/>
      <point x="407.0" y="-10.0"/>
      <point x="518.0" y="14.0"/>
      <point x="548.0" y="28.0" type="curve"/>
    </contour>
    <contour>
      <point x="295.0" y="233.0" type="line"/>
      <point x="548.0" y="233.0" type="line"/>
      <point x="548.0" y="358.0" type="line"/>
      <point x="295.0" y="358.0" type="line"/>
    </contour>
  </outline>
</glyph>
<glyph name="H" format="2">
  <advance width="626"/>
  <unicode hex="0048"/>
  <guideline x="0.0" y="433.0" angle="0.0" name="mid" identifier="P95OL4Nff9"/>
  <guideline x="302" y="627" angle="90" name="mid" identifier="LcMAWrAHf4"/>
  <anchor x="314.0" y="645" name="top"/>
  <outline>
    <contour>
      <point x="48.0" y="0.0" type="line"/>
      <point x="203.0" y="0.0" type="line"/>
      <point x="203.0" y="627.0" type="line"/>
      <point x="48.0" y="627.0" type="line"/>
    </contour>
    <contour>
      <point x="423.0" y="0.0" type="line"/>
      <point x="578.0" y="0.0" type="line"/>
      <point x="578.0" y="627.0" type="line"/>
      <point x="423.0" y="627.0" type="line"/>
    </contour>
    <contour>
      <point x="147.0" y="248.0" type="line"/>
      <point x="501.0" y="248.0" type="line"/>
      <point x="501.0" y="388.0" type="line"/>
      <point x="147.0" y="388.0" type="line"/>
    </contour>
  </outline>
</glyph>
<glyph name="J" format="1">
  <advance width="416.0"/>
  <unicode hex="004A"/>
  <outline>
    <contour>
      <point x="217.0" y="627.0" type="line"/>
      <point x="217.0" y="244.0" type="line"/>
      <point x="217.0" y="151.0"/>
      <point x="195.0" y="135.0"/>
      <point x="107.0" y="135.0" type="curve"/>
      <point x="61.0" y="135.0"/>
      <point x="34.0" y="138.0"/>
      <point x="12.0" y="142.0" type="curve"/>
      <point x="12.0" y="1.0" type="line"/>
      <point x="33.0" y="-4.0"/>
      <point x="67.0" y="-10.0"/>
      <point x="125.0" y="-10.0" type="curve"/>
      <point x="298.0" y="-10.0"/>
      <point x="372.0" y="56.0"/>
      <point x="372.0" y="234.0" type="curve"/>
      <point x="372.0" y="627.0" type="line"/>
    </contour>
    <contour>
      <point x="295.0" y="645" type="move" name="top"/>
    </contour>
  </outline>
</glyph>
<glyph name="L" format="2">
  <advance width="461"/>
  <unicode hex="004C"/>
  <anchor x="126.0" y="645" name="top"/>
  <anchor x="303.0" y="627" name="caronalt"/>
  <anchor x="261.0" y="0" name="bottom"/>
  <outline>
    <contour>
      <point x="448.0" y="0.0" type="line"/>
      <point x="448.0" y="145.0" type="line"/>
      <point x="203.0" y="145.0" type="line"/>
      <point x="203.0" y="627.0" type="line"/>
      <point x="48.0" y="627.0" type="line"/>
      <point x="48.0" y="0.0" type="line"/>
    </contour>
  </outline>
</glyph>
<glyph name="M" format="2">
  <advance width="724"/>
  <unicode hex="004D"/>
  <outline>
    <contour>
      <point x="676.0" y="0.0" type="line"/>
      <point x="676.0" y="627.0" type="line"/>
      <point x="494.0" y="627.0" type="line"/>
      <point x="364.0" y="311.0" type="line"/>
      <point x="237.0" y="627.0" type="line"/>
      <point x="48.0" y="627.0" type="line"/>
      <point x="48.0" y="0.0" type="line"/>
      <point x="193.0" y="0.0" type="line"/>
      <point x="193.0" y="376.0" type="line"/>
      <point x="298.0" y="120.0" type="line"/>
      <point x="424.0" y="120.0" type="line"/>
      <point x="531.0" y="376.0" type="line"/>
      <point x="531.0" y="0.0" type="line"/>
    </contour>
  </outline>
</glyph>
<glyph name="N" format="1">
  <advance width="637.0"/>
  <unicode hex="004E"/>
  <outline>
    <contour>
      <point x="589.0" y="0.0" type="line"/>
      <point x="589.0" y="627.0" type="line"/>
      <point x="444.0" y="627.0" type="line"/>
      <point x="444.0" y="251.0" type="line"/>
      <point x="195.0" y="627.0" type="line"/>
      <point x="48.0" y="627.0" type="line"/>
      <point x="48.0" y="0.0" type="line"/>
      <point x="193.0" y="0.0" type="line"/>
      <point x="193.0" y="362.0" type="line"/>
      <point x="441.0" y="0.0" type="line"/>
    </contour>
    <contour>
      <point x="325.0" y="645" type="move" name="top"/>
    </contour>
    <contour>
      <point x="316.0" y="0" type="move" name="bottom"/>
    </contour>
  </outline>
</glyph>
<glyph name="O" format="2">
  <advance width="644"/>
  <unicode hex="004F"/>
  <anchor x="322.0" y="655.0" name="top"/>
  <outline>
    <contour>
      <point x="322.0" y="-10.0" type="curve"/>
      <point x="530.0" y="-10.0"/>
      <point x="617.0" y="86.0"/>
      <point x="617.0" y="314.0" type="curve"/>
      <point x="617.0" y="552.0"/>
      <point x="540.0" y="637.0"/>
      <point x="322.0" y="637.0" type="curve"/>
      <point x="114.0" y="637.0"/>
      <point x="27.0" y="541.0"/>
      <point x="27.0" y="314.0" type="curve"/>
      <point x="27.0" y="75.0"/>
      <point x="104.0" y="-10.0"/>
    </contour>
    <contour>
      <point x="322.0" y="135.0" type="curve"/>
      <point x="217.0" y="135.0"/>
      <point x="184.0" y="155.0"/>
      <point x="184.0" y="314.0" type="curve"/>
      <point x="184.0" y="476.5530726256983"/>
      <point x="217.0" y="497.0"/>
      <point x="322.0" y="497.0" type="curve"/>
      <point x="427.0" y="497.0"/>
      <point x="460.0" y="476.5530726256983"/>
      <point x="460.0" y="314.0" type="curve"/>
      <point x="460.0" y="155.0"/>
      <point x="427.0" y="135.0"/>
    </contour>
  </outline>
</glyph>
<glyph name="P" format="2">
  <advance width="561"/>
  <unicode hex="0050"/>
  <outline>
    <contour>
      <point x="280.0" y="176.0" type="line" smooth="yes"/>
      <point x="456.0" y="176.0"/>
      <point x="544.0" y="246.0"/>
      <point x="544.0" y="407.0" type="curve"/>
      <point x="544.0" y="569.0"/>
      <point x="466.0" y="627.0"/>
      <point x="277.0" y="627.0" type="curve" smooth="yes"/>
      <point x="156.0" y="627.0" type="line"/>
      <point x="156.0" y="487.0" type="line"/>
      <point x="277.0" y="487.0" type="line" smooth="yes"/>
      <point x="355.0" y="487.0"/>
      <point x="387.0" y="469.0"/>
      <point x="387.0" y="407.0" type="curve"/>
      <point x="387.0" y="331.7916666666667"/>
      <point x="355.0" y="312.0"/>
      <point x="277.0" y="312.0" type="curve" smooth="yes"/>
      <point x="156.0" y="312.0" type="line"/>
      <point x="156.0" y="176.0" type="line"/>
    </contour>
    <contour>
      <point x="203.0" y="0.0" type="line"/>
      <point x="203.0" y="627.0" type="line"/>
      <point x="48.0" y="627.0" type="line"/>
      <point x="48.0" y="0.0" type="line"/>
    </contour>
  </outline>
</glyph>
<glyph name="R" format="2">
  <advance width="577"/>
  <unicode hex="0052"/>
  <anchor x="287.0" y="0" name="bottom"/>
  <anchor x="271.0" y="645" name="top"/>
  <outline>
    <contour>
      <point x="280.0" y="202.0" type="line" smooth="yes"/>
      <point x="456.0" y="202.0"/>
      <point x="544.0" y="267.0"/>
      <point x="544.0" y="415.0" type="curve"/>
      <point x="544.0" y="571.0"/>
      <point x="466.0" y="627.0"/>
      <point x="277.0" y="627.0" type="curve" smooth="yes"/>
      <point x="156.0" y="627.0" type="line"/>
      <point x="156.0" y="487.0" type="line"/>
      <point x="277.0" y="487.0" type="line" smooth="yes"/>
      <point x="355.0" y="487.0"/>
      <point x="387.0" y="471.0"/>
      <point x="387.0" y="415.0" type="curve"/>
      <point x="387.0" y="346.0"/>
      <point x="355.0" y="327.0"/>
      <point x="277.0" y="327.0" type="curve" smooth="yes"/>
      <point x="156.0" y="327.0" type="line"/>
      <point x="156.0" y="202.0" type="line"/>
    </contour>
    <contour>
      <point x="203.0" y="0.0" type="line"/>
      <point x="203.0" y="627.0" type="line"/>
      <point x="48.0" y="627.0" type="line"/>
      <point x="48.0" y="0.0" type="line"/>
    </contour>
    <contour>
      <point x="233.0" y="228.0" type="line"/>
      <point x="380.0" y="0.0" type="line"/>
      <point x="566.0" y="0.0" type="line"/>
      <point x="407.0" y="228.0" type="line"/>
    </contour>
  </outline>
</glyph>
<glyph name="S" format="2">
  <advance width="489"/>
  <unicode hex="0053"/>
  <anchor x="248.0" y="655.0" name="top"/>
  <anchor x="234.0" y="0.0" name="bottom"/>
  <outline>
    <contour>
      <point x="159.0" y="264.0" type="curve" smooth="yes"/>
      <point x="286.0" y="234.0" type="line" smooth="yes"/>
      <point x="303.0" y="230.0"/>
      <point x="313.0" y="224.0"/>
      <point x="313.0" y="190.0" type="curve" smooth="yes"/>
      <point x="313.0" y="151.0"/>
      <point x="301.0" y="135.0"/>
      <point x="235.0" y="135.0" type="curve" smooth="yes"/>
      <point x="148.0" y="135.0"/>
      <point x="71.0" y="150.0"/>
      <point x="30.0" y="163.0" type="curve"/>
      <point x="30.0" y="16.0" type="line"/>
      <point x="65.0" y="3.0"/>
      <point x="142.0" y="-10.0"/>
      <point x="235.0" y="-10.0" type="curve" smooth="yes"/>
      <point x="441.0" y="-10.0"/>
      <point x="473.0" y="93.0"/>
      <point x="473.0" y="196.0" type="curve" smooth="yes"/>
      <point x="473.0" y="333.0"/>
      <point x="417.0" y="351.0"/>
      <point x="330.0" y="371.0" type="curve" smooth="yes"/>
      <point x="210.0" y="399.0" type="line" smooth="yes"/>
      <point x="189.9500307622027" y="403.67832615548605"/>
      <point x="181.0" y="412.3611111111111"/>
      <point x="181.0" y="436.0" type="curve" smooth="yes"/>
      <point x="181.0" y="474.0"/>
      <point x="197.0" y="497.0"/>
      <point x="261.0" y="497.0" type="curve" smooth="yes"/>
      <point x="342.0" y="497.0"/>
      <point x="389.0" y="486.0"/>
      <point x="425.0" y="480.0" type="curve"/>
      <point x="425.0" y="619.0" type="line"/>
      <point x="390.0" y="629.0"/>
      <point x="345.0" y="637.0"/>
      <point x="264.0" y="637.0" type="curve" smooth="yes"/>
      <point x="103.0" y="637.0"/>
      <point x="28.0" y="570.0"/>
      <point x="28.0" y="425.0" type="curve" smooth="yes"/>
      <point x="28.0" y="306.0"/>
      <point x="87.0" y="281.0"/>
    </contour>
  </outline>
</glyph>
<glyph name="T" format="2">
  <advance width="521"/>
  <unicode hex="0054"/>
  <guideline x="248" y="0" angle="90" name="mid" identifier="oHT2vWL3rs"/>
  <anchor x="261.0" y="0" name="bottom"/>
  <anchor x="261.0" y="645" name="top"/>
  <outline>
    <contour>
      <point x="509.0" y="487.0" type="line"/>
      <point x="509.0" y="627.0" type="line"/>
      <point x="12.0" y="627.0" type="line"/>
      <point x="12.0" y="487.0" type="line"/>
      <point x="183.0" y="487.0" type="line"/>
      <point x="183.0" y="0.0" type="line"/>
      <point x="338.0" y="0.0" type="line"/>
      <point x="338.0" y="487.0" type="line"/>
    </contour>
  </outline>
</glyph>
<glyph name="U" format="2">
  <advance width="624"/>
  <unicode hex="0055"/>
  <guideline x="311.0" y="0.0" angle="90.0" name="mid" identifier="eEL195GBnM"/>
  <anchor x="312.0" y="645.0" name="top"/>
  <anchor x="485.0" y="34" name="ogonekalt"/>
  <outline>
    <contour>
      <point x="426.0" y="627.0" type="line"/>
      <point x="426.0" y="264.0" type="line" smooth="yes"/>
      <point x="426.0" y="161.0"/>
      <point x="401.0" y="135.0"/>
      <point x="313.0" y="135.0" type="curve"/>
      <point x="224.0" y="135.0"/>
      <point x="198.0" y="161.0"/>
      <point x="198.0" y="264.0" type="curve" smooth="yes"/>
      <point x="198.0" y="627.0" type="line"/>
      <point x="43.0" y="627.0" type="line"/>
      <point x="43.0" y="264.0" type="line" smooth="yes"/>
      <point x="43.0" y="79.0"/>
      <point x="118.0" y="-10.0"/>
      <point x="313.0" y="-10.0" type="curve"/>
      <point x="491.0" y="-10.0"/>
      <point x="581.0" y="80.0"/>
      <point x="581.0" y="264.0" type="curve" smooth="yes"/>
      <point x="581.0" y="627.0" type="line"/>
    </contour>
  </outline>
</glyph>
<glyph name="V" format="2">
  <advance width="615"/>
  <unicode hex="0056"/>
  <outline>
    <contour>
      <point x="617.0" y="627.0" type="line"/>
      <point x="449.0" y="627.0" type="line"/>
      <point x="357.0" y="316.0" type="line" smooth="yes"/>
      <point x="340.0" y="257.0"/>
      <point x="302.98840273738296" y="99.94477493991886"/>
      <point x="282.0" y="0.0" type="curve"/>
      <point x="401.0" y="0.0" type="line"/>
    </contour>
    <contour>
      <point x="-2.0" y="627.0" type="line"/>
      <point x="215.0" y="0.0" type="line"/>
      <point x="341.0" y="0.0" type="line"/>
      <point x="319.0" y="105.0"/>
      <point x="282.0" y="257.0"/>
      <point x="264.0" y="317.0" type="curve" smooth="yes"/>
      <point x="171.0" y="627.0" type="line"/>
    </contour>
  </outline>
</glyph>
<glyph name="W" format="2">
  <advance width="849"/>
  <unicode hex="0057"/>
  <anchor x="425.0" y="645" name="top"/>
  <outline>
    <contour>
      <point x="464.0" y="627.0" type="curve"/>
      <point x="346.0" y="627.0" type="line"/>
      <point x="282.0" y="316.0" type="line" smooth="yes"/>
      <point x="270.0" y="257.0"/>
      <point x="250.0" y="100.0"/>
      <point x="229.0" y="0.0" type="curve"/>
      <point x="343.0" y="0.0" type="line"/>
      <point x="383.0" y="190.0" type="line" smooth="yes"/>
      <point x="415.0" y="340.0"/>
      <point x="437.0" y="483.0"/>
    </contour>
    <contour>
      <point x="0.0" y="627.0" type="line"/>
      <point x="165.0" y="0.0" type="line"/>
      <point x="288.0" y="0.0" type="line"/>
      <point x="266.0" y="105.0"/>
      <point x="247.0" y="256.0"/>
      <point x="234.0" y="317.0" type="curve" smooth="yes"/>
      <point x="168.0" y="627.0" type="line"/>
    </contour>
    <contour>
      <point x="849.0" y="627.0" type="line"/>
      <point x="686.0" y="627.0" type="line"/>
      <point x="622.0" y="316.0" type="line" smooth="yes"/>
      <point x="610.0" y="257.0"/>
      <point x="590.0" y="100.0"/>
      <point x="569.0" y="0.0" type="curve"/>
      <point x="685.0" y="0.0" type="line"/>
    </contour>
    <contour>
      <point x="385.0" y="627.0" type="line"/>
      <point x="414.0" y="484.0"/>
      <point x="434.0" y="340.0"/>
      <point x="466.0" y="190.0" type="curve" smooth="yes"/>
      <point x="506.0" y="0.0" type="line"/>
      <point x="628.0" y="0.0" type="line"/>
      <point x="606.0" y="105.0"/>
      <point x="587.0" y="256.0"/>
      <point x="574.0" y="317.0" type="curve" smooth="yes"/>
      <point x="508.0" y="627.0" type="line"/>
    </contour>
  </outline>
</glyph>
<glyph name="X" format="2">
  <advance width="575"/>
  <unicode hex="0058"/>
  <anchor x="295.0" y="645" name="top"/>
  <outline>
    <contour>
      <point x="588.0" y="0.0" type="line"/>
      <point x="380.0" y="326.0" type="line"/>
      <point x="567.0" y="627.0" type="line"/>
      <point x="402.0" y="627.0" type="line"/>
      <point x="296.0" y="448.0" type="line"/>
      <point x="191.0" y="627.0" type="line"/>
      <point x="2.0" y="627.0" type="line"/>
      <point x="196.0" y="320.0" type="line"/>
      <point x="-10.0" y="0.0" type="line"/>
      <point x="160.0" y="0.0" type="line"/>
      <point x="277.0" y="200.0" type="line"/>
      <point x="399.0" y="0.0" type="line"/>
    </contour>
  </outline>
</glyph>
<glyph name="Y" format="2">
  <advance width="597"/>
  <unicode hex="0059"/>
  <anchor x="303.0" y="645" name="top"/>
  <outline>
    <contour>
      <point x="597.0" y="627.0" type="line"/>
      <point x="437.0" y="627.0" type="line"/>
      <point x="301.0" y="365.0" type="line"/>
      <point x="175.0" y="627.0" type="line"/>
      <point x="-2.0" y="627.0" type="line"/>
      <point x="223.0" y="228.0" type="line"/>
      <point x="223.0" y="0.0" type="line"/>
      <point x="378.0" y="0.0" type="line"/>
      <point x="378.0" y="228.0" type="line"/>
    </contour>
  </outline>
</glyph>
<glyph name="Z" format="2">
  <advance width="504"/>
  <unicode hex="005A"/>
  <anchor x="260.0" y="645" name="top"/>
  <outline>
    <contour>
      <point x="485.0" y="0.0" type="line"/>
      <point x="485.0" y="145.0" type="line"/>
      <point x="194.0" y="145.0" type="line"/>
      <point x="466.0" y="487.0" type="line"/>
      <point x="466.0" y="627.0" type="line"/>
      <point x="47.0" y="627.0" type="line"/>
      <point x="47.0" y="487.0" type="line"/>
      <point x="291.0" y="487.0" type="line"/>
      <point x="18.0" y="145.0" type="line"/>
      <point x="18.0" y="0.0" type="line"/>
    </contour>
  </outline>
</glyph>
<glyph name="backslash" format="2">
  <advance width="344"/>
  <unicode hex="005C"/>
  <outline>
    <contour>
      <point x="332.0" y="-80.0" type="line"/>
      <point x="118.0" y="707.0" type="line"/>
      <point x="11.0" y="707.0" type="line"/>
      <point x="225.0" y="-80.0" type="line"/>
    </contour>
  </outline>
</glyph>
<glyph name="asciicircum" format="2">
  <advance width="500"/>
  <unicode hex="005E"/>
  <outline>
    <contour>
      <point x="300.0" y="365.0" type="line"/>
      <point x="431.0" y="365.0" type="line"/>
      <point x="310.0" y="627.0" type="line"/>
      <point x="198.0" y="627.0" type="line"/>
    </contour>
    <contour>
      <point x="69.0" y="365.0" type="line"/>
      <point x="203.0" y="365.0" type="line"/>
      <point x="306.0" y="627.0" type="line"/>
      <point x="190.0" y="627.0" type="line"/>
    </contour>
  </outline>
</glyph>
<glyph name="grave" format="2">
  <advance width="362"/>
  <unicode hex="0060"/>
  <guideline x="130" y="705" angle="90.0" name="mid" identifier="JniTIOZSek"/>
  <anchor x="219" y="530" name="_top"/>
  <outline>
    <contour>
      <point x="50.0" y="682.0" type="line"/>
      <point x="196.0" y="551.0" type="line"/>
      <point x="312.0" y="551.0" type="line"/>
      <point x="207.0" y="682.0" type="line"/>
    </contour>
  </outline>
</glyph>
<glyph name="a" format="2">
  <advance width="490"/>
  <unicode hex="0061"/>
  <guideline x="219.0" y="0.0" angle="90.0" identifier="5GMSbG0NcT"/>
  <guideline x="0.0" y="316.0" angle="0.0" identifier="yYJhipOrJ0"/>
  <anchor x="249.0" y="530" name="top"/>
  <anchor x="449.0" y="0" name="ogonek"/>
  <outline>
    <contour>
      <point x="16.0" y="148.0" type="curve"/>
      <point x="16.0" y="39.0"/>
      <point x="61.0" y="-10.0"/>
      <point x="163.0" y="-10.0" type="curve"/>
      <point x="221.125" y="-10.0"/>
      <point x="283.5746872616793" y="23.541847989583346"/>
      <point x="318.0" y="56.0" type="curve"/>
      <point x="318.0" y="146.0" type="line"/>
      <point x="310.1350650453601" y="136.16883130670013"/>
      <point x="258.719298245614" y="113.0"/>
      <point x="209.0" y="113.0" type="curve"/>
      <point x="169.0" y="113.0"/>
      <point x="157.0" y="125.0"/>
      <point x="157.0" y="157.0" type="curve" smooth="yes"/>
      <point x="157.0" y="190.24444444444444"/>
      <point x="168.0" y="201.0"/>
      <point x="225.0" y="201.0" type="curve"/>
      <point x="277.0" y="201.0"/>
      <point x="301.0" y="196.0"/>
      <point x="318.0" y="190.0" type="curve"/>
      <point x="318.0" y="286.0" type="line"/>
      <point x="304.0" y="292.0"/>
      <point x="252.0" y="300.0"/>
      <point x="205.0" y="300.0" type="curve"/>
      <point x="66.0" y="300.0"/>
      <point x="16.0" y="259.4666666666667"/>
    </contour>
    <contour>
      <point x="309.0" y="0.0" type="line"/>
      <point x="449.0" y="0.0" type="line"/>
      <point x="449.0" y="342.0" type="line" smooth="yes"/>
      <point x="449.0" y="451.0"/>
      <point x="382.0" y="504.0"/>
      <point x="262.0" y="504.0" type="curve"/>
      <point x="181.0" y="504.0"/>
      <point x="115.0" y="499.0"/>
      <point x="62.0" y="486.0" type="curve"/>
      <point x="62.0" y="363.0" type="line"/>
      <point x="89.0" y="368.0"/>
      <point x="132.0" y="374.0"/>
      <point x="216.0" y="374.0" type="curve" smooth="yes"/>
      <point x="272.0" y="374.0"/>
      <point x="299.0" y="359.0"/>
      <point x="299.0" y="327.0" type="curve" smooth="yes"/>
      <point x="299.0" y="42.0" type="line"/>
      <point x="304.0" y="42.0" type="line"/>
    </contour>
  </outline>
</glyph>
<glyph name="b" format="2">
  <advance width="541"/>
  <unicode hex="0062"/>
  <outline>
    <contour>
      <point x="43.0" y="18.0" type="line"/>
      <point x="193.0" y="9.0" type="line"/>
      <point x="193.0" y="665.0" type="line"/>
      <point x="43.0" y="665.0" type="line"/>
    </contour>
    <contour>
      <point x="158.0" y="337.0" type="line"/>
      <point x="170.0" y="347.0"/>
      <point x="218.0" y="369.0"/>
      <point x="281.0" y="369.0" type="curve" smooth="yes"/>
      <point x="349.0" y="369.0"/>
      <point x="366.0" y="355.0"/>
      <point x="366.0" y="251.0" type="curve"/>
      <point x="366.0" y="147.0"/>
      <point x="351.0" y="129.0"/>
      <point x="272.0" y="129.0" type="curve"/>
      <point x="209.0" y="129.0"/>
      <point x="177.0" y="136.0"/>
      <point x="158.0" y="148.0" type="curve"/>
      <point x="43.0" y="18.0" type="line"/>
      <point x="101.0" y="1.0"/>
      <point x="182.0" y="-10.0"/>
      <point x="283.0" y="-10.0" type="curve"/>
      <point x="444.0" y="-10.0"/>
      <point x="516.0" y="65.0"/>
      <point x="516.0" y="251.0" type="curve"/>
      <point x="516.0" y="437.0"/>
      <point x="465.0" y="504.0"/>
      <point x="335.0" y="504.0" type="curve"/>
      <point x="256.0" y="504.0"/>
      <point x="187.0" y="468.0"/>
      <point x="158.0" y="447.0" type="curve"/>
    </contour>
  </outline>
</glyph>
<glyph name="c" format="2">
  <advance width="429"/>
  <unicode hex="0063"/>
  <anchor x="245.0" y="0.0" name="bottom"/>
  <anchor x="260.0" y="530.0" name="top"/>
  <outline>
    <contour>
      <point x="410.0" y="27.0" type="curve"/>
      <point x="410.0" y="151.0" type="line"/>
      <point x="386.0" y="144.0"/>
      <point x="322.0" y="130.0"/>
      <point x="252.0" y="130.0" type="curve" smooth="yes"/>
      <point x="187.0" y="130.0"/>
      <point x="176.0" y="146.0"/>
      <point x="176.0" y="247.0" type="curve" smooth="yes"/>
      <point x="176.0" y="357.0"/>
      <point x="186.0" y="369.0"/>
      <point x="278.0" y="369.0" type="curve" smooth="yes"/>
      <point x="342.0" y="369.0"/>
      <point x="370.0" y="366.0"/>
      <point x="397.0" y="364.0" type="curve"/>
      <point x="397.0" y="497.0" type="line"/>
      <point x="374.0" y="500.0"/>
      <point x="343.0" y="504.0"/>
      <point x="278.0" y="504.0" type="curve" smooth="yes"/>
      <point x="92.0" y="504.0"/>
      <point x="26.0" y="437.0"/>
      <point x="26.0" y="247.0" type="curve" smooth="yes"/>
      <point x="26.0" y="57.0"/>
      <point x="77.0" y="-10.0"/>
      <point x="221.0" y="-10.0" type="curve" smooth="yes"/>
      <point x="308.0" y="-10.0"/>
      <point x="383.0" y="10.0"/>
    </contour>
  </outline>
</glyph>
<glyph name="d" format="2">
  <advance width="541"/>
  <unicode hex="0064"/>
  <anchor x="548.0" y="665" name="caronalt"/>
  <outline>
    <contour>
      <point x="498.0" y="665.0" type="line"/>
      <point x="348.0" y="665.0" type="line"/>
      <point x="348.0" y="46.0" type="line"/>
      <point x="357.0" y="46.0" type="line"/>
      <point x="365.0" y="0.0" type="line"/>
      <point x="498.0" y="0.0" type="line"/>
    </contour>
    <contour>
      <point x="382.0" y="165.0" type="line"/>
      <point x="370.0" y="154.0"/>
      <point x="333.0" y="129.0"/>
      <point x="260.0" y="129.0" type="curve" smooth="yes"/>
      <point x="192.0" y="129.0"/>
      <point x="175.0" y="143.0"/>
      <point x="175.0" y="247.0" type="curve"/>
      <point x="175.0" y="351.0"/>
      <point x="190.0" y="369.0"/>
      <point x="269.0" y="369.0" type="curve"/>
      <point x="332.0" y="369.0"/>
      <point x="353.0" y="355.0"/>
      <point x="372.0" y="343.0" type="curve"/>
      <point x="403.0" y="448.0" type="line"/>
      <point x="385.0" y="489.0"/>
      <point x="320.0" y="504.0"/>
      <point x="248.0" y="504.0" type="curve"/>
      <point x="97.0" y="504.0"/>
      <point x="25.0" y="433.0"/>
      <point x="25.0" y="247.0" type="curve"/>
      <point x="25.0" y="61.0"/>
      <point x="76.0" y="-10.0"/>
      <point x="206.0" y="-10.0" type="curve"/>
      <point x="297.0" y="-10.0"/>
      <point x="366.0" y="30.0"/>
      <point x="402.0" y="125.0" type="curve"/>
    </contour>
  </outline>
</glyph>
<glyph name="e" format="1">
  <advance width="499.0"/>
  <unicode hex="0065"/>
  <outline>
    <contour>
      <point x="258.0" y="376.0" type="curve"/>
      <point x="318.04" y="376.0"/>
      <point x="334.99981786923075" y="366.00446220384623"/>
      <point x="337.0" y="317.0" type="curve"/>
      <point x="337.0" y="310.84"/>
      <point x="337.0" y="300.5"/>
      <point x="337.0" y="295.0" type="curve"/>
      <point x="176.0" y="295.0" type="line"/>
      <point x="176.0" y="358.433734939759"/>
      <point x="192.0" y="376.0"/>
    </contour>
    <contour>
      <point x="452.0" y="27.0" type="curve"/>
      <point x="452.0" y="146.0" type="line"/>
      <point x="425.3813818169845" y="138.39468051913843"/>
      <point x="353.344262295082" y="125.0"/>
      <point x="275.0" y="125.0" type="curve"/>
      <point x="205.0" y="125.0"/>
      <point x="177.94672472102457" y="138.62489600875074"/>
      <point x="176.0" y="198.0" type="curve"/>
      <point x="468.0" y="198.0" type="line"/>
      <point x="472.0" y="231.0"/>
      <point x="473.0" y="250.0"/>
      <point x="473.0" y="293.0" type="curve" smooth="yes"/>
      <point x="473.0" y="444.0"/>
      <point x="422.0521327014218" y="504.0"/>
      <point x="258.0" y="504.0" type="curve"/>
      <point x="97.0" y="504.0"/>
      <point x="25.0" y="424.0"/>
      <point x="25.0" y="247.0" type="curve" smooth="yes"/>
      <point x="25.0" y="65.0"/>
      <point x="91.0" y="-10.0"/>
      <point x="251.0" y="-10.0" type="curve"/>
      <point x="344.21739130434787" y="-10.0"/>
      <point x="423.9545503062443" y="8.625395028229022"/>
    </contour>
    <contour>
      <point x="258.0" y="530.0" type="move" name="top"/>
    </contour>
    <contour>
      <point x="415" y="12" type="move" name="ogonekalt"/>
    </contour>
  </outline>
</glyph>
<glyph name="f" format="2">
  <advance width="362"/>
  <unicode hex="0066"/>
  <outline>
    <contour>
      <point x="368.0" y="665.0" type="line"/>
      <point x="353.0" y="668.0"/>
      <point x="313.0" y="675.0"/>
      <point x="272.0" y="675.0" type="curve"/>
      <point x="146.0" y="675.0"/>
      <point x="80.0" y="613.0"/>
      <point x="80.0" y="492.0" type="curve"/>
      <point x="80.0" y="0.0" type="line"/>
      <point x="230.0" y="0.0" type="line"/>
      <point x="230.0" y="508.0" type="line" smooth="yes"/>
      <point x="230.0" y="551.0"/>
      <point x="246.0" y="555.0"/>
      <point x="302.0" y="555.0" type="curve"/>
      <point x="326.0" y="555.0"/>
      <point x="355.0" y="552.0"/>
      <point x="368.0" y="550.0" type="curve"/>
    </contour>
    <contour>
      <point x="22.0" y="369.0" type="line"/>
      <point x="353.0" y="369.0" type="line"/>
      <point x="353.0" y="494.0" type="line"/>
      <point x="22.0" y="494.0" type="line"/>
    </contour>
  </outline>
</glyph>
<glyph name="g" format="1">
  <advance width="542.0"/>
  <unicode hex="0067"/>
  <outline>
    <contour>
      <point x="85.0" y="-137.0" type="line"/>
      <point x="118.0" y="-149.0"/>
      <point x="182.0" y="-162.0"/>
      <point x="266.0" y="-162.0" type="curve"/>
      <point x="439.0" y="-162.0"/>
      <point x="499.0" y="-95.0"/>
      <point x="499.0" y="95.0" type="curve" smooth="yes"/>
      <point x="499.0" y="485.0" type="line"/>
      <point x="349.0" y="485.0" type="line"/>
      <point x="349.0" y="48.0" type="line"/>
      <point x="347.0" y="-13.0"/>
      <point x="321.0" y="-27.0"/>
      <point x="254.0" y="-27.0" type="curve"/>
      <point x="179.0" y="-27.0"/>
      <point x="110.0" y="-17.0"/>
      <point x="85.0" y="-10.0" type="curve"/>
    </contour>
    <contour>
      <point x="387.0" y="200.0" type="line"/>
      <point x="352.0" y="188.0"/>
      <point x="295.0" y="173.0"/>
      <point x="252.0" y="173.0" type="curve" smooth="yes"/>
      <point x="185.0" y="173.0"/>
      <point x="176.0" y="185.0"/>
      <point x="176.0" y="269.0" type="curve" smooth="yes"/>
      <point x="176.0" y="361.0"/>
      <point x="183.0" y="369.0"/>
      <point x="273.0" y="369.0" type="curve" smooth="yes"/>
      <point x="328.0" y="369.0"/>
      <point x="370.0" y="361.0"/>
      <point x="387.0" y="352.0" type="curve"/>
      <point x="499.0" y="485.0" type="line"/>
      <point x="460.0" y="493.0"/>
      <point x="352.0" y="504.0"/>
      <point x="273.0" y="504.0" type="curve" smooth="yes"/>
      <point x="95.0" y="504.0"/>
      <point x="26.0" y="439.0"/>
      <point x="26.0" y="269.0" type="curve" smooth="yes"/>
      <point x="26.0" y="98.0"/>
      <point x="73.0" y="34.0"/>
      <point x="200.0" y="34.0" type="curve" smooth="yes"/>
      <point x="273.0" y="34.0"/>
      <point x="341.0" y="65.0"/>
      <point x="387.0" y="92.0" type="curve"/>
    </contour>
    <contour>
      <point x="279.0" y="530.0" type="move" name="top"/>
    </contour>
  </outline>
</glyph>
<glyph name="h" format="1">
  <advance width="553.0"/>
  <unicode hex="0068"/>
  <outline>
    <contour>
      <point x="43.0" y="0.0" type="line"/>
      <point x="193.0" y="0.0" type="line"/>
      <point x="193.0" y="665.0" type="line"/>
      <point x="43.0" y="665.0" type="line"/>
    </contour>
    <contour>
      <point x="165.0" y="343.0" type="line"/>
      <point x="179.24236077665955" y="351.1384918723769"/>
      <point x="239.67175572519085" y="369.0"/>
      <point x="299.0" y="369.0" type="curve" smooth="yes"/>
      <point x="345.2" y="369.0"/>
      <point x="362.0" y="354.0"/>
      <point x="362.0" y="322.0" type="curve" smooth="yes"/>
      <point x="362.0" y="0.0" type="line"/>
      <point x="512.0" y="0.0" type="line"/>
      <point x="512.0" y="342.0" type="line" smooth="yes"/>
      <point x="512.0" y="451.0"/>
      <point x="457.0121951219512" y="504.0"/>
      <point x="345.0" y="504.0" type="curve" smooth="yes"/>
      <point x="273.8135593220339" y="504.0"/>
      <point x="204.44806047752024" y="468.3101957152063"/>
      <point x="165.0" y="441.0" type="curve"/>
    </contour>
    <contour>
      <point x="118.0" y="682" type="move" name="top"/>
    </contour>
  </outline>
</glyph>
<glyph name="i" format="2">
  <advance width="236"/>
  <unicode hex="0069"/>
  <guideline x="0.0" y="844.0" angle="0.0" identifier="PIxSodtXLp"/>
  <guideline x="101.0" y="0.0" angle="90.0" name="mid" identifier="yIHXHNW4IW"/>
  <anchor x="193.0" y="0.0" name="ogonek"/>
  <outline>
    <contour>
      <point x="43.0" y="0.0" type="line"/>
      <point x="193.0" y="0.0" type="line"/>
      <point x="193.0" y="494.0" type="line"/>
      <point x="43.0" y="494.0" type="line"/>
    </contour>
    <contour>
      <point x="39.0" y="548.0" type="line"/>
      <point x="197.0" y="548.0" type="line"/>
      <point x="197.0" y="665.0" type="line"/>
      <point x="39.0" y="665.0" type="line"/>
    </contour>
  </outline>
</glyph>
<glyph name="j" format="2">
  <advance width="243"/>
  <unicode hex="006A"/>
  <outline>
    <contour>
      <point x="-45.0" y="-156.0" type="line"/>
      <point x="-30.0" y="-158.0"/>
      <point x="-17.0" y="-162.0"/>
      <point x="30.0" y="-162.0" type="curve"/>
      <point x="133.0" y="-162.0"/>
      <point x="200.0" y="-110.0"/>
      <point x="200.0" y="4.0" type="curve" smooth="yes"/>
      <point x="200.0" y="494.0" type="line"/>
      <point x="50.0" y="494.0" type="line"/>
      <point x="50.0" y="24.0" type="line" smooth="yes"/>
      <point x="50.0" y="-23.0"/>
      <point x="34.0" y="-33.0"/>
      <point x="-22.0" y="-33.0" type="curve" smooth="yes"/>
      <point x="-30.0" y="-33.0"/>
      <point x="-37.0" y="-33.0"/>
      <point x="-45.0" y="-32.0" type="curve"/>
    </contour>
    <contour>
      <point x="46.0" y="548.0" type="line"/>
      <point x="204.0" y="548.0" type="line"/>
      <point x="204.0" y="665.0" type="line"/>
      <point x="46.0" y="665.0" type="line"/>
    </contour>
  </outline>
</glyph>
<glyph name="k" format="2">
  <advance width="519"/>
  <unicode hex="006B"/>
  <anchor x="264.0" y="0" name="bottom"/>
  <outline>
    <contour>
      <point x="346.0" y="0.0" type="line"/>
      <point x="529.0" y="0.0" type="line"/>
      <point x="345.0" y="256.0" type="line"/>
      <point x="177.0" y="250.0" type="line"/>
    </contour>
    <contour>
      <point x="341.0" y="494.0" type="line"/>
      <point x="177.0" y="250.0" type="line"/>
      <point x="345.0" y="256.0" type="line"/>
      <point x="519.0" y="494.0" type="line"/>
    </contour>
    <contour>
      <point x="144.0" y="192.0" type="line"/>
      <point x="323.0" y="192.0" type="line"/>
      <point x="323.0" y="308.0" type="line"/>
      <point x="144.0" y="308.0" type="line"/>
    </contour>
    <component base="l"/>
  </outline>
</glyph>
<glyph name="l" format="2">
  <advance width="236"/>
  <unicode hex="006C"/>
  <guideline x="115" y="664" angle="90" name="mid" identifier="SSFLM3na79"/>
  <anchor x="118.0" y="682.0" name="top"/>
  <anchor x="118.0" y="0" name="bottom"/>
  <anchor x="243.0" y="665" name="caronalt"/>
  <outline>
    <contour>
      <point x="193.0" y="0.0" type="line"/>
      <point x="193.0" y="665.0" type="line"/>
      <point x="43.0" y="665.0" type="line"/>
      <point x="43.0" y="0.0" type="line"/>
    </contour>
  </outline>
</glyph>
<glyph name="m" format="2">
  <advance width="790"/>
  <unicode hex="006D"/>
  <outline>
    <contour>
      <point x="43.0" y="0.0" type="line"/>
      <point x="193.0" y="0.0" type="line"/>
      <point x="193.0" y="418.0" type="line"/>
      <point x="183.0" y="494.0" type="line"/>
      <point x="43.0" y="494.0" type="line"/>
    </contour>
    <contour>
      <point x="165.0" y="346.0" type="line"/>
      <point x="176.0" y="352.0"/>
      <point x="220.0" y="369.0"/>
      <point x="263.0" y="369.0" type="curve" smooth="yes"/>
      <point x="305.0" y="369.0"/>
      <point x="321.0" y="354.0"/>
      <point x="321.0" y="322.0" type="curve" smooth="yes"/>
      <point x="321.0" y="0.0" type="line"/>
      <point x="471.0" y="0.0" type="line"/>
      <point x="471.0" y="342.0" type="line" smooth="yes"/>
      <point x="471.0" y="451.0"/>
      <point x="424.0" y="504.0"/>
      <point x="327.0" y="504.0" type="curve" smooth="yes"/>
      <point x="276.0" y="504.0"/>
      <point x="227.0" y="480.0"/>
      <point x="191.0" y="457.0" type="curve"/>
      <point x="165.0" y="457.0" type="line"/>
    </contour>
    <contour>
      <point x="443.0" y="346.0" type="line"/>
      <point x="454.0" y="352.0"/>
      <point x="498.0" y="369.0"/>
      <point x="541.0" y="369.0" type="curve" smooth="yes"/>
      <point x="583.0" y="369.0"/>
      <point x="599.0" y="354.0"/>
      <point x="599.0" y="322.0" type="curve" smooth="yes"/>
      <point x="599.0" y="0.0" type="line"/>
      <point x="749.0" y="0.0" type="line"/>
      <point x="749.0" y="342.0" type="line" smooth="yes"/>
      <point x="749.0" y="451.0"/>
      <point x="702.0" y="504.0"/>
      <point x="605.0" y="504.0" type="curve" smooth="yes"/>
      <point x="543.0" y="504.0"/>
      <point x="483.0" y="478.0"/>
      <point x="447.0" y="454.0" type="curve"/>
      <point x="443.0" y="454.0" type="line"/>
    </contour>
  </outline>
</glyph>
<glyph name="n" format="2">
  <advance width="553"/>
  <unicode hex="006E"/>
  <guideline x="0.0" y="239.0" angle="0.0" identifier="g30mJRKTF7"/>
  <guideline x="272.0" y="0.0" angle="90.0" name="mid" identifier="CrMYLsYktu"/>
  <anchor x="278.0" y="530" name="top"/>
  <anchor x="277.0" y="0" name="bottom"/>
  <anchor x="-81.0" y="665" name="caronalt"/>
  <outline>
    <contour>
      <point x="43.0" y="0.0" type="line"/>
      <point x="193.0" y="0.0" type="line"/>
      <point x="193.0" y="442.0" type="line"/>
      <point x="179.0" y="442.0" type="line"/>
      <point x="173.0" y="494.0" type="line"/>
      <point x="43.0" y="494.0" type="line"/>
    </contour>
    <contour>
      <point x="165.0" y="326.0" type="line"/>
      <point x="182.18867599323227" y="345.2108731689067"/>
      <point x="229.56198347107437" y="369.0"/>
      <point x="289.0" y="369.0" type="curve" smooth="yes"/>
      <point x="334.8857142857143" y="369.0"/>
      <point x="362.0" y="354.0"/>
      <point x="362.0" y="322.0" type="curve" smooth="yes"/>
      <point x="362.0" y="0.0" type="line"/>
      <point x="512.0" y="0.0" type="line"/>
      <point x="512.0" y="342.0" type="line" smooth="yes"/>
      <point x="512.0" y="451.0"/>
      <point x="450.92215568862275" y="504.0"/>
      <point x="342.0" y="504.0" type="curve"/>
      <point x="267.7413793103448" y="504.0"/>
      <point x="215.0" y="484.0"/>
      <point x="165.0" y="423.0" type="curve"/>
    </contour>
  </outline>
</glyph>
<glyph name="o" format="2">
  <advance width="538"/>
  <unicode hex="006F"/>
  <guideline x="175.0" y="0.0" angle="90.0" identifier="0V11fFA58s"/>
  <guideline x="359.0" y="0.0" angle="90.0" identifier="YtGIwcTupX"/>
  <guideline x="503.0" y="0.0" angle="90.0" identifier="SPdd8ubrtH"/>
  <anchor x="269.0" y="530" name="top"/>
  <outline>
    <contour>
      <point x="269.0" y="-10.0" type="curve" smooth="yes"/>
      <point x="445.0" y="-10.0"/>
      <point x="513.0" y="61.0"/>
      <point x="513.0" y="247.0" type="curve" smooth="yes"/>
      <point x="513.0" y="433.0"/>
      <point x="445.0" y="504.0"/>
      <point x="269.0" y="504.0" type="curve" smooth="yes"/>
      <point x="93.0" y="504.0"/>
      <point x="25.0" y="433.0"/>
      <point x="25.0" y="247.0" type="curve" smooth="yes"/>
      <point x="25" y="61.0"/>
      <point x="93.0" y="-10.0"/>
    </contour>
    <contour>
      <point x="269.0" y="129.0" type="curve" smooth="yes"/>
      <point x="190.0" y="129.0"/>
      <point x="175.0" y="145.0"/>
      <point x="175.0" y="249.0" type="curve" smooth="yes"/>
      <point x="175.0" y="353.0"/>
      <point x="190.0" y="369.0"/>
      <point x="269.0" y="369.0" type="curve" smooth="yes"/>
      <point x="348.0" y="369.0"/>
      <point x="363.0" y="353.0"/>
      <point x="363.0" y="249.0" type="curve" smooth="yes"/>
      <point x="363.0" y="145.0"/>
      <point x="348.0" y="129.0"/>
    </contour>
  </outline>
</glyph>
<glyph name="p" format="1">
  <advance width="541.0"/>
  <unicode hex="0070"/>
  <outline>
    <contour>
      <point x="43.0" y="-152.0" type="line"/>
      <point x="193.0" y="-152.0" type="line"/>
      <point x="193.0" y="448.0" type="line"/>
      <point x="183.0" y="448.0" type="line"/>
      <point x="175.0" y="494.0" type="line"/>
      <point x="43.0" y="494.0" type="line"/>
    </contour>
    <contour>
      <point x="159.0" y="333.0" type="line"/>
      <point x="171.0" y="344.0"/>
      <point x="208.0" y="369.0"/>
      <point x="281.0" y="369.0" type="curve" smooth="yes"/>
      <point x="349.0" y="369.0"/>
      <point x="366.0" y="351.0"/>
      <point x="366.0" y="247.0" type="curve"/>
      <point x="366.0" y="145.0"/>
      <point x="351.0" y="129.0"/>
      <point x="272.0" y="129.0" type="curve" smooth="yes"/>
      <point x="209.0" y="129.0"/>
      <point x="188.0" y="143.0"/>
      <point x="169.0" y="155.0" type="curve"/>
      <point x="138.0" y="46.0" type="line"/>
      <point x="156.0" y="5.0"/>
      <point x="221.0" y="-10.0"/>
      <point x="293.0" y="-10.0" type="curve" smooth="yes"/>
      <point x="444.0" y="-10.0"/>
      <point x="516.0" y="61.0"/>
      <point x="516.0" y="247.0" type="curve"/>
      <point x="516.0" y="433.0"/>
      <point x="465.0" y="504.0"/>
      <point x="335.0" y="504.0" type="curve" smooth="yes"/>
      <point x="244.0" y="504.0"/>
      <point x="175.0" y="467.0"/>
      <point x="139.0" y="372.0" type="curve"/>
    </contour>
  </outline>
</glyph>
<glyph name="q" format="1">
  <advance width="541.0"/>
  <unicode hex="0071"/>
  <outline>
    <contour>
      <point x="498.0" y="-152.0" type="line"/>
      <point x="498.0" y="485.0" type="line"/>
      <point x="348.0" y="485.0" type="line"/>
      <point x="348.0" y="-152.0" type="line"/>
    </contour>
    <contour>
      <point x="386.0" y="156.0" type="line"/>
      <point x="351.0" y="144.0"/>
      <point x="294.0" y="129.0"/>
      <point x="251.0" y="129.0" type="curve" smooth="yes"/>
      <point x="184.0" y="129.0"/>
      <point x="175.0" y="143.0"/>
      <point x="175.0" y="247.0" type="curve" smooth="yes"/>
      <point x="175.0" y="360.0"/>
      <point x="182.0" y="369.0"/>
      <point x="272.0" y="369.0" type="curve" smooth="yes"/>
      <point x="327.0" y="369.0"/>
      <point x="369.0" y="361.0"/>
      <point x="386.0" y="352.0" type="curve"/>
      <point x="498.0" y="485.0" type="line"/>
      <point x="459.0" y="493.0"/>
      <point x="351.0" y="504.0"/>
      <point x="272.0" y="504.0" type="curve" smooth="yes"/>
      <point x="94.0" y="504.0"/>
      <point x="25.0" y="433.0"/>
      <point x="25.0" y="247.0" type="curve" smooth="yes"/>
      <point x="25.0" y="59.0"/>
      <point x="72.0" y="-10.0"/>
      <point x="199.0" y="-10.0" type="curve" smooth="yes"/>
      <point x="272.0" y="-10.0"/>
      <point x="340.0" y="21.0"/>
      <point x="386.0" y="48.0" type="curve"/>
    </contour>
  </outline>
</glyph>
<glyph name="r" format="2">
  <advance width="355"/>
  <unicode hex="0072"/>
  <guideline x="115" y="0" angle="90" name="mid" identifier="XkiyF21ey7"/>
  <anchor x="192.0" y="520" name="top"/>
  <anchor x="117.0" y="0" name="bottom"/>
  <outline>
    <contour>
      <point x="43.0" y="0.0" type="line"/>
      <point x="193.0" y="0.0" type="line"/>
      <point x="193.0" y="418.0" type="line"/>
      <point x="183.0" y="494.0" type="line"/>
      <point x="43.0" y="494.0" type="line"/>
    </contour>
    <contour>
      <point x="165.0" y="333.0" type="line"/>
      <point x="179.0" y="341.0"/>
      <point x="218.0" y="359.0"/>
      <point x="296.0" y="359.0" type="curve" smooth="yes"/>
      <point x="318.0" y="359.0"/>
      <point x="331.0" y="358.0"/>
      <point x="342.0" y="356.0" type="curve"/>
      <point x="342.0" y="501.0" type="line"/>
      <point x="339.0" y="501.0"/>
      <point x="336.0" y="501.0"/>
      <point x="334.0" y="501.0" type="curve"/>
      <point x="280.0" y="501.0"/>
      <point x="227.0" y="478.0"/>
      <point x="190.0" y="456.0" type="curve"/>
      <point x="165.0" y="456.0" type="line"/>
    </contour>
  </outline>
</glyph>
<glyph name="s" format="2">
  <advance width="440"/>
  <unicode hex="0073"/>
  <anchor x="220.0" y="530.0" name="top"/>
  <anchor x="216.0" y="0" name="bottom"/>
  <outline>
    <contour>
      <point x="173.0" y="341.0" type="curve"/>
      <point x="173.0" y="368.0"/>
      <point x="180.0" y="377.0"/>
      <point x="244.0" y="377.0" type="curve" smooth="yes"/>
      <point x="299.0" y="377.0"/>
      <point x="351.0" y="374.0"/>
      <point x="384.0" y="369.0" type="curve"/>
      <point x="384.0" y="494.0" type="line"/>
      <point x="356.460697739239" y="498.07989663122385"/>
      <point x="311.55102040816325" y="504.0"/>
      <point x="234.0" y="504.0" type="curve" smooth="yes"/>
      <point x="71.68115942028984" y="504.0"/>
      <point x="24.0" y="427.0"/>
      <point x="24.0" y="335.0" type="curve" smooth="yes"/>
      <point x="24.0" y="249.0"/>
      <point x="56.0" y="208.0"/>
      <point x="127.0" y="199.0" type="curve" smooth="yes"/>
      <point x="250.0" y="183.0" type="line" smooth="yes"/>
      <point x="260.98802514948034" y="181.57066339518954"/>
      <point x="268.0" y="173.58823529411765"/>
      <point x="268.0" y="163.0" type="curve" smooth="yes"/>
      <point x="268.0" y="131.0"/>
      <point x="254.0" y="122.0"/>
      <point x="198.0" y="122.0" type="curve" smooth="yes"/>
      <point x="124.0" y="122.0"/>
      <point x="62.0" y="131.0"/>
      <point x="38.0" y="137.0" type="curve"/>
      <point x="38.0" y="7.0" type="line"/>
      <point x="74.0" y="-2.0"/>
      <point x="133.5326086956522" y="-10.0"/>
      <point x="225.0" y="-10.0" type="curve" smooth="yes"/>
      <point x="336.7368421052632" y="-10.0"/>
      <point x="418.0" y="18.0"/>
      <point x="418.0" y="173.0" type="curve" smooth="yes"/>
      <point x="418.0" y="260.0"/>
      <point x="388.0" y="294.0"/>
      <point x="313.0" y="304.0" type="curve" smooth="yes"/>
      <point x="194.0" y="320.0" type="line" smooth="yes"/>
      <point x="184.02196108316076" y="321.34158506444896"/>
      <point x="173.0" y="325.8333333333333"/>
    </contour>
  </outline>
</glyph>
<glyph name="t" format="2">
  <advance width="381"/>
  <unicode hex="0074"/>
  <anchor x="231.0" y="0" name="bottom"/>
  <anchor x="275.0" y="725" name="caronalt"/>
  <outline>
    <contour>
      <point x="371.0" y="10.0" type="curve"/>
      <point x="371.0" y="138.0" type="line"/>
      <point x="356.0" y="135.0"/>
      <point x="321.0" y="130.0"/>
      <point x="297.0" y="130.0" type="curve" smooth="yes"/>
      <point x="240.0" y="130.0"/>
      <point x="225.0" y="140.0"/>
      <point x="225.0" y="177.0" type="curve" smooth="yes"/>
      <point x="225.0" y="609.0" type="line"/>
      <point x="99.0" y="609.0" type="line"/>
      <point x="75.0" y="464.0" type="line"/>
      <point x="75.0" y="171.0" type="line" smooth="yes"/>
      <point x="75.0" y="41.0"/>
      <point x="131.0" y="-10.0"/>
      <point x="262.0" y="-10.0" type="curve"/>
      <point x="303.0" y="-10.0"/>
      <point x="355.0" y="3.0"/>
    </contour>
    <contour>
      <point x="17.0" y="369.0" type="line"/>
      <point x="365.0" y="369.0" type="line"/>
      <point x="365.0" y="494.0" type="line"/>
      <point x="17.0" y="494.0" type="line"/>
    </contour>
  </outline>
</glyph>
<glyph name="u" format="2">
  <advance width="531"/>
  <unicode hex="0075"/>
  <guideline x="262.0" y="0.0" angle="90.0" name="mid" identifier="zdNbAfWl5I"/>
  <anchor x="271.0" y="520" name="top"/>
  <anchor x="488.0" y="0" name="ogonek"/>
  <outline>
    <contour>
      <point x="41.0" y="157.0" type="line" smooth="yes"/>
      <point x="41.0" y="45.0"/>
      <point x="96.0" y="-10.0"/>
      <point x="208.0" y="-10.0" type="curve" smooth="yes"/>
      <point x="265.0" y="-10.0"/>
      <point x="341.0" y="23.0"/>
      <point x="376.0" y="46.0" type="curve"/>
      <point x="376.0" y="156.0" type="line"/>
      <point x="363.0" y="148.0"/>
      <point x="308.0" y="130.0"/>
      <point x="254.0" y="130.0" type="curve" smooth="yes"/>
      <point x="208.0" y="130.0"/>
      <point x="191.0" y="145.0"/>
      <point x="191.0" y="177.0" type="curve" smooth="yes"/>
      <point x="191.0" y="494.0" type="line"/>
      <point x="41.0" y="494.0" type="line"/>
    </contour>
    <contour>
      <point x="488.0" y="494.0" type="line"/>
      <point x="338.0" y="494.0" type="line"/>
      <point x="338.0" y="27.0" type="line"/>
      <point x="344.0" y="27.0" type="line"/>
      <point x="348.0" y="0.0" type="line"/>
      <point x="488.0" y="0.0" type="line"/>
    </contour>
  </outline>
</glyph>
<glyph name="v" format="2">
  <advance width="514"/>
  <unicode hex="0076"/>
  <guideline x="252.0" y="0.0" angle="90.0" name="mid" identifier="9QILwlsb0o"/>
  <outline>
    <contour>
      <point x="513.0" y="494.0" type="line"/>
      <point x="350.0" y="494.0" type="line"/>
      <point x="258.0" y="136.0" type="line"/>
      <point x="165.0" y="494.0" type="line"/>
      <point x="0.0" y="494.0" type="line"/>
      <point x="171.0" y="0.0" type="line"/>
      <point x="343.0" y="0.0" type="line"/>
    </contour>
  </outline>
</glyph>
<glyph name="w" format="1">
  <advance width="744.0"/>
  <unicode hex="0077"/>
  <outline>
    <contour>
      <point x="741.0" y="494.0" type="line"/>
      <point x="577.0" y="494.0" type="line"/>
      <point x="519.0" y="136.0" type="line"/>
      <point x="441.0" y="494.0" type="line"/>
      <point x="302.0" y="494.0" type="line"/>
      <point x="225.0" y="136.0" type="line"/>
      <point x="167.0" y="494.0" type="line"/>
      <point x="2.0" y="494.0" type="line"/>
      <point x="135.0" y="0.0" type="line"/>
      <point x="307.0" y="0.0" type="line"/>
      <point x="365.0" y="282.0" type="line"/>
      <point x="433.0" y="0.0" type="line"/>
      <point x="609.0" y="0.0" type="line"/>
    </contour>
    <contour>
      <point x="369.0" y="520" type="move" name="top"/>
    </contour>
  </outline>
</glyph>
<glyph name="x" format="2">
  <advance width="473"/>
  <unicode hex="0078"/>
  <anchor x="245.0" y="520" name="top"/>
  <outline>
    <contour>
      <point x="475.0" y="0.0" type="line"/>
      <point x="324.0" y="257.0" type="line"/>
      <point x="473.0" y="494.0" type="line"/>
      <point x="318.0" y="494.0" type="line"/>
      <point x="245.0" y="355.0" type="line"/>
      <point x="175.0" y="494.0" type="line"/>
      <point x="0.0" y="494.0" type="line"/>
      <point x="150.0" y="257.0" type="line"/>
      <point x="-2.0" y="0.0" type="line"/>
      <point x="153.0" y="0.0" type="line"/>
      <point x="232.0" y="153.0" type="line"/>
      <point x="311.0" y="0.0" type="line"/>
    </contour>
  </outline>
</glyph>
<glyph name="y" format="2">
  <advance width="511"/>
  <unicode hex="0079"/>
  <anchor x="261.0" y="520" name="top"/>
  <outline>
    <contour>
      <point x="184.0" y="10.0" type="line"/>
      <point x="177.0" y="-19.0"/>
      <point x="163.0" y="-34.0"/>
      <point x="110.0" y="-34.0" type="curve" smooth="yes"/>
      <point x="88.0" y="-34.0"/>
      <point x="71.0" y="-34.0"/>
      <point x="57.0" y="-32.0" type="curve"/>
      <point x="57.0" y="-154.0" type="line"/>
      <point x="77.0" y="-158.0"/>
      <point x="109.0" y="-162.0"/>
      <point x="141.0" y="-162.0" type="curve" smooth="yes"/>
      <point x="243.0" y="-162.0"/>
      <point x="298.0" y="-116.0"/>
      <point x="335.0" y="-10.0" type="curve" smooth="yes"/>
      <point x="511.0" y="494.0" type="line"/>
      <point x="350.0" y="494.0" type="line"/>
      <point x="260.0" y="156.0" type="line"/>
      <point x="165.0" y="494.0" type="line"/>
      <point x="-2.0" y="494.0" type="line"/>
    </contour>
  </outline>
</glyph>
<glyph name="z" format="2">
  <advance width="425"/>
  <unicode hex="007A"/>
  <guideline x="219.0" y="0.0" angle="90.0" identifier="VmES2QgDvA"/>
  <anchor x="211.0" y="520" name="top"/>
  <outline>
    <contour>
      <point x="406.0" y="0.0" type="line"/>
      <point x="406.0" y="130.0" type="line"/>
      <point x="193.0" y="130.0" type="line"/>
      <point x="389.0" y="369.0" type="line"/>
      <point x="389.0" y="494.0" type="line"/>
      <point x="40.0" y="494.0" type="line"/>
      <point x="40.0" y="369.0" type="line"/>
      <point x="221.0" y="369.0" type="line"/>
      <point x="22.0" y="130.0" type="line"/>
      <point x="22.0" y="0.0" type="line"/>
    </contour>
  </outline>
</glyph>
<glyph name="braceleft" format="1">
  <advance width="294.0"/>
  <unicode hex="007B"/>
  <outline>
    <contour>
      <point x="116.0" y="317.0" type="line"/>
      <point x="158.0" y="325.0"/>
      <point x="206.0" y="371.0"/>
      <point x="206.0" y="473.0" type="curve" smooth="yes"/>
      <point x="206.0" y="571.0" type="line" smooth="yes"/>
      <point x="206.0" y="609.0"/>
      <point x="212.0" y="625.0"/>
      <point x="278.0" y="625.0" type="curve"/>
      <point x="278.0" y="718.0" type="line"/>
      <point x="163.0" y="718.0"/>
      <point x="103.0" y="673.0"/>
      <point x="103.0" y="575.0" type="curve" smooth="yes"/>
      <point x="103.0" y="473.0" type="line" smooth="yes"/>
      <point x="103.0" y="380.0"/>
      <point x="45.0" y="356.0"/>
      <point x="19.0" y="356.0" type="curve" smooth="yes"/>
      <point x="2.0" y="356.0" type="line"/>
      <point x="2.0" y="274.0" type="line"/>
      <point x="19.0" y="274.0" type="line" smooth="yes"/>
      <point x="45.0" y="274.0"/>
      <point x="103.0" y="250.0"/>
      <point x="103.0" y="157.0" type="curve" smooth="yes"/>
      <point x="103.0" y="51.0" type="line" smooth="yes"/>
      <point x="103.0" y="-47.0"/>
      <point x="163.0" y="-92.0"/>
      <point x="278.0" y="-92.0" type="curve"/>
      <point x="278.0" y="1.0" type="line"/>
      <point x="214.0" y="1.0"/>
      <point x="206.0" y="15.0"/>
      <point x="206.0" y="55.0" type="curve" smooth="yes"/>
      <point x="206.0" y="157.0" type="line" smooth="yes"/>
      <point x="206.0" y="258.0"/>
      <point x="159.0" y="305.0"/>
      <point x="117.0" y="313.0" type="curve"/>
    </contour>
  </outline>
</glyph>
<glyph name="asciitilde" format="1">
  <advance width="618.0"/>
  <unicode hex="007E"/>
  <outline>
    <contour>
      <point x="596.0" y="448.0" type="curve"/>
      <point x="445.0" y="448.0" type="line"/>
      <point x="445.0" y="410.0"/>
      <point x="438.0" y="357.0"/>
      <point x="403.0" y="357.0" type="curve"/>
      <point x="359.0" y="357.0"/>
      <point x="279.0" y="456.0"/>
      <point x="180.0" y="456.0" type="curve" smooth="yes"/>
      <point x="55.0" y="456.0"/>
      <point x="23.0" y="318.0"/>
      <point x="23.0" y="201.0" type="curve"/>
      <point x="173.0" y="201.0" type="line"/>
      <point x="173.0" y="239.0"/>
      <point x="180.0" y="295.0"/>
      <point x="217.0" y="295.0" type="curve"/>
      <point x="260.0" y="295.0"/>
      <point x="340.0" y="194.0"/>
      <point x="439.0" y="194.0" type="curve" smooth="yes"/>
      <point x="564.0" y="194.0"/>
      <point x="596.0" y="330.0"/>
    </contour>
  </outline>
</glyph>
<glyph name="cent" format="2">
  <advance width="431"/>
  <unicode hex="00A2"/>
  <outline>
    <contour>
      <point x="291.0" y="517.0" type="line"/>
      <point x="291.0" y="654.0" type="line"/>
      <point x="201.0" y="654.0" type="line"/>
      <point x="201.0" y="517.0" type="line"/>
    </contour>
    <contour>
      <point x="291.0" y="-20.0" type="line"/>
      <point x="291.0" y="127.0" type="line"/>
      <point x="201.0" y="127.0" type="line"/>
      <point x="201.0" y="-20.0" type="line"/>
    </contour>
    <component base="c" xOffset="-1" yOffset="70"/>
  </outline>
</glyph>
<glyph name="sterling" format="1">
  <advance width="479.0"/>
  <unicode hex="00A3"/>
  <outline>
    <contour>
      <point x="456.0" y="0.0" type="line"/>
      <point x="456.0" y="145.0" type="line"/>
      <point x="177.0" y="145.0" type="line"/>
      <point x="177.0" y="148.0" type="line"/>
      <point x="229.56249600239298" y="166.84315894425407"/>
      <point x="253.0" y="209.05"/>
      <point x="253.0" y="259.0" type="curve" smooth="yes"/>
      <point x="253.0" y="428.0" type="line" smooth="yes"/>
      <point x="253.0" y="478.0"/>
      <point x="275.0" y="501.0"/>
      <point x="323.0" y="501.0" type="curve" smooth="yes"/>
      <point x="356.0" y="501.0"/>
      <point x="400.0" y="495.0"/>
      <point x="440.0" y="487.0" type="curve"/>
      <point x="440.0" y="620.0" type="line"/>
      <point x="395.21167595236903" y="629.9529608994735"/>
      <point x="360.0" y="637.0"/>
      <point x="297.0" y="637.0" type="curve" smooth="yes"/>
      <point x="207.0" y="637.0"/>
      <point x="98.0" y="605.3149171270718"/>
      <point x="98.0" y="452.0" type="curve" smooth="yes"/>
      <point x="98.0" y="259.0" type="line" smooth="yes"/>
      <point x="98.0" y="224.72950819672133"/>
      <point x="74.23951141885519" y="170.57750634380844"/>
      <point x="30.0" y="146.0" type="curve"/>
      <point x="30.0" y="0.0" type="line"/>
    </contour>
    <contour>
      <point x="30.0" y="351.0" type="line"/>
      <point x="30.0" y="259.0" type="line"/>
      <point x="406.0" y="259.0" type="line"/>
      <point x="406.0" y="351.0" type="line"/>
    </contour>
  </outline>
</glyph>
<glyph name="currency" format="2">
  <advance width="603"/>
  <unicode hex="00A4"/>
  <guideline x="129" y="442" angle="44.620563298581025" identifier="RBvVrO2Izj"/>
  <outline>
    <contour>
      <point x="578.0" y="527.0" type="line"/>
      <point x="512.0" y="594.0" type="line"/>
      <point x="421.0" y="503.0" type="line"/>
      <point x="488.0" y="437.0" type="line"/>
    </contour>
    <contour>
      <point x="514.0" y="38.0" type="line"/>
      <point x="580.0" y="104.0" type="line"/>
      <point x="488.0" y="196.0" type="line"/>
      <point x="422.0" y="130.0" type="line"/>
    </contour>
    <contour>
      <point x="23.0" y="104.0" type="line"/>
      <point x="89.0" y="38.0" type="line"/>
      <point x="180.0" y="129.0" type="line"/>
      <point x="114.0" y="196.0" type="line"/>
    </contour>
    <contour>
      <point x="90.0" y="594.0" type="line"/>
      <point x="24.0" y="528.0" type="line"/>
      <point x="115.0" y="438.0" type="line"/>
      <point x="180.0" y="503.0" type="line"/>
    </contour>
    <contour>
      <point x="300.0" y="575.0" type="curve" smooth="yes"/>
      <point x="154.0" y="576.0"/>
      <point x="40.0" y="463.0"/>
      <point x="41.0" y="316.0" type="curve" smooth="yes"/>
      <point x="40.0" y="168.0"/>
      <point x="154.0" y="55.0"/>
      <point x="302.0" y="56.0" type="curve" smooth="yes"/>
      <point x="449.0" y="55.0"/>
      <point x="563.0" y="168.0"/>
      <point x="563.0" y="315.0" type="curve" smooth="yes"/>
      <point x="564.0" y="463.0"/>
      <point x="448.0" y="576.0"/>
    </contour>
    <contour>
      <point x="178.0" y="318.0" type="curve" smooth="yes"/>
      <point x="179.0" y="394.0"/>
      <point x="227.0" y="444.0"/>
      <point x="303.0" y="445.0" type="curve" smooth="yes"/>
      <point x="378.0" y="442.0"/>
      <point x="426.0" y="392.0"/>
      <point x="426.0" y="319.0" type="curve" smooth="yes"/>
      <point x="426.0" y="241.0"/>
      <point x="378.0" y="191.0"/>
      <point x="302.0" y="192.0" type="curve" smooth="yes"/>
      <point x="227.0" y="191.0"/>
      <point x="179.0" y="241.0"/>
    </contour>
  </outline>
</glyph>
<glyph name="yen" format="2">
  <advance width="562"/>
  <unicode hex="00A5"/>
  <guideline x="42" y="337" angle="90.0" identifier="eb4MBWlGUP"/>
  <outline>
    <contour>
      <point x="70.0" y="301.0" type="line"/>
      <point x="70.0" y="221.0" type="line"/>
      <point x="497.0" y="221.0" type="line"/>
      <point x="497.0" y="301.0" type="line"/>
    </contour>
    <contour>
      <point x="70.0" y="181.0" type="line"/>
      <point x="70.0" y="101.0" type="line"/>
      <point x="497.0" y="101.0" type="line"/>
      <point x="497.0" y="181.0" type="line"/>
    </contour>
    <contour>
      <point x="550.0" y="627.0" type="line"/>
      <point x="390.0" y="627.0" type="line"/>
      <point x="284.0" y="365.0" type="line"/>
      <point x="188.0" y="627.0" type="line"/>
      <point x="11.0" y="627.0" type="line"/>
      <point x="206.0" y="228.0" type="line"/>
      <point x="206.0" y="0.0" type="line"/>
      <point x="361.0" y="0.0" type="line"/>
      <point x="361.0" y="228.0" type="line"/>
    </contour>
  </outline>
</glyph>
<glyph name="brokenbar" format="1">
  <advance width="197.0"/>
  <unicode hex="00A6"/>
  <outline>
    <contour>
      <point x="150.0" y="380.0" type="line"/>
      <point x="150.0" y="707.0" type="line"/>
      <point x="47.0" y="707.0" type="line"/>
      <point x="47.0" y="380.0" type="line"/>
    </contour>
    <contour>
      <point x="150.0" y="-80.0" type="line"/>
      <point x="150.0" y="247.0" type="line"/>
      <point x="47.0" y="247.0" type="line"/>
      <point x="47.0" y="-80.0" type="line"/>
    </contour>
  </outline>
</glyph>
<glyph name="section" format="2">
  <advance width="459"/>
  <unicode hex="00A7"/>
  <outline>
    <contour>
      <point x="108.0" y="454.0" type="line"/>
      <point x="38.0" y="417.0"/>
      <point x="20.0" y="354.0"/>
      <point x="20.0" y="310.0" type="curve" smooth="yes"/>
      <point x="20.0" y="261.0"/>
      <point x="50.0" y="225.0"/>
      <point x="101.0" y="205.0" type="curve" smooth="yes"/>
      <point x="212.0" y="161.0" type="line" smooth="yes"/>
      <point x="239.0" y="150.0"/>
      <point x="256.0" y="143.0"/>
      <point x="256.0" y="126.0" type="curve" smooth="yes"/>
      <point x="256.0" y="109.0"/>
      <point x="236.0" y="101.0"/>
      <point x="192.0" y="101.0" type="curve"/>
      <point x="146.0" y="101.0"/>
      <point x="111.0" y="109.0"/>
      <point x="74.0" y="120.0" type="curve"/>
      <point x="74.0" y="8.0" type="line"/>
      <point x="107.74185440744927" y="-1.9240748257203713"/>
      <point x="151.0" y="-10.0"/>
      <point x="234.0" y="-10.0" type="curve"/>
      <point x="346.0" y="-10.0"/>
      <point x="406.0" y="45.0"/>
      <point x="406.0" y="126.0" type="curve" smooth="yes"/>
      <point x="406.0" y="187.0"/>
      <point x="378.0" y="216.0"/>
      <point x="317.0" y="241.0" type="curve" smooth="yes"/>
      <point x="196.0" y="291.0" type="line" smooth="yes"/>
      <point x="167.0" y="303.0"/>
      <point x="158.0" y="312.0"/>
      <point x="158.0" y="338.0" type="curve" smooth="yes"/>
      <point x="158.0" y="354.0"/>
      <point x="168.0" y="385.0"/>
      <point x="191.0" y="401.0" type="curve"/>
    </contour>
    <contour>
      <point x="267.0" y="526.0" type="curve" smooth="yes"/>
      <point x="313.0" y="526.0"/>
      <point x="348.0" y="518.0"/>
      <point x="385.0" y="507.0" type="curve"/>
      <point x="385.0" y="619.0" type="line"/>
      <point x="351.21598570940563" y="628.9364747913512"/>
      <point x="308.0" y="637.0"/>
      <point x="225.0" y="637.0" type="curve" smooth="yes"/>
      <point x="113.0" y="637.0"/>
      <point x="53.0" y="582.0"/>
      <point x="53.0" y="501.0" type="curve" smooth="yes"/>
      <point x="53.0" y="440.0"/>
      <point x="81.0" y="411.0"/>
      <point x="142.0" y="386.0" type="curve" smooth="yes"/>
      <point x="263.0" y="336.0" type="line" smooth="yes"/>
      <point x="292.0" y="324.0"/>
      <point x="301.0" y="315.0"/>
      <point x="301.0" y="289.0" type="curve" smooth="yes"/>
      <point x="301.0" y="273.0"/>
      <point x="291.0" y="242.0"/>
      <point x="268.0" y="226.0" type="curve"/>
      <point x="351.0" y="173.0" type="line"/>
      <point x="421.0" y="210.0"/>
      <point x="439.0" y="273.0"/>
      <point x="439.0" y="317.0" type="curve" smooth="yes"/>
      <point x="439.0" y="366.0"/>
      <point x="407.0" y="401.0"/>
      <point x="358.0" y="421.0" type="curve" smooth="yes"/>
      <point x="247.0" y="466.0" type="line" smooth="yes"/>
      <point x="220.0" y="477.0"/>
      <point x="203.0" y="484.0"/>
      <point x="203.0" y="501.0" type="curve" smooth="yes"/>
      <point x="203.0" y="518.0"/>
      <point x="223.0" y="526.0"/>
    </contour>
  </outline>
</glyph>
<glyph name="dieresis" format="2">
  <advance width="409"/>
  <unicode hex="00A8"/>
  <guideline x="208.0" y="0.0" angle="90.0" name="mid" identifier="C8uzWxS36t"/>
  <anchor x="205" y="530" name="_top"/>
  <outline>
    <contour>
      <point x="359.0" y="551.0" type="line"/>
      <point x="359.0" y="664.0" type="line"/>
      <point x="235.0" y="664.0" type="line"/>
      <point x="235.0" y="551.0" type="line"/>
    </contour>
    <contour>
      <point x="174.0" y="551.0" type="line"/>
      <point x="174.0" y="664.0" type="line"/>
      <point x="50.0" y="664.0" type="line"/>
      <point x="50.0" y="551.0" type="line"/>
    </contour>
  </outline>
</glyph>
<glyph name="ordfeminine" format="2">
  <advance width="330"/>
  <unicode hex="00AA"/>
  <guideline x="219.0" y="0.0" angle="90.0" identifier="hExJnwW0WY"/>
  <guideline x="0.0" y="316.0" angle="0.0" identifier="c6uKCXs5Qp"/>
  <guideline x="13" y="477" angle="90.0" identifier="jnoMeTeDXn"/>
  <outline>
    <contour>
      <point x="32.0" y="231.0" type="line"/>
      <point x="295.0" y="231.0" type="line"/>
      <point x="295.0" y="314.0" type="line"/>
      <point x="32.0" y="314.0" type="line"/>
    </contour>
    <contour>
      <point x="32.0" y="438.0" type="curve"/>
      <point x="32.0" y="378.0"/>
      <point x="59.0" y="348.0"/>
      <point x="119.0" y="348.0" type="curve"/>
      <point x="151.0" y="348.0"/>
      <point x="177.0" y="361.0"/>
      <point x="207.0" y="384.0" type="curve"/>
      <point x="207.0" y="441.0" type="line"/>
      <point x="204.0" y="438.0"/>
      <point x="179.0" y="425.0"/>
      <point x="149.0" y="425.0" type="curve"/>
      <point x="130.0" y="425.0"/>
      <point x="122.0" y="430.0"/>
      <point x="122.0" y="443.0" type="curve" smooth="yes"/>
      <point x="122.0" y="458.0"/>
      <point x="129.0" y="462.0"/>
      <point x="156.0" y="462.0" type="curve"/>
      <point x="183.0" y="462.0"/>
      <point x="199.0" y="459.0"/>
      <point x="207.0" y="456.0" type="curve"/>
      <point x="207.0" y="515.0" type="line"/>
      <point x="199.0" y="519.0"/>
      <point x="166.0" y="523.0"/>
      <point x="144.0" y="523.0" type="curve"/>
      <point x="61.0" y="523.0"/>
      <point x="32.0" y="498.0"/>
    </contour>
    <contour>
      <point x="201.0" y="354.0" type="line"/>
      <point x="291.0" y="354.0" type="line"/>
      <point x="291.0" y="547.0" type="line" smooth="yes"/>
      <point x="291.0" y="607.0"/>
      <point x="250.0" y="636.0"/>
      <point x="179.0" y="636.0" type="curve"/>
      <point x="126.0" y="636.0"/>
      <point x="93.0" y="633.0"/>
      <point x="59.0" y="626.0" type="curve"/>
      <point x="59.0" y="548.0" type="line"/>
      <point x="75.0" y="550.0"/>
      <point x="101.0" y="553.0"/>
      <point x="150.0" y="553.0" type="curve" smooth="yes"/>
      <point x="181.0" y="553.0"/>
      <point x="195.0" y="548.0"/>
      <point x="195.0" y="531.0" type="curve"/>
      <point x="195.0" y="376.0" type="line"/>
      <point x="198.0" y="376.0" type="line"/>
    </contour>
  </outline>
</glyph>
<glyph name="macron" format="1">
  <advance width="353.0"/>
  <unicode hex="00AF"/>
  <outline>
    <contour>
      <point x="303.0" y="556.0" type="line"/>
      <point x="303.0" y="654.0" type="line"/>
      <point x="50.0" y="654.0" type="line"/>
      <point x="50.0" y="556.0" type="line"/>
    </contour>
    <contour>
      <point x="177" y="530" type="move" name="_top"/>
    </contour>
  </outline>
</glyph>
<glyph name="degree" format="1">
  <advance width="308.0"/>
  <unicode hex="00B0"/>
  <outline>
    <contour>
      <point x="154.0" y="366.0" type="curve" smooth="yes"/>
      <point x="236.0" y="366.0"/>
      <point x="291.0" y="417.0"/>
      <point x="291.0" y="499.0" type="curve" smooth="yes"/>
      <point x="291.0" y="581.0"/>
      <point x="236.0" y="634.0"/>
      <point x="154.0" y="634.0" type="curve" smooth="yes"/>
      <point x="72.0" y="634.0"/>
      <point x="17.0" y="581.0"/>
      <point x="17.0" y="499.0" type="curve" smooth="yes"/>
      <point x="17.0" y="417.0"/>
      <point x="72.0" y="366.0"/>
    </contour>
    <contour>
      <point x="154.0" y="457.0" type="curve" smooth="yes"/>
      <point x="127.0" y="457.0"/>
      <point x="112.0" y="473.0"/>
      <point x="112.0" y="501.0" type="curve" smooth="yes"/>
      <point x="112.0" y="528.0"/>
      <point x="127.0" y="543.0"/>
      <point x="154.0" y="543.0" type="curve" smooth="yes"/>
      <point x="181.0" y="543.0"/>
      <point x="197.0" y="528.0"/>
      <point x="197.0" y="501.0" type="curve" smooth="yes"/>
      <point x="197.0" y="473.0"/>
      <point x="181.0" y="457.0"/>
    </contour>
  </outline>
</glyph>
<glyph name="plusminus" format="1">
  <advance width="500.0"/>
  <unicode hex="00B1"/>
  <outline>
    <contour>
      <point x="463.0" y="341.0" type="line"/>
      <point x="463.0" y="481.0" type="line"/>
      <point x="37.0" y="481.0" type="line"/>
      <point x="37.0" y="341.0" type="line"/>
    </contour>
    <contour>
      <point x="323.0" y="601.0" type="line"/>
      <point x="178.0" y="601.0" type="line"/>
      <point x="178.0" y="219.0" type="line"/>
      <point x="323.0" y="219.0" type="line"/>
    </contour>
    <component base="minus" yOffset="-222.0"/>
  </outline>
</glyph>
<glyph name="uni00B2" format="2">
  <advance width="294"/>
  <unicode hex="00B2"/>
  <outline>
    <contour>
      <point x="270.0" y="270.0" type="line"/>
      <point x="270.0" y="373.0" type="line"/>
      <point x="149.0" y="373.0" type="line"/>
      <point x="234.0" y="448.0" type="line" smooth="yes"/>
      <point x="262.0" y="473.0"/>
      <point x="272.0" y="497.0"/>
      <point x="272.0" y="537.0" type="curve"/>
      <point x="272.0" y="591.0"/>
      <point x="237.0" y="633.0"/>
      <point x="162.0" y="633.0" type="curve"/>
      <point x="111.0" y="633.0"/>
      <point x="63.0" y="626.0"/>
      <point x="35.0" y="619.0" type="curve"/>
      <point x="35.0" y="523.0" type="line"/>
      <point x="30.0" y="521.0"/>
      <point x="100.0" y="533.0"/>
      <point x="141.0" y="533.0" type="curve" smooth="yes"/>
      <point x="160.0" y="533.0"/>
      <point x="162.0" y="523.0"/>
      <point x="162.0" y="520.0" type="curve"/>
      <point x="162.0" y="512.0"/>
      <point x="158.0" y="504.0"/>
      <point x="145.0" y="492.0" type="curve" smooth="yes"/>
      <point x="18.0" y="373.0" type="line"/>
      <point x="18.0" y="270.0" type="line"/>
    </contour>
  </outline>
</glyph>
<glyph name="uni00B3" format="2">
  <advance width="282"/>
  <unicode hex="00B3"/>
  <outline>
    <contour>
      <point x="193.0" y="458.0" type="line"/>
      <point x="235.0" y="469.0"/>
      <point x="250.0" y="500.0"/>
      <point x="250.0" y="539.0" type="curve" smooth="yes"/>
      <point x="250.0" y="601.0"/>
      <point x="213.0" y="633.0"/>
      <point x="146.0" y="633.0" type="curve" smooth="yes"/>
      <point x="104.0" y="633.0"/>
      <point x="52.0" y="626.0"/>
      <point x="27.0" y="617.0" type="curve"/>
      <point x="27.0" y="531.0" type="line"/>
      <point x="23.0" y="529.0"/>
      <point x="84.0" y="539.0"/>
      <point x="112.0" y="539.0" type="curve"/>
      <point x="143.0" y="539.0"/>
      <point x="149.0" y="531.0"/>
      <point x="149.0" y="518.0" type="curve" smooth="yes"/>
      <point x="149.0" y="505.0"/>
      <point x="139.0" y="497.0"/>
      <point x="109.0" y="497.0" type="curve" smooth="yes"/>
      <point x="58.0" y="497.0" type="line"/>
      <point x="58.0" y="408.0" type="line"/>
      <point x="125.0" y="408.0" type="line" smooth="yes"/>
      <point x="146.0" y="408.0"/>
      <point x="162.0" y="403.0"/>
      <point x="162.0" y="385.0" type="curve" smooth="yes"/>
      <point x="162.0" y="365.0"/>
      <point x="152.0" y="361.0"/>
      <point x="111.0" y="361.0" type="curve" smooth="yes"/>
      <point x="77.0" y="361.0"/>
      <point x="51.0" y="363.0"/>
      <point x="20.0" y="368.0" type="curve"/>
      <point x="20.0" y="276.0" type="line"/>
      <point x="41.0" y="268.0"/>
      <point x="87.0" y="264.0"/>
      <point x="132.0" y="264.0" type="curve"/>
      <point x="211.0" y="264.0"/>
      <point x="264.0" y="298.0"/>
      <point x="264.0" y="374.0" type="curve"/>
      <point x="264.0" y="424.0"/>
      <point x="242.0" y="454.0"/>
      <point x="194.0" y="458.0" type="curve"/>
    </contour>
  </outline>
</glyph>
<glyph name="acute" format="1">
  <advance width="362.0"/>
  <unicode hex="00B4"/>
  <outline>
    <contour>
      <point x="312.0" y="682.0" type="line"/>
      <point x="155.0" y="682.0" type="line"/>
      <point x="50.0" y="551.0" type="line"/>
      <point x="166.0" y="551.0" type="line"/>
    </contour>
    <contour>
      <point x="143" y="530" type="move" name="_top"/>
    </contour>
  </outline>
</glyph>
<glyph name="paragraph" format="2">
  <advance width="484"/>
  <unicode hex="00B6"/>
  <outline>
    <contour>
      <point x="437.0" y="24.0" type="curve" smooth="yes"/>
      <point x="437.0" y="627.0" type="line"/>
      <point x="414.0" y="630.0"/>
      <point x="353.0" y="639.0"/>
      <point x="268.0" y="639.0" type="curve" smooth="yes"/>
      <point x="82.0" y="639.0"/>
      <point x="16.0" y="572.0"/>
      <point x="16.0" y="382.0" type="curve" smooth="yes"/>
      <point x="16.0" y="196.0"/>
      <point x="67.0" y="130.0"/>
      <point x="211.0" y="130.0" type="curve" smooth="yes"/>
      <point x="238.0" y="130.0"/>
      <point x="264.0" y="132.0"/>
      <point x="287.0" y="135.0" type="curve"/>
      <point x="287.0" y="24.0" type="line" smooth="yes"/>
      <point x="287.0" y="-23.0"/>
      <point x="271.0" y="-33.0"/>
      <point x="225.0" y="-33.0" type="curve"/>
      <point x="207.0" y="-33.0"/>
      <point x="200.0" y="-32.0"/>
      <point x="192.0" y="-31.0" type="curve"/>
      <point x="192.0" y="-156.0" type="line"/>
      <point x="208.0" y="-158.0"/>
      <point x="221.0" y="-162.0"/>
      <point x="270.0" y="-162.0" type="curve"/>
      <point x="361.0" y="-162.0"/>
      <point x="437.0" y="-96.0"/>
    </contour>
    <contour>
      <point x="166.0" y="382.0" type="curve" smooth="yes"/>
      <point x="166.0" y="492.0"/>
      <point x="180.0" y="504.0"/>
      <point x="257.0" y="504.0" type="curve"/>
      <point x="272.0" y="504.0"/>
      <point x="280.0" y="503.0"/>
      <point x="287.0" y="502.0" type="curve"/>
      <point x="287.0" y="268.0" type="line"/>
      <point x="273.0" y="266.0"/>
      <point x="257.0" y="265.0"/>
      <point x="242.0" y="265.0" type="curve" smooth="yes"/>
      <point x="177.0" y="265.0"/>
      <point x="166.0" y="281.0"/>
    </contour>
  </outline>
</glyph>
<glyph name="cedilla" format="2">
  <advance width="330"/>
  <unicode hex="00B8"/>
  <anchor x="151" y="0" name="_bottom"/>
  <outline>
    <contour>
      <point x="280.0" y="-109.0" type="curve"/>
      <point x="280.0" y="-59.22950819672131"/>
      <point x="236.0" y="-40.0"/>
      <point x="188.0" y="-40.0" type="curve"/>
      <point x="196.0" y="10.0" type="line"/>
      <point x="100.0" y="19.0" type="line"/>
      <point x="80.0" y="-84.0" type="line"/>
      <point x="104.0" y="-83.0"/>
      <point x="113.0" y="-83.0"/>
      <point x="129.0" y="-83.0" type="curve"/>
      <point x="150.0" y="-83.0"/>
      <point x="167.0" y="-87.0"/>
      <point x="167.0" y="-103.0" type="curve"/>
      <point x="167.0" y="-119.0"/>
      <point x="161.0" y="-126.0"/>
      <point x="137.0" y="-126.0" type="curve" smooth="yes"/>
      <point x="108.25333333333333" y="-126.0"/>
      <point x="65.32494061757075" y="-117.77498020585692"/>
      <point x="60.0" y="-116.0" type="curve"/>
      <point x="60.0" y="-184.0" type="line"/>
      <point x="62.73606589152549" y="-184.91202196384182"/>
      <point x="109.22123893805309" y="-195.0"/>
      <point x="163.0" y="-195.0" type="curve" smooth="yes"/>
      <point x="224.0" y="-195.0"/>
      <point x="280.0" y="-181.27659574468086"/>
    </contour>
  </outline>
</glyph>
<glyph name="uni00B9" format="2">
  <advance width="244"/>
  <unicode hex="00B9"/>
  <guideline x="485" y="163" angle="90" identifier="4PNLprsLts"/>
  <guideline x="3676" y="-115" angle="90" identifier="dOWx8EQA3X"/>
  <guideline x="1442" y="222" angle="0" identifier="BWHsZ3BLEG"/>
  <guideline x="1551" y="333" angle="90" identifier="ggweEsUHRN"/>
  <guideline x="987" y="689" angle="90" identifier="DLpb831rSg"/>
  <guideline x="2175" y="-145" angle="90" identifier="CBjyHVpFZT"/>
  <guideline x="1093" y="-666" angle="0" identifier="zEJm79B9bD"/>
  <guideline x="221" y="1020" angle="0" identifier="I2vNgb2ZAC"/>
  <outline>
    <contour>
      <point x="98.0" y="270.0" type="line"/>
      <point x="209.0" y="270.0" type="line"/>
      <point x="209.0" y="633.0" type="line"/>
      <point x="98.0" y="598.0" type="line"/>
    </contour>
    <contour>
      <point x="9.0" y="518.0" type="line"/>
      <point x="97.0" y="528.0" type="line"/>
      <point x="209.0" y="633.0" type="line"/>
      <point x="9.0" y="610.0" type="line"/>
    </contour>
  </outline>
</glyph>
<glyph name="ordmasculine" format="2">
  <advance width="352"/>
  <unicode hex="00BA"/>
  <guideline x="175.0" y="0.0" angle="90.0" identifier="tDr4ht7C6S"/>
  <guideline x="359.0" y="0.0" angle="90.0" identifier="TDNhHAxiKC"/>
  <guideline x="503.0" y="0.0" angle="90.0" identifier="tJembWHtLn"/>
  <guideline x="160" y="553" angle="90.0" identifier="Pf8IzNdJjf"/>
  <guideline x="20" y="460" angle="90.0" identifier="UcSuTIl2gN"/>
  <guideline x="299" y="480" angle="90.0" identifier="9gKriAJwtl"/>
  <outline>
    <contour>
      <point x="36.0" y="231.0" type="line"/>
      <point x="315.0" y="231.0" type="line"/>
      <point x="315.0" y="314.0" type="line"/>
      <point x="36.0" y="314.0" type="line"/>
    </contour>
    <contour>
      <point x="177.0" y="348.0" type="curve"/>
      <point x="276.0" y="348.0"/>
      <point x="322.0" y="394.0"/>
      <point x="322.0" y="492.0" type="curve"/>
      <point x="322.0" y="590.0"/>
      <point x="276.0" y="636.0"/>
      <point x="177.0" y="636.0" type="curve"/>
      <point x="77.0" y="636.0"/>
      <point x="31.0" y="590.0"/>
      <point x="31.0" y="492.0" type="curve"/>
      <point x="31.0" y="394.0"/>
      <point x="77.0" y="348.0"/>
    </contour>
    <contour>
      <point x="177.0" y="437.0" type="curve"/>
      <point x="140.0" y="437.0"/>
      <point x="127.0" y="452.0"/>
      <point x="127.0" y="493.0" type="curve"/>
      <point x="127.0" y="535.0"/>
      <point x="140.0" y="550.0"/>
      <point x="177.0" y="550.0" type="curve"/>
      <point x="213.0" y="550.0"/>
      <point x="226.0" y="535.0"/>
      <point x="226.0" y="493.0" type="curve"/>
      <point x="226.0" y="452.0"/>
      <point x="213.0" y="437.0"/>
    </contour>
  </outline>
</glyph>
<glyph name="AE" format="2">
  <advance width="739"/>
  <unicode hex="00C6"/>
  <anchor x="428.0" y="645.0" name="top"/>
  <outline>
    <contour>
      <point x="-3.0" y="0.0" type="line"/>
      <point x="160.0" y="0.0" type="line"/>
      <point x="257.0" y="311.0" type="line" smooth="yes"/>
      <point x="275.0" y="369.0"/>
      <point x="314.0" y="526.0"/>
      <point x="335.0" y="627.0" type="curve"/>
      <point x="219.0" y="627.0" type="line"/>
    </contour>
    <contour>
      <point x="585.0" y="0.0" type="line"/>
      <point x="384.0" y="627.0" type="line"/>
      <point x="256.0" y="627.0" type="line"/>
      <point x="278.0" y="522.0"/>
      <point x="318.0" y="370.0"/>
      <point x="336.0" y="311.0" type="curve" smooth="yes"/>
      <point x="434.0" y="0.0" type="line"/>
    </contour>
    <contour>
      <point x="138.0" y="105.0" type="line"/>
      <point x="443.0" y="105.0" type="line"/>
      <point x="443.0" y="228.0" type="line"/>
      <point x="138.0" y="228.0" type="line"/>
    </contour>
    <contour>
      <point x="360.0" y="487.0" type="line"/>
      <point x="705.0" y="487.0" type="line"/>
      <point x="705.0" y="627.0" type="line"/>
      <point x="360.0" y="627.0" type="line"/>
    </contour>
    <contour>
      <point x="421.0" y="253.0" type="line"/>
      <point x="668.0" y="253.0" type="line"/>
      <point x="668.0" y="383.0" type="line"/>
      <point x="421.0" y="383.0" type="line"/>
    </contour>
    <contour>
      <point x="512.0" y="0.0" type="line"/>
      <point x="714.0" y="0.0" type="line"/>
      <point x="714.0" y="145.0" type="line"/>
      <point x="512.0" y="145.0" type="line"/>
    </contour>
  </outline>
</glyph>
<glyph name="Eth" format="2">
  <advance width="644"/>
  <unicode hex="00D0"/>
  <outline>
    <contour>
      <point x="365.0" y="269.0" type="line"/>
      <point x="365.0" y="372.0" type="line"/>
      <point x="20.0" y="372.0" type="line"/>
      <point x="20.0" y="269.0" type="line"/>
    </contour>
    <component base="D" xOffset="42"/>
  </outline>
</glyph>
<glyph name="multiply" format="1">
  <advance width="500.0"/>
  <unicode hex="00D7"/>
  <outline>
    <contour>
      <point x="469.0" y="443.0" type="line"/>
      <point x="370.0" y="542.0" type="line"/>
      <point x="29.0" y="201.0" type="line"/>
      <point x="128.0" y="102.0" type="line"/>
    </contour>
    <contour>
      <point x="132.0" y="542.0" type="line"/>
      <point x="30.0" y="439.0" type="line"/>
      <point x="368.0" y="101.0" type="line"/>
      <point x="471.0" y="203.0" type="line"/>
    </contour>
  </outline>
</glyph>
<glyph name="Oslash" format="2">
  <advance width="644"/>
  <unicode hex="00D8"/>
  <anchor x="322.0" y="655" name="top"/>
  <outline>
    <contour>
      <point x="39.0" y="-14.0" type="line"/>
      <point x="122.0" y="-69.0" type="line"/>
      <point x="227.0" y="87.0" type="line"/>
      <point x="146.0" y="145.0" type="line"/>
    </contour>
    <contour>
      <point x="496.0" y="489.0" type="line"/>
      <point x="603.0" y="649.0" type="line"/>
      <point x="519.0" y="703.0" type="line"/>
      <point x="424.0" y="560.0" type="line"/>
    </contour>
    <contour>
      <point x="227.0" y="87.0" type="line"/>
      <point x="496.0" y="489.0" type="line"/>
      <point x="424.0" y="560.0" type="line"/>
      <point x="146.0" y="145.0" type="line"/>
    </contour>
    <component base="O"/>
  </outline>
</glyph>
<glyph name="Oslash" format="1">
  <advance width="644.0"/>
  <unicode hex="00D8"/>
  <outline>
    <contour>
      <point x="39.0" y="-14.0" type="line"/>
      <point x="122.0" y="-69.0" type="line"/>
      <point x="227.0" y="87.0" type="line"/>
      <point x="146.0" y="145.0" type="line"/>
    </contour>
    <contour>
      <point x="496.0" y="489.0" type="line"/>
      <point x="603.0" y="649.0" type="line"/>
      <point x="519.0" y="703.0" type="line"/>
      <point x="424.0" y="560.0" type="line"/>
    </contour>
    <contour>
      <point x="227.0" y="87.0" type="line"/>
      <point x="496.0" y="489.0" type="line"/>
      <point x="424.0" y="560.0" type="line"/>
      <point x="146.0" y="145.0" type="line"/>
    </contour>
    <component base="O"/>
    <contour>
      <point x="322.0" y="655" type="move" name="top"/>
    </contour>
  </outline>
</glyph>
<glyph name="Thorn" format="2">
  <advance width="567"/>
  <unicode hex="00DE"/>
  <outline>
    <contour>
      <point x="280.0" y="90.0" type="line" smooth="yes"/>
      <point x="456.0" y="90.0"/>
      <point x="544.0" y="160.0"/>
      <point x="544.0" y="321.0" type="curve"/>
      <point x="544.0" y="483.0"/>
      <point x="466.0" y="541.0"/>
      <point x="277.0" y="541.0" type="curve" smooth="yes"/>
      <point x="156.0" y="541.0" type="line"/>
      <point x="156.0" y="401.0" type="line"/>
      <point x="277.0" y="401.0" type="line" smooth="yes"/>
      <point x="355.0" y="401.0"/>
      <point x="387.0" y="383.0"/>
      <point x="387.0" y="321.0" type="curve"/>
      <point x="387.0" y="245.79166666666669"/>
      <point x="355.0" y="226.0"/>
      <point x="277.0" y="226.0" type="curve" smooth="yes"/>
      <point x="156.0" y="226.0" type="line"/>
      <point x="156.0" y="90.0" type="line"/>
    </contour>
    <contour>
      <point x="203.0" y="0.0" type="line"/>
      <point x="203.0" y="627.0" type="line"/>
      <point x="48.0" y="627.0" type="line"/>
      <point x="48.0" y="0.0" type="line"/>
    </contour>
  </outline>
</glyph>
<glyph name="germandbls" format="2">
  <advance width="579"/>
  <unicode hex="00DF"/>
  <outline>
    <contour>
      <point x="255.0" y="677.0" type="curve"/>
      <point x="113.0" y="677.0"/>
      <point x="43.0" y="614.0"/>
      <point x="43.0" y="486.0" type="curve"/>
      <point x="43.0" y="0.0" type="line"/>
      <point x="193.0" y="0.0" type="line"/>
      <point x="193.0" y="485.0" type="line" smooth="yes"/>
      <point x="193.0" y="526.0"/>
      <point x="210.0" y="542.0"/>
      <point x="255.0" y="542.0" type="curve"/>
      <point x="276.0" y="542.0"/>
      <point x="310.0" y="538.0"/>
      <point x="310.0" y="499.0" type="curve" smooth="yes"/>
      <point x="310.0" y="488.0"/>
      <point x="310.0" y="485.0"/>
      <point x="307.0" y="468.0" type="curve"/>
      <point x="270.0" y="247.0" type="line"/>
      <point x="384.0" y="219.0" type="line" smooth="yes"/>
      <point x="409.0" y="213.0"/>
      <point x="414.0" y="205.0"/>
      <point x="414.0" y="176.0" type="curve" smooth="yes"/>
      <point x="414.0" y="139.65384615384616"/>
      <point x="401.0" y="122.0"/>
      <point x="356.0" y="122.0" type="curve" smooth="yes"/>
      <point x="319.11764705882354" y="122.0"/>
      <point x="285.5096453014475" y="126.54370085428228"/>
      <point x="261.0" y="131.0" type="curve"/>
      <point x="261.0" y="3.0" type="line"/>
      <point x="289.7216015615551" y="-5.510104166386691"/>
      <point x="334.8095238095238" y="-10.0"/>
      <point x="385.0" y="-10.0" type="curve" smooth="yes"/>
      <point x="485.1715976331361" y="-10.0"/>
      <point x="556.0" y="37.0"/>
      <point x="556.0" y="176.0" type="curve"/>
      <point x="556.0" y="279.0"/>
      <point x="530.0" y="312.0"/>
      <point x="469.0" y="329.0" type="curve"/>
      <point x="425.0" y="341.0" type="line"/>
      <point x="451.0" y="464.0" type="line" smooth="yes"/>
      <point x="456.0" y="486.0"/>
      <point x="460.0" y="516.0"/>
      <point x="460.0" y="535.0" type="curve" smooth="yes"/>
      <point x="460.0" y="617.0"/>
      <point x="417.0" y="677.0"/>
    </contour>
  </outline>
</glyph>
<glyph name="ae" format="2">
  <advance width="733"/>
  <unicode hex="00E6"/>
  <guideline x="219.0" y="0.0" angle="90.0" identifier="2OTiADu8Uh"/>
  <guideline x="516" y="292" angle="0.0" identifier="z2FEeEcj49"/>
  <guideline x="502" y="200" angle="0" identifier="MT6eXpf3us"/>
  <anchor x="376.0" y="530" name="top"/>
  <outline>
    <contour>
      <point x="502.0" y="376.0" type="curve" smooth="yes"/>
      <point x="554.0" y="376.0"/>
      <point x="571.0" y="366"/>
      <point x="571.0" y="317.0" type="curve" smooth="yes"/>
      <point x="571.0" y="311.0"/>
      <point x="571.0" y="301.0"/>
      <point x="571.0" y="295.0" type="curve"/>
      <point x="430.0" y="295.0" type="line"/>
      <point x="430.0" y="358.0"/>
      <point x="444" y="376.0"/>
    </contour>
    <contour>
      <point x="686.0" y="27.0" type="curve"/>
      <point x="686.0" y="146.0" type="line"/>
      <point x="660.3989406452623" y="138.41450093192958"/>
      <point x="593" y="125.0"/>
      <point x="519.0" y="125.0" type="curve" smooth="yes"/>
      <point x="456.0" y="125"/>
      <point x="431.9997798247111" y="139.00649517102224"/>
      <point x="430.0" y="198.0" type="curve"/>
      <point x="702.0" y="198.0" type="line"/>
      <point x="706.0" y="231.0"/>
      <point x="707.0" y="250.0"/>
      <point x="707.0" y="293.0" type="curve" smooth="yes"/>
      <point x="707.0" y="444.0"/>
      <point x="658.3720930232558" y="504.0"/>
      <point x="502.0" y="504.0" type="curve"/>
      <point x="350.9298245614035" y="504.0"/>
      <point x="284.0" y="394.0"/>
      <point x="284.0" y="247.0" type="curve" smooth="yes"/>
      <point x="284.0" y="65.0"/>
      <point x="346" y="-10.0"/>
      <point x="495.0" y="-10.0" type="curve" smooth="yes"/>
      <point x="583.0" y="-10.0"/>
      <point x="658.9782547271695" y="9.628878038894708"/>
    </contour>
    <contour>
      <point x="16.0" y="148.0" type="curve" smooth="yes"/>
      <point x="16" y="39.0"/>
      <point x="61.0" y="-10.0"/>
      <point x="163.0" y="-10.0" type="curve" smooth="yes"/>
      <point x="240.0" y="-10.0"/>
      <point x="305.0" y="30.0"/>
      <point x="344.0" y="67.0" type="curve"/>
      <point x="303.0" y="146.0" type="line"/>
      <point x="295.0" y="136.0"/>
      <point x="249.0" y="113.0"/>
      <point x="204.0" y="113.0" type="curve" smooth="yes"/>
      <point x="168.0" y="113.0"/>
      <point x="157.0" y="125.0"/>
      <point x="157.0" y="156.0" type="curve" smooth="yes"/>
      <point x="157.0" y="188.0"/>
      <point x="167.0" y="198.0"/>
      <point x="220.0" y="198.0" type="curve" smooth="yes"/>
      <point x="248.0" y="198.0"/>
      <point x="275" y="198.0"/>
      <point x="303.0" y="198.0" type="curve"/>
      <point x="303.0" y="295.0" type="line"/>
      <point x="273" y="295.0"/>
      <point x="242" y="295.0"/>
      <point x="210.0" y="295.0" type="curve" smooth="yes"/>
      <point x="68.0" y="295.0"/>
      <point x="16.0" y="255.0"/>
    </contour>
    <contour>
      <point x="408.0" y="342.0" type="line"/>
      <point x="408.0" y="451.0"/>
      <point x="354" y="504.0"/>
      <point x="257.0" y="504.0" type="curve" smooth="yes"/>
      <point x="178.0" y="504.0"/>
      <point x="114.0" y="499.0"/>
      <point x="62.0" y="486.0" type="curve"/>
      <point x="62.0" y="363.0" type="line"/>
      <point x="88.0" y="368.0"/>
      <point x="130.0" y="374.0"/>
      <point x="211.0" y="374.0" type="curve" smooth="yes"/>
      <point x="260.0" y="374.0"/>
      <point x="284.0" y="359.0"/>
      <point x="284.0" y="327.0" type="curve" smooth="yes"/>
      <point x="284.0" y="220.0" type="line"/>
    </contour>
  </outline>
</glyph>
<glyph name="eth" format="2">
  <advance width="540"/>
  <unicode hex="00F0"/>
  <outline>
    <contour>
      <point x="513.0" y="576.0" type="line"/>
      <point x="513.0" y="659.0" type="line"/>
      <point x="148.0" y="577.0" type="line"/>
      <point x="148.0" y="494.0" type="line"/>
    </contour>
    <contour>
      <point x="269.0" y="-10.0" type="curve"/>
      <point x="445.0" y="-10.0"/>
      <point x="513.0" y="57.0"/>
      <point x="513.0" y="232.0" type="curve"/>
      <point x="513.0" y="407.0"/>
      <point x="425.0" y="474.0"/>
      <point x="269.0" y="474.0" type="curve"/>
      <point x="93.0" y="474.0"/>
      <point x="25.0" y="407.0"/>
      <point x="25.0" y="232.0" type="curve"/>
      <point x="25.0" y="57.0"/>
      <point x="93.0" y="-10.0"/>
    </contour>
    <contour>
      <point x="269.0" y="129.0" type="curve"/>
      <point x="190.0" y="129.0"/>
      <point x="175.0" y="143.0"/>
      <point x="175.0" y="234.0" type="curve"/>
      <point x="175.0" y="325.0"/>
      <point x="190.0" y="339.0"/>
      <point x="269.0" y="339.0" type="curve"/>
      <point x="348.0" y="339.0"/>
      <point x="363.0" y="325.0"/>
      <point x="363.0" y="234.0" type="curve"/>
      <point x="363.0" y="143.0"/>
      <point x="348.0" y="129.0"/>
    </contour>
    <contour>
      <point x="366.0" y="665.0" type="curve"/>
      <point x="206.0" y="665.0" type="line"/>
      <point x="298.0" y="560.0"/>
      <point x="364.03877149917713" y="447.33999622355316"/>
      <point x="351.0" y="333.0" type="curve"/>
      <point x="513.0" y="232.0" type="line"/>
      <point x="513.0" y="443.4884259259259"/>
      <point x="459.0" y="562.0"/>
    </contour>
  </outline>
</glyph>
<glyph name="oslash" format="2">
  <advance width="538"/>
  <unicode hex="00F8"/>
  <guideline x="519" y="226" angle="90.0" identifier="DhwTW0iOnd"/>
  <anchor x="269.0" y="530" name="top"/>
  <outline>
    <contour>
      <point x="24.0" y="-24.0" type="line"/>
      <point x="106.0" y="-81.0" type="line"/>
      <point x="187.0" y="37.0" type="line"/>
      <point x="222.0" y="96.0" type="line"/>
      <point x="395.0" y="348.0" type="line"/>
      <point x="434.0" y="396.0" type="line"/>
      <point x="516.0" y="516.0" type="line"/>
      <point x="434.0" y="572.0" type="line"/>
      <point x="360.0" y="464.0" type="line"/>
      <point x="336.0" y="422.0" type="line"/>
      <point x="147.0" y="148.0" type="line"/>
      <point x="95.0" y="80.0" type="line"/>
    </contour>
    <component base="o"/>
  </outline>
</glyph>
<glyph name="Dcroat" format="1">
  <advance width="644.0"/>
  <unicode hex="0110"/>
  <outline>
    <contour>
      <point x="365.0" y="269.0" type="line"/>
      <point x="365.0" y="372.0" type="line"/>
      <point x="20.0" y="372.0" type="line"/>
      <point x="20.0" y="269.0" type="line"/>
    </contour>
    <component base="D" xOffset="42.0"/>
  </outline>
</glyph>
<glyph name="dcroat" format="2">
  <advance width="541"/>
  <unicode hex="0111"/>
  <outline>
    <contour>
      <point x="568.0" y="536.0" type="line"/>
      <point x="568.0" y="619.0" type="line"/>
      <point x="203.0" y="619.0" type="line"/>
      <point x="203.0" y="536.0" type="line"/>
    </contour>
    <contour>
      <point x="498.0" y="665.0" type="line"/>
      <point x="348.0" y="665.0" type="line"/>
      <point x="348.0" y="46.0" type="line"/>
      <point x="357.0" y="46.0" type="line"/>
      <point x="365.0" y="0.0" type="line"/>
      <point x="498.0" y="0.0" type="line"/>
    </contour>
    <contour>
      <point x="382.0" y="165.0" type="line"/>
      <point x="370.0" y="154.0"/>
      <point x="333.0" y="129.0"/>
      <point x="260.0" y="129.0" type="curve" smooth="yes"/>
      <point x="192.0" y="129.0"/>
      <point x="175.0" y="141.81355932203388"/>
      <point x="175.0" y="237.0" type="curve"/>
      <point x="175.0" y="332.4754098360656"/>
      <point x="190.0" y="349.0"/>
      <point x="269.0" y="349.0" type="curve"/>
      <point x="332.0" y="349.0"/>
      <point x="353.0" y="335.0"/>
      <point x="372.0" y="323.0" type="curve"/>
      <point x="403.0" y="428.0" type="line"/>
      <point x="385.0" y="469.0"/>
      <point x="320.0" y="484.0"/>
      <point x="248.0" y="484.0" type="curve"/>
      <point x="97.0" y="484.0"/>
      <point x="25.0" y="415.7626459143969"/>
      <point x="25.0" y="237.0" type="curve"/>
      <point x="25.0" y="58.23735408560313"/>
      <point x="76.0" y="-10.0"/>
      <point x="206.0" y="-10.0" type="curve"/>
      <point x="297.0" y="-10.0"/>
      <point x="366.0" y="30.0"/>
      <point x="402.0" y="125.0" type="curve"/>
    </contour>
  </outline>
</glyph>
<glyph name="Hbar" format="2">
  <advance width="688"/>
  <unicode hex="0126"/>
  <outline>
    <contour>
      <point x="666.0" y="447.0" type="line"/>
      <point x="666.0" y="545.0" type="line"/>
      <point x="22.0" y="545.0" type="line"/>
      <point x="22.0" y="447.0" type="line"/>
    </contour>
    <component base="H" xOffset="31"/>
  </outline>
</glyph>
<glyph name="hbar" format="1">
  <advance width="553.0"/>
  <unicode hex="0127"/>
  <outline>
    <contour>
      <point x="338.0" y="536.0" type="line"/>
      <point x="338.0" y="619.0" type="line"/>
      <point x="-27.0" y="619.0" type="line"/>
      <point x="-27.0" y="536.0" type="line"/>
    </contour>
    <contour>
      <point x="43.0" y="0.0" type="line"/>
      <point x="193.0" y="0.0" type="line"/>
      <point x="193.0" y="665.0" type="line"/>
      <point x="43.0" y="665.0" type="line"/>
    </contour>
    <contour>
      <point x="165.0" y="343.0" type="line"/>
      <point x="179.0" y="351.0"/>
      <point x="240.0" y="369.0"/>
      <point x="299.0" y="369.0" type="curve" smooth="yes"/>
      <point x="345.0" y="369.0"/>
      <point x="362.0" y="354.0"/>
      <point x="362.0" y="322.0" type="curve" smooth="yes"/>
      <point x="362.0" y="0.0" type="line"/>
      <point x="512.0" y="0.0" type="line"/>
      <point x="512.0" y="342.0" type="line" smooth="yes"/>
      <point x="512.0" y="451.0"/>
      <point x="457.0" y="504.0"/>
      <point x="345.0" y="504.0" type="curve" smooth="yes"/>
      <point x="274.0" y="504.0"/>
      <point x="204.0" y="468.0"/>
      <point x="165.0" y="441.0" type="curve"/>
    </contour>
  </outline>
</glyph>
<glyph name="dotlessi" format="2">
  <advance width="236"/>
  <unicode hex="0131"/>
  <guideline x="117" y="494" angle="90" name="mid" identifier="cSShZozQ0v"/>
  <anchor x="118.0" y="520" name="top"/>
  <outline>
    <contour>
      <point x="43.0" y="0.0" type="line"/>
      <point x="193.0" y="0.0" type="line"/>
      <point x="193.0" y="494.0" type="line"/>
      <point x="43.0" y="494.0" type="line"/>
    </contour>
  </outline>
</glyph>
<glyph name="Lslash" format="2">
  <advance width="504"/>
  <unicode hex="0141"/>
  <outline>
    <contour>
      <point x="386.0" y="336.0" type="line"/>
      <point x="386.0" y="441.0" type="line"/>
      <point x="21.0" y="337.0" type="line"/>
      <point x="21.0" y="232.0" type="line"/>
    </contour>
    <component base="L" xOffset="43"/>
  </outline>
</glyph>
<glyph name="Lslash" format="1">
  <advance width="504.0"/>
  <unicode hex="0141"/>
  <outline>
    <contour>
      <point x="386.0" y="336.0" type="line"/>
      <point x="386.0" y="441.0" type="line"/>
      <point x="21.0" y="337.0" type="line"/>
      <point x="21.0" y="232.0" type="line"/>
    </contour>
    <component base="L" xOffset="43.0"/>
  </outline>
</glyph>
<glyph name="lslash" format="2">
  <advance width="326"/>
  <unicode hex="0142"/>
  <outline>
    <contour>
      <point x="314.0" y="321.0" type="line"/>
      <point x="314.0" y="424.0" type="line"/>
      <point x="21.0" y="335.0" type="line"/>
      <point x="21.0" y="232.0" type="line"/>
    </contour>
    <component base="l" xOffset="38"/>
  </outline>
</glyph>
<glyph name="Eng" format="2">
  <advance width="637"/>
  <unicode hex="014A"/>
  <outline>
    <contour>
      <point x="589.0" y="19.0" type="curve" smooth="yes"/>
      <point x="589.0" y="627.0" type="line"/>
      <point x="444.0" y="627.0" type="line"/>
      <point x="444.0" y="251.0" type="line"/>
      <point x="195.0" y="627.0" type="line"/>
      <point x="48.0" y="627.0" type="line"/>
      <point x="48.0" y="0.0" type="line"/>
      <point x="193.0" y="0.0" type="line"/>
      <point x="193.0" y="362.0" type="line"/>
      <point x="441.0" y="0.0" type="line"/>
      <point x="436.0" y="-31.0"/>
      <point x="417.0" y="-38.0"/>
      <point x="370.0" y="-38.0" type="curve" smooth="yes"/>
      <point x="362.0" y="-38.0"/>
      <point x="355.0" y="-38.0"/>
      <point x="347.0" y="-37.0" type="curve"/>
      <point x="347.0" y="-161.0" type="line"/>
      <point x="363.0" y="-163.0"/>
      <point x="371.0" y="-167.0"/>
      <point x="420.0" y="-167.0" type="curve"/>
      <point x="511.0" y="-167.0"/>
      <point x="589.0" y="-101.0"/>
    </contour>
  </outline>
</glyph>
<glyph name="Eng" format="1">
  <advance width="637.0"/>
  <unicode hex="014A"/>
  <outline>
    <contour>
      <point x="589.0" y="19.0" type="curve" smooth="yes"/>
      <point x="589.0" y="627.0" type="line"/>
      <point x="444.0" y="627.0" type="line"/>
      <point x="444.0" y="251.0" type="line"/>
      <point x="195.0" y="627.0" type="line"/>
      <point x="48.0" y="627.0" type="line"/>
      <point x="48.0" y="0.0" type="line"/>
      <point x="193.0" y="0.0" type="line"/>
      <point x="193.0" y="362.0" type="line"/>
      <point x="441.0" y="0.0" type="line"/>
      <point x="436.0" y="-31.0"/>
      <point x="417.0" y="-38.0"/>
      <point x="370.0" y="-38.0" type="curve" smooth="yes"/>
      <point x="362.0" y="-38.0"/>
      <point x="355.0" y="-38.0"/>
      <point x="347.0" y="-37.0" type="curve"/>
      <point x="347.0" y="-161.0" type="line"/>
      <point x="363.0" y="-163.0"/>
      <point x="371.0" y="-167.0"/>
      <point x="420.0" y="-167.0" type="curve"/>
      <point x="511.0" y="-167.0"/>
      <point x="589.0" y="-101.0"/>
    </contour>
  </outline>
</glyph>
<glyph name="eng" format="2">
  <advance width="553"/>
  <unicode hex="014B"/>
  <guideline x="356" y="90" angle="90.0" identifier="dG9IPEc0jG"/>
  <outline>
    <contour>
      <point x="43.0" y="0.0" type="line"/>
      <point x="193.0" y="0.0" type="line"/>
      <point x="193.0" y="442.0" type="line"/>
      <point x="179.0" y="442.0" type="line"/>
      <point x="173.0" y="494.0" type="line"/>
      <point x="43.0" y="494.0" type="line"/>
    </contour>
    <contour>
      <point x="512.0" y="4.0" type="curve" smooth="yes"/>
      <point x="512.0" y="342.0" type="line" smooth="yes"/>
      <point x="512.0" y="451.0"/>
      <point x="451.0" y="504.0"/>
      <point x="342.0" y="504.0" type="curve"/>
      <point x="268.0" y="504.0"/>
      <point x="215.0" y="484.0"/>
      <point x="165.0" y="423.0" type="curve"/>
      <point x="165.0" y="326.0" type="line"/>
      <point x="182.0" y="345.0"/>
      <point x="230.0" y="369.0"/>
      <point x="289.0" y="369.0" type="curve" smooth="yes"/>
      <point x="335.0" y="369.0"/>
      <point x="362.0" y="354.0"/>
      <point x="362.0" y="322.0" type="curve" smooth="yes"/>
      <point x="362.0" y="24.0" type="line"/>
      <point x="362.0" y="-23.0"/>
      <point x="346.0" y="-33.0"/>
      <point x="290.0" y="-33.0" type="curve" smooth="yes"/>
      <point x="282.0" y="-33.0"/>
      <point x="275.0" y="-33.0"/>
      <point x="267.0" y="-32.0" type="curve"/>
      <point x="267.0" y="-156.0" type="line"/>
      <point x="282.0" y="-158.0"/>
      <point x="295.0" y="-162.0"/>
      <point x="342.0" y="-162.0" type="curve"/>
      <point x="445.0" y="-162.0"/>
      <point x="512.0" y="-110.0"/>
    </contour>
  </outline>
</glyph>
<glyph name="OE" format="1">
  <advance width="853.0"/>
  <unicode hex="0152"/>
  <outline>
    <contour>
      <point x="309.0" y="-10.0" type="curve"/>
      <point x="507.83389830508474" y="-10.0"/>
      <point x="591.0" y="86.0"/>
      <point x="591.0" y="314.0" type="curve"/>
      <point x="591.0" y="552.0"/>
      <point x="517.393220338983" y="637.0"/>
      <point x="309.0" y="637.0" type="curve"/>
      <point x="110.16610169491526" y="637.0"/>
      <point x="27.0" y="541.0"/>
      <point x="27.0" y="314.0" type="curve"/>
      <point x="27.0" y="75.00000000000003"/>
      <point x="100.60677966101696" y="-10.0"/>
    </contour>
    <contour>
      <point x="309.0" y="135.0" type="curve"/>
      <point x="213.89130434782606" y="135.0"/>
      <point x="184.0" y="155.0"/>
      <point x="184.0" y="314.0" type="curve"/>
      <point x="184.0" y="477.0"/>
      <point x="213.89130434782606" y="497.0"/>
      <point x="309.0" y="497.0" type="curve"/>
      <point x="404.10869565217394" y="497.0"/>
      <point x="434.0" y="477.0"/>
      <point x="434.0" y="314.0" type="curve"/>
      <point x="434.0" y="155.0"/>
      <point x="404.10869565217394" y="135.0"/>
    </contour>
    <contour>
      <point x="565.0" y="487.0" type="line"/>
      <point x="819.0" y="487.0" type="line"/>
      <point x="819.0" y="627.0" type="line"/>
      <point x="375.0" y="627.0" type="line"/>
    </contour>
    <contour>
      <point x="562.0" y="253.0" type="line"/>
      <point x="782.0" y="253.0" type="line"/>
      <point x="782.0" y="383.0" type="line"/>
      <point x="562.0" y="383.0" type="line"/>
    </contour>
    <contour>
      <point x="365.0" y="0.0" type="line"/>
      <point x="828.0" y="0.0" type="line"/>
      <point x="828.0" y="145.0" type="line"/>
      <point x="555.0" y="145.0" type="line"/>
    </contour>
  </outline>
</glyph>
<glyph name="OE" format="2">
  <advance width="853"/>
  <unicode hex="0152"/>
  <outline>
    <contour>
      <point x="309.0" y="-10.0" type="curve"/>
      <point x="507.83389830508474" y="-10.0"/>
      <point x="591.0" y="86.0"/>
      <point x="591.0" y="314.0" type="curve"/>
      <point x="591.0" y="552.0"/>
      <point x="517.393220338983" y="637.0"/>
      <point x="309.0" y="637.0" type="curve"/>
      <point x="110.16610169491526" y="637.0"/>
      <point x="27.0" y="541.0"/>
      <point x="27.0" y="314.0" type="curve"/>
      <point x="27.0" y="75.00000000000003"/>
      <point x="100.60677966101696" y="-10.0"/>
    </contour>
    <contour>
      <point x="309.0" y="135.0" type="curve"/>
      <point x="213.89130434782606" y="135.0"/>
      <point x="184.0" y="155.0"/>
      <point x="184.0" y="314.0" type="curve"/>
      <point x="184.0" y="477.0"/>
      <point x="213.89130434782606" y="497.0"/>
      <point x="309.0" y="497.0" type="curve"/>
      <point x="404.10869565217394" y="497.0"/>
      <point x="434.0" y="477.0"/>
      <point x="434.0" y="314.0" type="curve"/>
      <point x="434.0" y="155.0"/>
      <point x="404.10869565217394" y="135.0"/>
    </contour>
    <contour>
      <point x="565.0" y="487.0" type="line"/>
      <point x="819.0" y="487.0" type="line"/>
      <point x="819.0" y="627.0" type="line"/>
      <point x="375.0" y="627.0" type="line"/>
    </contour>
    <contour>
      <point x="562.0" y="253.0" type="line"/>
      <point x="782.0" y="253.0" type="line"/>
      <point x="782.0" y="383.0" type="line"/>
      <point x="562.0" y="383.0" type="line"/>
    </contour>
    <contour>
      <point x="365.0" y="0.0" type="line"/>
      <point x="828.0" y="0.0" type="line"/>
      <point x="828.0" y="145.0" type="line"/>
      <point x="555.0" y="145.0" type="line"/>
    </contour>
  </outline>
</glyph>
<glyph name="oe" format="2">
  <advance width="805"/>
  <unicode hex="0153"/>
  <guideline x="175.0" y="0.0" angle="90.0" identifier="pNoEEor4er"/>
  <guideline x="359.0" y="0.0" angle="90.0" identifier="HOBnvkg0Gt"/>
  <guideline x="503.0" y="0.0" angle="90.0" identifier="S8rP3SO22s"/>
  <outline>
    <contour>
      <point x="263.0" y="-10.0" type="curve"/>
      <point x="412.68224299065423" y="-10.0"/>
      <point x="471.0" y="61.0"/>
      <point x="471.0" y="247.0" type="curve"/>
      <point x="471.0" y="433.0"/>
      <point x="412.68224299065423" y="504.0"/>
      <point x="263.0" y="504.0" type="curve"/>
      <point x="91.327868852459" y="504.0"/>
      <point x="25.0" y="433.0"/>
      <point x="25.0" y="247.0" type="curve"/>
      <point x="25.0" y="61.0"/>
      <point x="91.327868852459" y="-10.0"/>
    </contour>
    <contour>
      <point x="263.0" y="129.0" type="curve"/>
      <point x="189.04255319148936" y="129.0"/>
      <point x="175.0" y="145.0"/>
      <point x="175.0" y="249.0" type="curve"/>
      <point x="175.0" y="353.0"/>
      <point x="189.04255319148936" y="369.0"/>
      <point x="263.0" y="369.0" type="curve"/>
      <point x="336.95744680851067" y="369.0"/>
      <point x="351.0" y="353.0"/>
      <point x="351.0" y="249.0" type="curve"/>
      <point x="351.0" y="145.0"/>
      <point x="336.95744680851067" y="129.0"/>
    </contour>
    <contour>
      <point x="574.0" y="376.0" type="curve"/>
      <point x="625.986301369863" y="376.0"/>
      <point x="641.0001772828704" y="365.9956565696756"/>
      <point x="643.0" y="317.0" type="curve"/>
      <point x="643.0" y="311.0"/>
      <point x="643.0" y="301.0"/>
      <point x="643.0" y="295.0" type="curve"/>
      <point x="502.0" y="295.0" type="line"/>
      <point x="502.0" y="358.0"/>
      <point x="516.2105263157895" y="376.0"/>
    </contour>
    <contour>
      <point x="758.0" y="27.0" type="curve"/>
      <point x="758.0" y="146.0" type="line"/>
      <point x="732.5550129037442" y="138.17077320115206"/>
      <point x="664.2456140350877" y="125.0"/>
      <point x="591.0" y="125.0" type="curve"/>
      <point x="527.8387096774194" y="125.0"/>
      <point x="503.9997684810023" y="139.0068298104298"/>
      <point x="502.0" y="198.0" type="curve"/>
      <point x="774.0" y="198.0" type="line"/>
      <point x="778.0" y="231.0"/>
      <point x="779.0" y="250.0"/>
      <point x="779.0" y="293.0" type="curve" smooth="yes"/>
      <point x="779.0" y="444.0"/>
      <point x="729.9569377990431" y="504.0"/>
      <point x="574.0" y="504.0" type="curve"/>
      <point x="440.76142131979697" y="504.0"/>
      <point x="381.0" y="424.0"/>
      <point x="381.0" y="247.0" type="curve" smooth="yes"/>
      <point x="381.0" y="65.0"/>
      <point x="434.8421052631579" y="-10.0"/>
      <point x="567.0" y="-10.0" type="curve"/>
      <point x="655.1538461538462" y="-10.0"/>
      <point x="731.3822045077272" y="9.254803005151487"/>
    </contour>
  </outline>
</glyph>
<glyph name="Tbar" format="2">
  <advance width="533"/>
  <unicode hex="0166"/>
  <outline>
    <contour>
      <point x="474.0" y="242.0" type="line"/>
      <point x="474.0" y="345.0" type="line"/>
      <point x="59.0" y="345.0" type="line"/>
      <point x="59.0" y="242.0" type="line"/>
    </contour>
    <component base="T" xOffset="6"/>
  </outline>
</glyph>
<glyph name="tbar" format="2">
  <advance width="391"/>
  <unicode hex="0167"/>
  <outline>
    <contour>
      <point x="369.0" y="207.0" type="line"/>
      <point x="369.0" y="310.0" type="line"/>
      <point x="21.0" y="310.0" type="line"/>
      <point x="21.0" y="207.0" type="line"/>
    </contour>
    <component base="t" xOffset="4"/>
  </outline>
</glyph>
<glyph name="uni018F" format="2">
  <advance width="583"/>
  <unicode hex="018F"/>
  <outline>
    <contour>
      <point x="556.0" y="314.0" type="curve" smooth="yes"/>
      <point x="556.0" y="531.0"/>
      <point x="479.0" y="637.0"/>
      <point x="266.0" y="637.0" type="curve"/>
      <point x="185.0" y="637.0"/>
      <point x="120.0" y="624.0"/>
      <point x="84.0" y="614.0" type="curve"/>
      <point x="84.0" y="478.0" type="line"/>
      <point x="129.0" y="487.0"/>
      <point x="188.0" y="497.0"/>
      <point x="247.0" y="497.0" type="curve"/>
      <point x="365.0" y="497.0"/>
      <point x="396.0" y="456.0"/>
      <point x="396.0" y="312.0" type="curve"/>
      <point x="396.0" y="179.0"/>
      <point x="376.0" y="130.0"/>
      <point x="281.0" y="129.0" type="curve"/>
      <point x="215.0" y="130.0"/>
      <point x="179.0" y="161.0"/>
      <point x="179.0" y="231.0" type="curve" smooth="yes"/>
      <point x="179.0" y="242.0"/>
      <point x="179.0" y="244.0"/>
      <point x="180.0" y="256.0" type="curve"/>
      <point x="447.0" y="256.0" type="line"/>
      <point x="447.0" y="381.0" type="line"/>
      <point x="33.0" y="381.0" type="line"/>
      <point x="28.0" y="339.0"/>
      <point x="25.0" y="304.0"/>
      <point x="25.0" y="250.0" type="curve"/>
      <point x="25.0" y="74.0"/>
      <point x="109.0" y="-10.0"/>
      <point x="274.0" y="-10.0" type="curve"/>
      <point x="462.0" y="-10.0"/>
      <point x="556.0" y="77.0"/>
    </contour>
  </outline>
</glyph>
<glyph name="florin" format="2">
  <advance width="439"/>
  <unicode hex="0192"/>
  <outline>
    <contour>
      <point x="423.0" y="627.0" type="line"/>
      <point x="407.74246974306976" y="629.8607869231744"/>
      <point x="366.0" y="637.0"/>
      <point x="324.0" y="637.0" type="curve"/>
      <point x="193.0" y="637.0"/>
      <point x="144.0" y="587.0"/>
      <point x="125.0" y="467.0" type="curve" smooth="yes"/>
      <point x="26.0" y="-152.0" type="line"/>
      <point x="181.0" y="-152.0" type="line"/>
      <point x="278.0" y="441.0" type="line" smooth="yes"/>
      <point x="285.84998922851827" y="488.9901403351684"/>
      <point x="301.36842105263156" y="501.0"/>
      <point x="352.0" y="501.0" type="curve"/>
      <point x="378.0" y="501.0"/>
      <point x="410.0" y="498.0"/>
      <point x="423.0" y="496.0" type="curve"/>
    </contour>
    <contour>
      <point x="26.0" y="288.0" type="line"/>
      <point x="400.0" y="288.0" type="line"/>
      <point x="400.0" y="380.0" type="line"/>
      <point x="26.0" y="380.0" type="line"/>
    </contour>
  </outline>
</glyph>
<glyph name="uni01B5" format="2">
  <advance width="511"/>
  <unicode hex="01B5"/>
  <guideline x="456" y="450" angle="90.0" identifier="QSvn3xktMh"/>
  <outline>
    <contour>
      <point x="472.0" y="268.0" type="line"/>
      <point x="472.0" y="371.0" type="line"/>
      <point x="44.0" y="371.0" type="line"/>
      <point x="44.0" y="268.0" type="line"/>
    </contour>
    <component base="Z" xOffset="3"/>
  </outline>
</glyph>
<glyph name="uni01B6" format="2">
  <advance width="432"/>
  <unicode hex="01B6"/>
  <outline>
    <contour>
      <point x="392.0" y="207.0" type="line"/>
      <point x="392.0" y="310.0" type="line"/>
      <point x="43.0" y="310.0" type="line"/>
      <point x="43.0" y="207.0" type="line"/>
    </contour>
    <component base="z" xOffset="3"/>
  </outline>
</glyph>
<glyph name="uni0237" format="2">
  <advance width="243"/>
  <unicode hex="0237"/>
  <guideline x="115" y="494" angle="90" name="mid" identifier="vXMDaZ161J"/>
  <anchor x="125.0" y="520.0" name="top"/>
  <outline>
    <contour>
      <point x="-45.0" y="-156.0" type="line"/>
      <point x="-30.0" y="-158.0"/>
      <point x="-17.0" y="-162.0"/>
      <point x="30.0" y="-162.0" type="curve"/>
      <point x="133.0" y="-162.0"/>
      <point x="200.0" y="-110.0"/>
      <point x="200.0" y="4.0" type="curve" smooth="yes"/>
      <point x="200.0" y="494.0" type="line"/>
      <point x="50.0" y="494.0" type="line"/>
      <point x="50.0" y="24.0" type="line" smooth="yes"/>
      <point x="50.0" y="-23.0"/>
      <point x="34.0" y="-33.0"/>
      <point x="-22.0" y="-33.0" type="curve" smooth="yes"/>
      <point x="-30.0" y="-33.0"/>
      <point x="-37.0" y="-33.0"/>
      <point x="-45.0" y="-32.0" type="curve"/>
    </contour>
  </outline>
</glyph>
<glyph name="uni0259" format="2">
  <advance width="499"/>
  <unicode hex="0259"/>
  <outline>
    <contour>
      <point x="241.0" y="120.0" type="curve"/>
      <point x="181.0" y="120.0"/>
      <point x="164.0" y="130.0"/>
      <point x="162.0" y="179.0" type="curve"/>
      <point x="162.0" y="185.0"/>
      <point x="162.0" y="196.0"/>
      <point x="162.0" y="201.0" type="curve"/>
      <point x="323.0" y="201.0" type="line"/>
      <point x="323.0" y="138.0"/>
      <point x="307.0" y="120.0"/>
    </contour>
    <contour>
      <point x="47.0" y="467.0" type="curve"/>
      <point x="47.0" y="350.0" type="line"/>
      <point x="74.0" y="358.0"/>
      <point x="146.0" y="371.0"/>
      <point x="224.0" y="371.0" type="curve"/>
      <point x="294.0" y="371.0"/>
      <point x="321.0" y="357.0"/>
      <point x="323.0" y="298.0" type="curve"/>
      <point x="31.0" y="298.0" type="line"/>
      <point x="27.0" y="265.0"/>
      <point x="26.0" y="246.0"/>
      <point x="26.0" y="203.0" type="curve" smooth="yes"/>
      <point x="26.0" y="52.0"/>
      <point x="77.0" y="-10.0"/>
      <point x="241.0" y="-10.0" type="curve"/>
      <point x="402.0" y="-10.0"/>
      <point x="474.0" y="70.0"/>
      <point x="474.0" y="247.0" type="curve" smooth="yes"/>
      <point x="474.0" y="429.0"/>
      <point x="408.0" y="504.0"/>
      <point x="248.0" y="504.0" type="curve"/>
      <point x="155.0" y="504.0"/>
      <point x="75.0" y="485.0"/>
    </contour>
  </outline>
</glyph>
<glyph name="breve" format="1">
  <advance width="385.0"/>
  <unicode hex="02D8"/>
  <outline>
    <contour>
      <point x="335.0" y="682.0" type="curve"/>
      <point x="248.0" y="682.0" type="line"/>
      <point x="248.0" y="648.0"/>
      <point x="228.0" y="629.0"/>
      <point x="193.0" y="629.0" type="curve" smooth="yes"/>
      <point x="157.0" y="629.0"/>
      <point x="137.0" y="648.0"/>
      <point x="137.0" y="682.0" type="curve"/>
      <point x="50.0" y="682.0" type="line"/>
      <point x="50.0" y="597.0"/>
      <point x="105.0" y="544.0"/>
      <point x="193.0" y="544.0" type="curve" smooth="yes"/>
      <point x="280.0" y="544.0"/>
      <point x="335.0" y="597.0"/>
    </contour>
    <contour>
      <point x="193" y="530" type="move" name="_top"/>
    </contour>
  </outline>
</glyph>
<glyph name="dotaccent" format="2">
  <advance width="254"/>
  <unicode hex="02D9"/>
  <guideline x="119.0" y="0.0" angle="90.0" name="mid" identifier="0ZZ6zXP6x8"/>
  <anchor x="129" y="530" name="_top"/>
  <outline>
    <contour>
      <point x="50.0" y="551.0" type="line"/>
      <point x="204.0" y="551.0" type="line"/>
      <point x="204.0" y="664.0" type="line"/>
      <point x="50.0" y="664.0" type="line"/>
    </contour>
  </outline>
</glyph>
<glyph name="ring" format="1">
  <advance width="337.0"/>
  <unicode hex="02DA"/>
  <outline>
    <contour>
      <point x="167.0" y="612.0" type="curve" smooth="yes"/>
      <point x="140.0" y="612.0"/>
      <point x="123.0" y="625.0"/>
      <point x="123.0" y="647.0" type="curve" smooth="yes"/>
      <point x="123.0" y="669.0"/>
      <point x="140.0" y="683.0"/>
      <point x="167.0" y="683.0" type="curve" smooth="yes"/>
      <point x="195.0" y="683.0"/>
      <point x="212.0" y="669.0"/>
      <point x="212.0" y="647.0" type="curve" smooth="yes"/>
      <point x="212.0" y="625.0"/>
      <point x="195.0" y="612.0"/>
    </contour>
    <contour>
      <point x="167.0" y="543.0" type="curve" smooth="yes"/>
      <point x="240.0" y="543.0"/>
      <point x="286.0" y="583.0"/>
      <point x="286.0" y="647.0" type="curve" smooth="yes"/>
      <point x="286.0" y="710.0"/>
      <point x="240.0" y="748.0"/>
      <point x="167.0" y="748.0" type="curve" smooth="yes"/>
      <point x="95.0" y="748.0"/>
      <point x="49.0" y="710.0"/>
      <point x="49.0" y="647.0" type="curve" smooth="yes"/>
      <point x="49.0" y="583.0"/>
      <point x="95.0" y="543.0"/>
    </contour>
    <contour>
      <point x="167" y="530" type="move" name="_top"/>
    </contour>
  </outline>
</glyph>
<glyph name="ogonek" format="2">
  <advance width="327"/>
  <unicode hex="02DB"/>
  <anchor x="277" y="9" name="_ogonek"/>
  <outline>
    <contour>
      <point x="277.0" y="9.0" type="curve"/>
      <point x="219.0" y="33.0" type="line"/>
      <point x="219.0" y="33.0"/>
      <point x="50.0" y="34.0"/>
      <point x="50.0" y="-96.0" type="curve"/>
      <point x="50.0" y="-160.0"/>
      <point x="88.0" y="-195.0"/>
      <point x="165.0" y="-195.0" type="curve" smooth="yes"/>
      <point x="209.0" y="-195.0"/>
      <point x="247.0" y="-184.0"/>
      <point x="247.0" y="-184.0" type="curve"/>
      <point x="247.0" y="-101.0" type="line"/>
      <point x="236.0" y="-103.0"/>
      <point x="217.0" y="-106.0"/>
      <point x="201.0" y="-106.0" type="curve" smooth="yes"/>
      <point x="167.57142857142856" y="-106.0"/>
      <point x="149.0" y="-98.0"/>
      <point x="149.0" y="-69.0" type="curve" smooth="yes"/>
      <point x="149.0" y="-21.0"/>
      <point x="223.0" y="-1.0"/>
    </contour>
  </outline>
</glyph>
<glyph name="tilde" format="2">
  <advance width="403"/>
  <unicode hex="02DC"/>
  <guideline x="161.0" y="0.0" angle="90.0" name="mid" identifier="Mj39p18DYT"/>
  <guideline x="202" y="617" angle="90" name="mid" identifier="iAlzo0fmgN"/>
  <anchor x="202" y="530" name="_top"/>
  <outline>
    <contour>
      <point x="353.0" y="682.0" type="curve"/>
      <point x="269.0" y="682.0" type="line"/>
      <point x="269.0" y="664.0"/>
      <point x="266.0" y="638.0"/>
      <point x="248.0" y="638.0" type="curve"/>
      <point x="227.0" y="638.0"/>
      <point x="184.0" y="686.0"/>
      <point x="133.0" y="686.0" type="curve" smooth="yes"/>
      <point x="67.0" y="686.0"/>
      <point x="50.0" y="614.0"/>
      <point x="50.0" y="551.0" type="curve"/>
      <point x="134.0" y="551.0" type="line"/>
      <point x="134.0" y="569.0"/>
      <point x="137.0" y="597.0"/>
      <point x="155.0" y="597.0" type="curve"/>
      <point x="176.0" y="597.0"/>
      <point x="219.0" y="547.0"/>
      <point x="270.0" y="547.0" type="curve" smooth="yes"/>
      <point x="336.0" y="547.0"/>
      <point x="353.0" y="619.0"/>
    </contour>
  </outline>
</glyph>
<glyph name="uni0312" format="2">
  <advance width="224"/>
  <unicode hex="0312"/>
  <guideline x="311" y="551" angle="90" name="mid" identifier="LkoWdPbnKD"/>
  <anchor x="111" y="530" name="_top"/>
  <outline>
    <contour>
      <point x="70.0" y="670.0" type="curve" smooth="yes"/>
      <point x="50.0" y="551.0" type="line"/>
      <point x="174.0" y="551.0" type="line"/>
      <point x="174.0" y="720.0" type="line"/>
      <point x="131.0" y="720.0" type="line" smooth="yes"/>
      <point x="98.0" y="720.0"/>
      <point x="75.0" y="701.0"/>
    </contour>
  </outline>
</glyph>
<glyph name="uni0326" format="1">
  <advance width="224.0"/>
  <unicode hex="0326"/>
  <outline>
    <contour>
      <point x="154.0" y="-169.0" type="curve" smooth="yes"/>
      <point x="174.0" y="-50.0" type="line"/>
      <point x="50.0" y="-50.0" type="line"/>
      <point x="50.0" y="-219.0" type="line"/>
      <point x="93.0" y="-219.0" type="line" smooth="yes"/>
      <point x="126.0" y="-219.0"/>
      <point x="149.0" y="-200.0"/>
    </contour>
    <contour>
      <point x="114" y="0" type="move" name="_bottom"/>
    </contour>
  </outline>
</glyph>
<glyph name="uni0394" format="2">
  <advance width="614"/>
  <unicode hex="0394"/>
  <outline>
    <contour>
      <point x="504.0" y="0.0" type="line"/>
      <point x="596.0" y="0.0" type="line"/>
      <point x="596.0" y="145.0" type="line"/>
      <point x="387.0" y="627.0" type="line"/>
      <point x="232.0" y="627.0" type="line"/>
    </contour>
    <contour>
      <point x="110.0" y="0.0" type="line"/>
      <point x="382.0" y="627.0" type="line"/>
      <point x="227.0" y="627.0" type="line"/>
      <point x="18.0" y="145.0" type="line"/>
      <point x="18.0" y="0.0" type="line"/>
    </contour>
    <contour>
      <point x="93.0" y="145.0" type="line"/>
      <point x="93.0" y="0.0" type="line"/>
      <point x="515.0" y="0.0" type="line"/>
      <point x="515.0" y="145.0" type="line"/>
    </contour>
  </outline>
</glyph>
<glyph name="uni03A9" format="2">
  <advance width="673"/>
  <unicode hex="03A9"/>
  <outline>
    <contour>
      <point x="309.0" y="0.0" type="line"/>
      <point x="309.0" y="239.0" type="line"/>
      <point x="174.0" y="239.0" type="line"/>
      <point x="174.0" y="0.0" type="line"/>
    </contour>
    <contour>
      <point x="52.0" y="145.0" type="line"/>
      <point x="52.0" y="0.0" type="line"/>
      <point x="309.0" y="0.0" type="line"/>
      <point x="309.0" y="145.0" type="line"/>
    </contour>
    <contour>
      <point x="309.0" y="135.0" type="curve"/>
      <point x="309.0" y="239.0" type="line"/>
      <point x="263.7525252255655" y="244.5405071152369"/>
      <point x="190.0" y="281.0"/>
      <point x="190.0" y="372.0" type="curve" smooth="yes"/>
      <point x="190.0" y="455.0"/>
      <point x="238.687898089172" y="502.0"/>
      <point x="337.0" y="502.0" type="curve" smooth="yes"/>
      <point x="434.3333333333333" y="502.0"/>
      <point x="483.0" y="455.0"/>
      <point x="483.0" y="372.0" type="curve" smooth="yes"/>
      <point x="483.0" y="280.0"/>
      <point x="411.1941426116178" y="247.3149456700912"/>
      <point x="365.0" y="239.0" type="curve"/>
      <point x="365.0" y="135.0" type="line"/>
      <point x="541.7755102040817" y="135.0"/>
      <point x="649.0" y="239.0"/>
      <point x="649.0" y="380.0" type="curve"/>
      <point x="649.0" y="534.0"/>
      <point x="545.3229813664597" y="647.0"/>
      <point x="337.0" y="647.0" type="curve" smooth="yes"/>
      <point x="127.687306501548" y="647.0"/>
      <point x="24.0" y="534.0"/>
      <point x="24.0" y="379.0" type="curve"/>
      <point x="24.0" y="239.0"/>
      <point x="129.30489930491646" y="134.03389730809096"/>
    </contour>
    <contour>
      <point x="365.0" y="0.0" type="line"/>
      <point x="500.0" y="0.0" type="line"/>
      <point x="500.0" y="239.0" type="line"/>
      <point x="365.0" y="239.0" type="line"/>
    </contour>
    <contour>
      <point x="622.0" y="145.0" type="line"/>
      <point x="365.0" y="145.0" type="line"/>
      <point x="365.0" y="0.0" type="line"/>
      <point x="622.0" y="0.0" type="line"/>
    </contour>
  </outline>
</glyph>
<glyph name="uni03BC" format="1">
  <advance width="539.0"/>
  <unicode hex="03BC"/>
  <outline>
    <contour>
      <point x="224.0" y="-10.0" type="curve"/>
      <point x="270.0" y="-10.0"/>
      <point x="317.0" y="8.0"/>
      <point x="352.0" y="33.0" type="curve"/>
      <point x="356.0" y="0.0" type="line"/>
      <point x="496.0" y="0.0" type="line"/>
      <point x="496.0" y="494.0" type="line"/>
      <point x="346.0" y="494.0" type="line"/>
      <point x="346.0" y="143.0" type="line"/>
      <point x="321.0" y="136.0"/>
      <point x="287.0" y="130.0"/>
      <point x="253.0" y="130.0" type="curve" smooth="yes"/>
      <point x="209.0" y="130.0"/>
      <point x="193.0" y="145.0"/>
      <point x="193.0" y="177.0" type="curve" smooth="yes"/>
      <point x="193.0" y="494.0" type="line"/>
      <point x="43.0" y="494.0" type="line"/>
      <point x="43.0" y="60.0" type="line" smooth="yes"/>
      <point x="43.0" y="-14.0"/>
      <point x="43.0" y="-86.0"/>
      <point x="69.0" y="-152.0" type="curve"/>
      <point x="221.0" y="-152.0" type="line"/>
      <point x="198.7540688532485" y="-108.51931639498571"/>
      <point x="193.0" y="-59.718309859154935"/>
      <point x="193.0" y="-8.0" type="curve"/>
      <point x="199.0" y="-9.0"/>
      <point x="205.0" y="-10.0"/>
    </contour>
  </outline>
</glyph>
<glyph name="uni03BC" format="2">
  <advance width="539"/>
  <unicode hex="03BC"/>
  <outline>
    <contour>
      <point x="224.0" y="-10.0" type="curve"/>
      <point x="270.0" y="-10.0"/>
      <point x="317.0" y="8.0"/>
      <point x="352.0" y="33.0" type="curve"/>
      <point x="356.0" y="0.0" type="line"/>
      <point x="496.0" y="0.0" type="line"/>
      <point x="496.0" y="494.0" type="line"/>
      <point x="346.0" y="494.0" type="line"/>
      <point x="346.0" y="143.0" type="line"/>
      <point x="321.0" y="136.0"/>
      <point x="287.0" y="130.0"/>
      <point x="253.0" y="130.0" type="curve" smooth="yes"/>
      <point x="209.0" y="130.0"/>
      <point x="193.0" y="145.0"/>
      <point x="193.0" y="177.0" type="curve" smooth="yes"/>
      <point x="193.0" y="494.0" type="line"/>
      <point x="43.0" y="494.0" type="line"/>
      <point x="43.0" y="60.0" type="line" smooth="yes"/>
      <point x="43.0" y="-14.0"/>
      <point x="43.0" y="-86.0"/>
      <point x="69.0" y="-152.0" type="curve"/>
      <point x="221.0" y="-152.0" type="line"/>
      <point x="198.7540688532485" y="-108.51931639498571"/>
      <point x="193.0" y="-59.718309859154935"/>
      <point x="193.0" y="-8.0" type="curve"/>
      <point x="199.0" y="-9.0"/>
      <point x="205.0" y="-10.0"/>
    </contour>
  </outline>
</glyph>
<glyph name="pi" format="2">
  <advance width="587"/>
  <unicode hex="03C0"/>
  <outline>
    <contour>
      <point x="25.0" y="494.0" type="line"/>
      <point x="25.0" y="354.0" type="line"/>
      <point x="562.0" y="354.0" type="line"/>
      <point x="562.0" y="494.0" type="line"/>
    </contour>
    <contour>
      <point x="478.0" y="187.0" type="curve" smooth="yes"/>
      <point x="478.0" y="398.0" type="line"/>
      <point x="328.0" y="398.0" type="line"/>
      <point x="328.0" y="144.0" type="line" smooth="yes"/>
      <point x="328.0" y="54.0"/>
      <point x="382.0" y="0.0"/>
      <point x="472.0" y="0.0" type="curve" smooth="yes"/>
      <point x="539.0" y="0.0" type="line"/>
      <point x="539.0" y="142.0" type="line"/>
      <point x="523.0" y="142.0" type="line" smooth="yes"/>
      <point x="491.0" y="142.0"/>
      <point x="478.0" y="155.0"/>
    </contour>
    <contour>
      <point x="196.0" y="0.0" type="line"/>
      <point x="228.8911750726756" y="96.68012066816759"/>
      <point x="262.9996569400009" y="220.0087235256927"/>
      <point x="256.0" y="398.0" type="curve"/>
      <point x="107.0" y="398.0" type="line"/>
      <point x="117.99873815577564" y="237.01846881092018"/>
      <point x="68.86356040641455" y="99.65890101603635"/>
      <point x="29.0" y="0.0" type="curve"/>
    </contour>
  </outline>
</glyph>
<glyph name="uni1E9E" format="2">
  <advance width="652"/>
  <unicode hex="1E9E"/>
  <outline>
    <contour>
      <point x="305.0" y="637.0" type="curve"/>
      <point x="129.0" y="637.0"/>
      <point x="44.0" y="574.0"/>
      <point x="44.0" y="425.0" type="curve" smooth="yes"/>
      <point x="44.0" y="0.0" type="line"/>
      <point x="199.0" y="0.0" type="line"/>
      <point x="199.0" y="424.0" type="line" smooth="yes"/>
      <point x="199.0" y="486.0"/>
      <point x="235.0" y="502.0"/>
      <point x="294.0" y="502.0" type="curve"/>
      <point x="318.0" y="502.0"/>
      <point x="371.0" y="499.0"/>
      <point x="384.0" y="495.0" type="curve"/>
      <point x="335.0" y="270.0" type="line"/>
      <point x="448.0" y="243.0" type="line" smooth="yes"/>
      <point x="476.0" y="236.0"/>
      <point x="480.0" y="227.67391304347825"/>
      <point x="480.0" y="196.0" type="curve" smooth="yes"/>
      <point x="480.0" y="150.3108108108108"/>
      <point x="466.0" y="127.0"/>
      <point x="417.0" y="127.0" type="curve" smooth="yes"/>
      <point x="372.0" y="127.0"/>
      <point x="332.0" y="131.0"/>
      <point x="302.0" y="136.0" type="curve"/>
      <point x="302.0" y="3.0" type="line"/>
      <point x="339.183503769877" y="-5.263000837750445"/>
      <point x="392.0" y="-10.0"/>
      <point x="453.0" y="-10.0" type="curve" smooth="yes"/>
      <point x="558.0" y="-10.0"/>
      <point x="632.0" y="42.0"/>
      <point x="632.0" y="200.0" type="curve"/>
      <point x="632.0" y="301.32894736842104"/>
      <point x="607.0" y="334.0"/>
      <point x="543.0" y="351.0" type="curve" smooth="yes"/>
      <point x="494.0" y="364.0" type="line"/>
      <point x="547.0" y="598.0" type="line"/>
      <point x="487.0" y="619.0"/>
      <point x="404.0" y="637.0"/>
    </contour>
  </outline>
</glyph>
<glyph name="endash" format="2">
  <advance width="473"/>
  <unicode hex="2013"/>
  <outline>
    <contour>
      <point x="441.0" y="262.0" type="line"/>
      <point x="441.0" y="375.0" type="line"/>
      <point x="32.0" y="375.0" type="line"/>
      <point x="32.0" y="262.0" type="line"/>
    </contour>
  </outline>
</glyph>
<glyph name="emdash" format="2">
  <advance width="753"/>
  <unicode hex="2014"/>
  <outline>
    <contour>
      <point x="721.0" y="262.0" type="line"/>
      <point x="721.0" y="375.0" type="line"/>
      <point x="32.0" y="375.0" type="line"/>
      <point x="32.0" y="262.0" type="line"/>
    </contour>
  </outline>
</glyph>
<glyph name="quoteright" format="2">
  <advance width="179"/>
  <unicode hex="2019"/>
  <outline>
    <contour>
      <point x="136.0" y="449.0" type="curve" smooth="yes"/>
      <point x="166.0" y="627.0" type="line"/>
      <point x="32.0" y="627.0" type="line"/>
      <point x="32.0" y="399.0" type="line"/>
      <point x="75.0" y="399.0" type="line" smooth="yes"/>
      <point x="108.0" y="399.0"/>
      <point x="131.0" y="418.0"/>
    </contour>
  </outline>
</glyph>
<glyph name="dagger" format="1">
  <advance width="339.0"/>
  <unicode hex="2020"/>
  <outline>
    <contour>
      <point x="151.0" y="517.0" type="line"/>
      <point x="151.0" y="439.0" type="line"/>
      <point x="322.0" y="428.0" type="line"/>
      <point x="322.0" y="529.0" type="line"/>
    </contour>
    <contour>
      <point x="227.0" y="221.0" type="line"/>
      <point x="213.0" y="478.0" type="line"/>
      <point x="127.0" y="478.0" type="line"/>
      <point x="112.0" y="221.0" type="line"/>
    </contour>
    <contour>
      <point x="188.0" y="440.0" type="line"/>
      <point x="188.0" y="518.0" type="line"/>
      <point x="17.0" y="529.0" type="line"/>
      <point x="17.0" y="428.0" type="line"/>
    </contour>
    <contour>
      <point x="127.0" y="464.0" type="line"/>
      <point x="213.0" y="464.0" type="line"/>
      <point x="224.0" y="627.0" type="line"/>
      <point x="115.0" y="627.0" type="line"/>
    </contour>
  </outline>
</glyph>
<glyph name="daggerdbl" format="1">
  <advance width="363.0"/>
  <unicode hex="2021"/>
  <outline>
    <contour>
      <point x="163.0" y="517.0" type="line"/>
      <point x="163.0" y="439.0" type="line"/>
      <point x="334.0" y="428.0" type="line"/>
      <point x="334.0" y="529.0" type="line"/>
    </contour>
    <contour>
      <point x="225.0" y="239.0" type="line"/>
      <point x="225.0" y="478.0" type="line"/>
      <point x="139.0" y="478.0" type="line"/>
      <point x="139.0" y="239.0" type="line"/>
    </contour>
    <contour>
      <point x="200.0" y="440.0" type="line"/>
      <point x="200.0" y="518.0" type="line"/>
      <point x="29.0" y="529.0" type="line"/>
      <point x="29.0" y="428.0" type="line"/>
    </contour>
    <contour>
      <point x="139.0" y="464.0" type="line"/>
      <point x="225.0" y="464.0" type="line"/>
      <point x="236.0" y="627.0" type="line"/>
      <point x="127.0" y="627.0" type="line"/>
    </contour>
    <contour>
      <point x="200.0" y="228.0" type="line"/>
      <point x="200.0" y="306.0" type="line"/>
      <point x="29.0" y="317.0" type="line"/>
      <point x="29.0" y="216.0" type="line"/>
    </contour>
    <contour>
      <point x="163.0" y="305.0" type="line"/>
      <point x="163.0" y="227.0" type="line"/>
      <point x="334.0" y="216.0" type="line"/>
      <point x="334.0" y="317.0" type="line"/>
    </contour>
    <contour>
      <point x="224.0" y="281.0" type="line"/>
      <point x="138.0" y="281.0" type="line"/>
      <point x="127.0" y="118.0" type="line"/>
      <point x="236.0" y="118.0" type="line"/>
    </contour>
  </outline>
</glyph>
<glyph name="ellipsis" format="2">
  <advance width="623"/>
  <unicode hex="2026"/>
  <outline>
    <contour>
      <point x="249.0" y="0.0" type="line"/>
      <point x="374.0" y="0.0" type="line"/>
      <point x="374.0" y="138.0" type="line"/>
      <point x="249.0" y="138.0" type="line"/>
    </contour>
    <contour>
      <point x="29.0" y="0.0" type="line"/>
      <point x="154.0" y="0.0" type="line"/>
      <point x="154.0" y="138.0" type="line"/>
      <point x="29.0" y="138.0" type="line"/>
    </contour>
    <contour>
      <point x="469.0" y="0.0" type="line"/>
      <point x="594.0" y="0.0" type="line"/>
      <point x="594.0" y="138.0" type="line"/>
      <point x="469.0" y="138.0" type="line"/>
    </contour>
  </outline>
</glyph>
<glyph name="perthousand" format="1">
  <advance width="971.0"/>
  <unicode hex="2030"/>
  <outline>
    <contour>
      <point x="152.0" y="549.0" type="curve"/>
      <point x="178.0" y="549.0"/>
      <point x="186.0" y="531.8059701492538"/>
      <point x="186.0" y="477.0" type="curve"/>
      <point x="186.0" y="425.1904761904762"/>
      <point x="178.0" y="409.0"/>
      <point x="152.0" y="409.0" type="curve"/>
      <point x="126.0" y="409.0"/>
      <point x="118.0" y="425.1904761904762"/>
      <point x="118.0" y="477.0" type="curve"/>
      <point x="118.0" y="531.8059701492538"/>
      <point x="126.0" y="549.0"/>
    </contour>
    <contour>
      <point x="152.0" y="320.0" type="curve"/>
      <point x="249.0" y="320.0"/>
      <point x="287.0" y="365.0"/>
      <point x="287.0" y="477.0" type="curve"/>
      <point x="287.0" y="589.0"/>
      <point x="249.0" y="634.0"/>
      <point x="152.0" y="634.0" type="curve"/>
      <point x="55.0" y="634.0"/>
      <point x="16.0" y="589.0"/>
      <point x="16.0" y="477.0" type="curve"/>
      <point x="16.0" y="365.0"/>
      <point x="55.0" y="320.0"/>
    </contour>
    <contour>
      <point x="517.0" y="223.0" type="curve"/>
      <point x="543.0" y="223.0"/>
      <point x="551.0" y="205.80597014925374"/>
      <point x="551.0" y="151.0" type="curve"/>
      <point x="551.0" y="99.19047619047619"/>
      <point x="543.0" y="83.0"/>
      <point x="517.0" y="83.0" type="curve"/>
      <point x="491.0" y="83.0"/>
      <point x="483.0" y="99.19047619047619"/>
      <point x="483.0" y="151.0" type="curve"/>
      <point x="483.0" y="205.80597014925374"/>
      <point x="491.0" y="223.0"/>
    </contour>
    <contour>
      <point x="517.0" y="-6.0" type="curve"/>
      <point x="614.0" y="-6.0"/>
      <point x="652.0" y="39.0"/>
      <point x="652.0" y="151.0" type="curve"/>
      <point x="652.0" y="263.0"/>
      <point x="614.0" y="308.0"/>
      <point x="517.0" y="308.0" type="curve"/>
      <point x="420.0" y="308.0"/>
      <point x="381.0" y="263.0"/>
      <point x="381.0" y="151.0" type="curve"/>
      <point x="381.0" y="39.0"/>
      <point x="420.0" y="-6.0"/>
    </contour>
    <contour>
      <point x="820.0" y="223.0" type="curve"/>
      <point x="846.0" y="223.0"/>
      <point x="854.0" y="205.80597014925374"/>
      <point x="854.0" y="151.0" type="curve"/>
      <point x="854.0" y="99.19047619047619"/>
      <point x="846.0" y="83.0"/>
      <point x="820.0" y="83.0" type="curve"/>
      <point x="794.0" y="83.0"/>
      <point x="786.0" y="99.19047619047619"/>
      <point x="786.0" y="151.0" type="curve"/>
      <point x="786.0" y="205.80597014925374"/>
      <point x="794.0" y="223.0"/>
    </contour>
    <contour>
      <point x="820.0" y="-6.0" type="curve"/>
      <point x="917.0" y="-6.0"/>
      <point x="955.0" y="39.0"/>
      <point x="955.0" y="151.0" type="curve"/>
      <point x="955.0" y="263.0"/>
      <point x="917.0" y="308.0"/>
      <point x="820.0" y="308.0" type="curve"/>
      <point x="723.0" y="308.0"/>
      <point x="684.0" y="263.0"/>
      <point x="684.0" y="151.0" type="curve"/>
      <point x="684.0" y="39.0"/>
      <point x="723.0" y="-6.0"/>
    </contour>
    <component base="fraction" xOffset="242.0"/>
  </outline>
</glyph>
<glyph name="guilsinglleft" format="2">
  <advance width="336"/>
  <unicode hex="2039"/>
  <outline>
    <contour>
      <point x="321.0" y="494.0" type="line"/>
      <point x="161.0" y="494.0" type="line"/>
      <point x="12.0" y="281.0" type="line"/>
      <point x="145.0" y="241.0" type="line"/>
    </contour>
    <contour>
      <point x="161.0" y="64.0" type="line"/>
      <point x="321.0" y="64.0" type="line"/>
      <point x="145.0" y="324.0" type="line"/>
      <point x="12.0" y="281.0" type="line"/>
    </contour>
  </outline>
</glyph>
<glyph name="fraction" format="2">
  <advance width="185"/>
  <unicode hex="2044"/>
  <outline>
    <contour>
      <point x="-6.0" y="0.0" type="line"/>
      <point x="294.0" y="627.0" type="line"/>
      <point x="191.0" y="627.0" type="line"/>
      <point x="-109.0" y="0.0" type="line"/>
    </contour>
  </outline>
</glyph>
<glyph name="uni2070" format="2">
  <advance width="357"/>
  <unicode hex="2070"/>
  <guideline x="268" y="445" angle="90" identifier="YvO01fotxw"/>
  <guideline x="2972" y="207" angle="90" identifier="xruk3f5b8q"/>
  <guideline x="212" y="246" angle="0" identifier="hxYUXcU3yl"/>
  <guideline x="8" y="252" angle="90" identifier="nw3WwXjXZd"/>
  <outline>
    <contour>
      <point x="179.0" y="533.0" type="curve"/>
      <point x="217.0" y="533.0"/>
      <point x="224.0" y="523.0"/>
      <point x="224.0" y="449.0" type="curve"/>
      <point x="224.0" y="375.0"/>
      <point x="218.0" y="367.0"/>
      <point x="179.0" y="367.0" type="curve"/>
      <point x="141.0" y="367.0"/>
      <point x="133.0" y="376.0"/>
      <point x="133.0" y="449.0" type="curve"/>
      <point x="133.0" y="525.0"/>
      <point x="140.0" y="533.0"/>
    </contour>
    <contour>
      <point x="179.0" y="264.0" type="curve"/>
      <point x="287.0" y="264.0"/>
      <point x="336.0" y="300.0"/>
      <point x="336.0" y="449.0" type="curve"/>
      <point x="336.0" y="594.0"/>
      <point x="301.0" y="633.0"/>
      <point x="179.0" y="633.0" type="curve"/>
      <point x="71.0" y="633.0"/>
      <point x="21.0" y="596.0"/>
      <point x="21.0" y="449.0" type="curve"/>
      <point x="21.0" y="302.0"/>
      <point x="56.0" y="264.0"/>
    </contour>
  </outline>
</glyph>
<glyph name="uni2074" format="2">
  <advance width="331"/>
  <unicode hex="2074"/>
  <guideline x="118" y="219" angle="353.741" identifier="p9Ynnczrmx"/>
  <outline>
    <contour>
      <point x="317.0" y="343.0" type="line"/>
      <point x="317.0" y="439.0" type="line"/>
      <point x="280.0" y="439.0" type="line"/>
      <point x="280.0" y="565.0" type="line"/>
      <point x="174.0" y="565.0" type="line"/>
      <point x="174.0" y="439.0" type="line"/>
      <point x="128.0" y="439.0" type="line"/>
      <point x="164.0" y="627.0" type="line"/>
      <point x="60.0" y="627.0" type="line"/>
      <point x="18.0" y="440.0" type="line"/>
      <point x="18.0" y="343.0" type="line"/>
      <point x="170.0" y="343.0" type="line"/>
      <point x="170.0" y="270.0" type="line"/>
      <point x="280.0" y="270.0" type="line"/>
      <point x="280.0" y="343.0" type="line"/>
    </contour>
  </outline>
</glyph>
<glyph name="uni2075" format="2">
  <advance width="286"/>
  <unicode hex="2075"/>
  <outline>
    <contour>
      <point x="146.0" y="264.0" type="curve"/>
      <point x="217.0" y="264.0"/>
      <point x="270.0" y="302.0"/>
      <point x="270.0" y="379.0" type="curve"/>
      <point x="270.0" y="475.0"/>
      <point x="223.0" y="491.0"/>
      <point x="175.0" y="491.0" type="curve" smooth="yes"/>
      <point x="165.0" y="491.0"/>
      <point x="154.0" y="491.0"/>
      <point x="142.0" y="490.0" type="curve"/>
      <point x="142.0" y="532.0" type="line"/>
      <point x="246.0" y="532.0" type="line"/>
      <point x="246.0" y="627.0" type="line"/>
      <point x="36.0" y="627.0" type="line"/>
      <point x="36.0" y="400.0" type="line"/>
      <point x="58.0" y="403.0"/>
      <point x="88.0" y="404.0"/>
      <point x="113.0" y="405.0" type="curve"/>
      <point x="156.0" y="405.0"/>
      <point x="163.0" y="399.0"/>
      <point x="163.0" y="380.0" type="curve"/>
      <point x="163.0" y="368.0"/>
      <point x="151.0" y="363.0"/>
      <point x="115.0" y="363.0" type="curve"/>
      <point x="79.0" y="363.0"/>
      <point x="54.0" y="364.0"/>
      <point x="21.0" y="369.0" type="curve"/>
      <point x="21.0" y="276.0" type="line"/>
      <point x="46.0" y="267.0"/>
      <point x="92.0" y="264.0"/>
    </contour>
  </outline>
</glyph>
<glyph name="uni2076" format="2">
  <advance width="316"/>
  <unicode hex="2076"/>
  <outline>
    <contour>
      <point x="20.0" y="439.0" type="curve"/>
      <point x="20.0" y="306.0"/>
      <point x="56.0" y="264.0"/>
      <point x="170.0" y="264.0" type="curve"/>
      <point x="253.0" y="264.0"/>
      <point x="303.0" y="312.0"/>
      <point x="303.0" y="393.0" type="curve"/>
      <point x="303.0" y="472.0"/>
      <point x="271.0" y="511.0"/>
      <point x="204.0" y="511.0" type="curve"/>
      <point x="157.0" y="511.0"/>
      <point x="135.0" y="498.0"/>
      <point x="121.0" y="492.0" type="curve"/>
      <point x="121.0" y="419.0" type="line"/>
      <point x="124.0" y="419.0"/>
      <point x="147.0" y="423.0"/>
      <point x="166.0" y="423.0" type="curve"/>
      <point x="193.0" y="423.0"/>
      <point x="202.0" y="420.0"/>
      <point x="202.0" y="387.0" type="curve"/>
      <point x="202.0" y="365.0"/>
      <point x="191.0" y="355.0"/>
      <point x="166.0" y="355.0" type="curve"/>
      <point x="128.0" y="355.0"/>
      <point x="125.0" y="367.0"/>
      <point x="125.0" y="430.0" type="curve"/>
      <point x="125.0" y="525.0"/>
      <point x="140.0" y="544.0"/>
      <point x="203.0" y="544.0" type="curve"/>
      <point x="227.0" y="544.0"/>
      <point x="256.0" y="542.0"/>
      <point x="268.0" y="541.0" type="curve"/>
      <point x="268.0" y="627.0" type="line"/>
      <point x="256.0" y="631.0"/>
      <point x="226.0" y="633.0"/>
      <point x="203.0" y="633.0" type="curve"/>
      <point x="79.0" y="633.0"/>
      <point x="20.0" y="573.0"/>
    </contour>
  </outline>
</glyph>
<glyph name="uni2077" format="2">
  <advance width="286"/>
  <unicode hex="2077"/>
  <outline>
    <contour>
      <point x="272.0" y="528.0" type="line"/>
      <point x="272.0" y="627.0" type="line"/>
      <point x="20.0" y="627.0" type="line"/>
      <point x="20.0" y="528.0" type="line"/>
      <point x="153.0" y="528.0" type="line"/>
      <point x="11.0" y="270.0" type="line"/>
      <point x="136.0" y="270.0" type="line"/>
    </contour>
  </outline>
</glyph>
<glyph name="uni2078" format="2">
  <advance width="322"/>
  <unicode hex="2078"/>
  <guideline x="255" y="318" angle="0" name="mid" identifier="OlyjLJq5bO"/>
  <outline>
    <contour>
      <point x="161.0" y="264.0" type="curve"/>
      <point x="261.0" y="264.0"/>
      <point x="303.0" y="295.0"/>
      <point x="303.0" y="368.0" type="curve"/>
      <point x="303.0" y="408.0"/>
      <point x="283.0" y="442.0"/>
      <point x="243.0" y="455.0" type="curve"/>
      <point x="283.0" y="471.0"/>
      <point x="296.0" y="501.0"/>
      <point x="296.0" y="536.0" type="curve"/>
      <point x="296.0" y="608.0"/>
      <point x="260.0" y="633.0"/>
      <point x="161.0" y="633.0" type="curve"/>
      <point x="67.0" y="633.0"/>
      <point x="26.0" y="605.0"/>
      <point x="26.0" y="537.0" type="curve"/>
      <point x="25.0" y="501.0"/>
      <point x="39.0" y="472.0"/>
      <point x="79.0" y="455.0" type="curve"/>
      <point x="39.0" y="442.0"/>
      <point x="19.0" y="408.0"/>
      <point x="19.0" y="370.0" type="curve"/>
      <point x="19.0" y="292.0"/>
      <point x="57.0" y="264.0"/>
    </contour>
    <contour>
      <point x="161.0" y="544.0" type="curve"/>
      <point x="189.0" y="544.0"/>
      <point x="200.0" y="539.0"/>
      <point x="200.0" y="519.0" type="curve"/>
      <point x="200.0" y="497.0"/>
      <point x="188.0" y="493.0"/>
      <point x="161.0" y="493.0" type="curve"/>
      <point x="134.0" y="493.0"/>
      <point x="123.0" y="497.0"/>
      <point x="123.0" y="520.0" type="curve"/>
      <point x="123.0" y="539.0"/>
      <point x="132.0" y="544.0"/>
    </contour>
    <contour>
      <point x="161.0" y="409.0" type="curve"/>
      <point x="191.0" y="409.0"/>
      <point x="201.0" y="402.0"/>
      <point x="201.0" y="384.0" type="curve"/>
      <point x="201.0" y="363.0"/>
      <point x="190.0" y="356.0"/>
      <point x="161.0" y="356.0" type="curve"/>
      <point x="130.0" y="356.0"/>
      <point x="121.0" y="363.0"/>
      <point x="121.0" y="386.0" type="curve"/>
      <point x="121.0" y="403.0"/>
      <point x="130.0" y="409.0"/>
    </contour>
  </outline>
</glyph>
<glyph name="uni2079" format="1">
  <advance width="320.0"/>
  <unicode hex="2079"/>
  <outline>
    <contour>
      <point x="300.0" y="457.0" type="curve"/>
      <point x="300.0" y="590.0"/>
      <point x="265.0" y="633.0"/>
      <point x="153.0" y="633.0" type="curve"/>
      <point x="66.0" y="633.0"/>
      <point x="14.0" y="584.0"/>
      <point x="14.0" y="503.0" type="curve"/>
      <point x="14.0" y="425.0"/>
      <point x="48.0" y="385.0"/>
      <point x="117.0" y="385.0" type="curve"/>
      <point x="160.0" y="385.0"/>
      <point x="182.0" y="399.0"/>
      <point x="198.0" y="404.0" type="curve"/>
      <point x="198.0" y="479.0" type="line"/>
      <point x="195.0" y="480.0"/>
      <point x="184.0" y="473.0"/>
      <point x="153.0" y="473.0" type="curve"/>
      <point x="125.0" y="473.0"/>
      <point x="117.0" y="476.0"/>
      <point x="117.0" y="509.0" type="curve"/>
      <point x="117.0" y="531.0"/>
      <point x="127.0" y="541.0"/>
      <point x="153.0" y="541.0" type="curve"/>
      <point x="191.0" y="541.0"/>
      <point x="194.0" y="529.0"/>
      <point x="194.0" y="468.0" type="curve"/>
      <point x="194.0" y="373.0"/>
      <point x="179.0" y="355.0"/>
      <point x="115.0" y="355.0" type="curve"/>
      <point x="86.0" y="355.0"/>
      <point x="63.0" y="356.0"/>
      <point x="47.0" y="358.0" type="curve"/>
      <point x="47.0" y="269.0" type="line"/>
      <point x="59.0" y="266.0"/>
      <point x="94.0" y="264.0"/>
      <point x="115.0" y="264.0" type="curve"/>
      <point x="241.0" y="264.0"/>
      <point x="300.0" y="324.0"/>
    </contour>
  </outline>
</glyph>
<glyph name="Euro" format="2">
  <advance width="529"/>
  <unicode hex="20AC"/>
  <outline>
    <contour>
      <point x="17.0" y="419.0" type="line"/>
      <point x="17.0" y="339.0" type="line"/>
      <point x="447.0" y="339.0" type="line"/>
      <point x="447.0" y="419.0" type="line"/>
    </contour>
    <contour>
      <point x="17.0" y="299.0" type="line"/>
      <point x="17.0" y="219.0" type="line"/>
      <point x="447.0" y="219.0" type="line"/>
      <point x="447.0" y="299.0" type="line"/>
    </contour>
    <contour>
      <point x="506.0" y="166.0" type="line"/>
      <point x="465.0" y="151.0"/>
      <point x="410.0" y="135.0"/>
      <point x="365.0" y="135.0" type="curve"/>
      <point x="272.0" y="135.0"/>
      <point x="252.0" y="155.0"/>
      <point x="252.0" y="314.0" type="curve" smooth="yes"/>
      <point x="252.0" y="476.0"/>
      <point x="272.0" y="497.0"/>
      <point x="375.0" y="497.0" type="curve"/>
      <point x="416.0" y="497.0"/>
      <point x="454.0" y="495.0"/>
      <point x="492.0" y="493.0" type="curve"/>
      <point x="492.0" y="628.0" type="line"/>
      <point x="457.0" y="634.0"/>
      <point x="416.0" y="637.0"/>
      <point x="375.0" y="637.0" type="curve"/>
      <point x="177.0" y="637.0"/>
      <point x="92.0" y="551.0"/>
      <point x="92.0" y="314.0" type="curve" smooth="yes"/>
      <point x="92.0" y="61.0"/>
      <point x="163.07509881422925" y="-10.0"/>
      <point x="335.0" y="-10.0" type="curve"/>
      <point x="419.0" y="-10.0"/>
      <point x="470.33981807927586" y="10.121080159616643"/>
      <point x="506.0" y="29.0" type="curve"/>
    </contour>
  </outline>
</glyph>
<glyph name="uni20BA" format="1">
  <advance width="546.0"/>
  <unicode hex="20BA"/>
  <outline>
    <contour>
      <point x="376.0" y="274.0" type="line"/>
      <point x="376.0" y="171.0"/>
      <point x="356.0" y="145.0"/>
      <point x="276.0" y="145.0" type="curve" smooth="yes"/>
      <point x="256.0" y="145.0" type="line"/>
      <point x="256.0" y="627.0" type="line"/>
      <point x="101.0" y="627.0" type="line"/>
      <point x="101.0" y="0.0" type="line"/>
      <point x="276.0" y="0.0" type="line" smooth="yes"/>
      <point x="447.0" y="0.0"/>
      <point x="531.0" y="90.0"/>
      <point x="531.0" y="274.0" type="curve"/>
    </contour>
    <contour>
      <point x="31.0" y="412.0" type="line"/>
      <point x="31.0" y="329.0" type="line"/>
      <point x="418.0" y="449.0" type="line"/>
      <point x="418.0" y="532.0" type="line"/>
    </contour>
    <contour>
      <point x="31.0" y="289.0" type="line"/>
      <point x="31.0" y="206.0" type="line"/>
      <point x="418.0" y="326.0" type="line"/>
      <point x="418.0" y="409.0" type="line"/>
    </contour>
    <contour>
      <point x="305.0" y="645.0" type="move" name="top"/>
    </contour>
  </outline>
</glyph>
<glyph name="uni20BA" format="2">
  <advance width="546"/>
  <unicode hex="20BA"/>
  <guideline x="311.0" y="0.0" angle="90.0" name="mid" identifier="3K1vSn0kUz"/>
  <outline>
    <contour>
      <point x="376.0" y="274.0" type="line"/>
      <point x="376.0" y="171.0"/>
      <point x="356.0" y="145.0"/>
      <point x="276.0" y="145.0" type="curve" smooth="yes"/>
      <point x="256.0" y="145.0" type="line"/>
      <point x="256.0" y="627.0" type="line"/>
      <point x="101.0" y="627.0" type="line"/>
      <point x="101.0" y="0.0" type="line"/>
      <point x="276.0" y="0.0" type="line" smooth="yes"/>
      <point x="447.0" y="0.0"/>
      <point x="531.0" y="90.0"/>
      <point x="531.0" y="274.0" type="curve"/>
    </contour>
    <contour>
      <point x="31.0" y="412.0" type="line"/>
      <point x="31.0" y="329.0" type="line"/>
      <point x="418.0" y="449.0" type="line"/>
      <point x="418.0" y="532.0" type="line"/>
    </contour>
    <contour>
      <point x="31.0" y="289.0" type="line"/>
      <point x="31.0" y="206.0" type="line"/>
      <point x="418.0" y="326.0" type="line"/>
      <point x="418.0" y="409.0" type="line"/>
    </contour>
  </outline>
</glyph>
<glyph name="uni2120" format="2">
  <advance width="752"/>
  <unicode hex="2120"/>
  <guideline x="287" y="276" angle="0" identifier="00XmNn4oHG"/>
  <outline>
    <contour>
      <point x="110.0" y="417.0" type="curve" smooth="yes"/>
      <point x="173.0" y="403.0" type="line" smooth="yes"/>
      <point x="184.0" y="401.0"/>
      <point x="191.0" y="399.0"/>
      <point x="191.0" y="386.0" type="curve" smooth="yes"/>
      <point x="191.0" y="369.0"/>
      <point x="184.0" y="362.0"/>
      <point x="153.0" y="362.0" type="curve" smooth="yes"/>
      <point x="101.0" y="362.0"/>
      <point x="57.0" y="370.0"/>
      <point x="32.0" y="377.0" type="curve"/>
      <point x="32.0" y="281.0" type="line"/>
      <point x="53.0" y="274.0"/>
      <point x="98.0" y="267.0"/>
      <point x="153.0" y="267.0" type="curve" smooth="yes"/>
      <point x="277.0" y="267.0"/>
      <point x="296.0" y="330.0"/>
      <point x="296.0" y="387.0" type="curve" smooth="yes"/>
      <point x="296.0" y="470.0"/>
      <point x="261.0" y="479.0"/>
      <point x="210.0" y="490.0" type="curve" smooth="yes"/>
      <point x="147.0" y="503.0" type="line" smooth="yes"/>
      <point x="135.0" y="505.0"/>
      <point x="131.0" y="510.0"/>
      <point x="131.0" y="521.0" type="curve" smooth="yes"/>
      <point x="131.0" y="536.0"/>
      <point x="138.0" y="545.0"/>
      <point x="170.0" y="545.0" type="curve" smooth="yes"/>
      <point x="221.0" y="545.0"/>
      <point x="246.0" y="538.0"/>
      <point x="267.0" y="535.0" type="curve"/>
      <point x="267.0" y="626.0" type="line"/>
      <point x="249.0" y="631.0"/>
      <point x="222.0" y="636.0"/>
      <point x="172.0" y="636.0" type="curve" smooth="yes"/>
      <point x="77.0" y="636.0"/>
      <point x="31.0" y="596.0"/>
      <point x="31.0" y="512.0" type="curve" smooth="yes"/>
      <point x="31.0" y="437.0"/>
      <point x="71.0" y="426.0"/>
    </contour>
    <contour>
      <point x="713.0" y="276.0" type="line"/>
      <point x="713.0" y="627.0" type="line"/>
      <point x="588.0" y="627.0" type="line"/>
      <point x="523.0" y="473.0" type="line"/>
      <point x="459.0" y="627.0" type="line"/>
      <point x="329.0" y="627.0" type="line"/>
      <point x="329.0" y="276.0" type="line"/>
      <point x="429.0" y="276.0" type="line"/>
      <point x="429.0" y="458.0" type="line"/>
      <point x="480.0" y="342.0" type="line"/>
      <point x="562.0" y="342.0" type="line"/>
      <point x="613.0" y="458.0" type="line"/>
      <point x="613.0" y="276.0" type="line"/>
    </contour>
  </outline>
</glyph>
<glyph name="trademark" format="1">
  <advance width="770.0"/>
  <unicode hex="2122"/>
  <outline>
    <contour>
      <point x="313.0" y="530.0" type="line"/>
      <point x="313.0" y="627.0" type="line"/>
      <point x="16.0" y="627.0" type="line"/>
      <point x="16.0" y="530.0" type="line"/>
      <point x="111.0" y="530.0" type="line"/>
      <point x="111.0" y="276.0" type="line"/>
      <point x="218.0" y="276.0" type="line"/>
      <point x="218.0" y="530.0" type="line"/>
    </contour>
    <contour>
      <point x="730.0" y="276.0" type="line"/>
      <point x="730.0" y="627.0" type="line"/>
      <point x="605.0" y="627.0" type="line"/>
      <point x="540.0" y="473.0" type="line"/>
      <point x="476.0" y="627.0" type="line"/>
      <point x="346.0" y="627.0" type="line"/>
      <point x="346.0" y="276.0" type="line"/>
      <point x="446.0" y="276.0" type="line"/>
      <point x="446.0" y="458.0" type="line"/>
      <point x="497.0" y="342.0" type="line"/>
      <point x="579.0" y="342.0" type="line"/>
      <point x="630.0" y="458.0" type="line"/>
      <point x="630.0" y="276.0" type="line"/>
    </contour>
  </outline>
</glyph>
<glyph name="arrowup" format="2">
  <advance width="659"/>
  <unicode hex="2191"/>
  <outline>
    <contour>
      <point x="643.0" y="306.0" type="line"/>
      <point x="643.0" y="474.0" type="line"/>
      <point x="328.0" y="646.0" type="line"/>
      <point x="16.0" y="474.0" type="line"/>
      <point x="16.0" y="306.0" type="line"/>
      <point x="188.0" y="399.0" type="line" smooth="yes"/>
      <point x="207.96290212102988" y="409.7938947514871"/>
      <point x="237.0" y="426.0"/>
      <point x="253.0" y="438.0" type="curve"/>
      <point x="256.0" y="437.0" type="line"/>
      <point x="254.02008258208872" y="411.26107356715306"/>
      <point x="254.0" y="393.44444444444446"/>
      <point x="254.0" y="339.0" type="curve" smooth="yes"/>
      <point x="254.0" y="0.0" type="line"/>
      <point x="404.0" y="0.0" type="line"/>
      <point x="404.0" y="339.0" type="line" smooth="yes"/>
      <point x="404.0" y="393.44444444444446"/>
      <point x="403.9799174179113" y="411.26107356715306"/>
      <point x="402.0" y="437.0" type="curve"/>
      <point x="405.0" y="438.0" type="line"/>
      <point x="421.0" y="426.0"/>
      <point x="447.9598992906211" y="409.64988209126994"/>
      <point x="468.0" y="399.0" type="curve" smooth="yes"/>
    </contour>
  </outline>
</glyph>
<glyph name="partialdiff" format="2">
  <advance width="538"/>
  <unicode hex="2202"/>
  <outline>
    <contour>
      <point x="366.0" y="434.0" type="curve"/>
      <point x="366.0" y="249.0"/>
      <point x="340.0" y="129.0"/>
      <point x="243.0" y="129.0" type="curve"/>
      <point x="183.0" y="129.0"/>
      <point x="164.0" y="157.0"/>
      <point x="164.0" y="210.0" type="curve"/>
      <point x="164.0" y="267.0"/>
      <point x="184.0" y="329.0"/>
      <point x="263.0" y="329.0" type="curve"/>
      <point x="312.0" y="329.0"/>
      <point x="339.0" y="320.0"/>
      <point x="387.0" y="292.0" type="curve"/>
      <point x="393.0" y="410.0" type="line"/>
      <point x="326.0" y="440.0"/>
      <point x="283.0" y="444.0"/>
      <point x="240.0" y="444.0" type="curve"/>
      <point x="87.0" y="444.0"/>
      <point x="11.0" y="338.0"/>
      <point x="11.0" y="194.0" type="curve"/>
      <point x="11.0" y="65.0"/>
      <point x="80.0" y="-10.0"/>
      <point x="215.0" y="-10.0" type="curve" smooth="yes"/>
      <point x="470.0" y="-10.0"/>
      <point x="512.0" y="244.0"/>
      <point x="512.0" y="437.0" type="curve"/>
      <point x="512.0" y="606.0"/>
      <point x="440.0" y="674.0"/>
      <point x="270.0" y="674.0" type="curve" smooth="yes"/>
      <point x="223.0" y="674.0"/>
      <point x="170.0" y="669.0"/>
      <point x="113.0" y="657.0" type="curve"/>
      <point x="113.0" y="535.0" type="line"/>
      <point x="158.0" y="544.0"/>
      <point x="209.0" y="549.0"/>
      <point x="242.0" y="549.0" type="curve" smooth="yes"/>
      <point x="345.0" y="549.0"/>
      <point x="366.0" y="517.0"/>
    </contour>
  </outline>
</glyph>
<glyph name="product" format="2">
  <advance width="606"/>
  <unicode hex="220F"/>
  <outline>
    <contour>
      <point x="250.0" y="-152.0" type="line"/>
      <point x="250.0" y="511.0" type="line"/>
      <point x="95.0" y="511.0" type="line"/>
      <point x="95.0" y="-152.0" type="line"/>
    </contour>
    <contour>
      <point x="511.0" y="-152.0" type="line"/>
      <point x="511.0" y="511.0" type="line"/>
      <point x="356.0" y="511.0" type="line"/>
      <point x="356.0" y="-152.0" type="line"/>
    </contour>
    <contour>
      <point x="17.0" y="627.0" type="line"/>
      <point x="17.0" y="482.0" type="line"/>
      <point x="589.0" y="482.0" type="line"/>
      <point x="589.0" y="627.0" type="line"/>
    </contour>
  </outline>
</glyph>
<glyph name="summation" format="2">
  <advance width="526"/>
  <unicode hex="2211"/>
  <outline>
    <contour>
      <point x="16.0" y="-7.0" type="line"/>
      <point x="16.0" y="-152.0" type="line"/>
      <point x="508.0" y="-152.0" type="line"/>
      <point x="508.0" y="-7.0" type="line"/>
      <point x="226.0" y="-7.0" type="line"/>
      <point x="444.0" y="238.0" type="line"/>
      <point x="253.0" y="482.0" type="line"/>
      <point x="488.0" y="482.0" type="line"/>
      <point x="488.0" y="627.0" type="line"/>
      <point x="41.0" y="627.0" type="line"/>
      <point x="41.0" y="482.0" type="line"/>
      <point x="245.0" y="238.0" type="line"/>
    </contour>
  </outline>
</glyph>
<glyph name="minus" format="2">
  <advance width="500"/>
  <unicode hex="2212"/>
  <outline>
    <contour>
      <point x="463.0" y="252.0" type="line"/>
      <point x="463.0" y="392.0" type="line"/>
      <point x="37.0" y="392.0" type="line"/>
      <point x="37.0" y="252.0" type="line"/>
    </contour>
  </outline>
</glyph>
<glyph name="radical" format="1">
  <advance width="655.0"/>
  <unicode hex="221A"/>
  <outline>
    <contour>
      <point x="228.0" y="-152.0" type="line"/>
      <point x="322.0" y="-152.0" type="line"/>
      <point x="322.0" y="-7.0" type="line"/>
      <point x="221.0" y="327.0" type="line"/>
      <point x="43.0" y="327.0" type="line"/>
    </contour>
    <contour>
      <point x="400.0" y="-152.0" type="line"/>
      <point x="665.0" y="779.0" type="line"/>
      <point x="498.0" y="779.0" type="line"/>
      <point x="283.0" y="-7.0" type="line"/>
      <point x="283.0" y="-152.0" type="line"/>
    </contour>
    <contour>
      <point x="3.0" y="327.0" type="line"/>
      <point x="3.0" y="182.0" type="line"/>
      <point x="185.0" y="182.0" type="line"/>
      <point x="185.0" y="327.0" type="line"/>
    </contour>
  </outline>
</glyph>
